<svg width="69" height="74" viewBox="0 0 69 74" fill="none" xmlns="http://www.w3.org/2000/svg">
<path d="M26.835 42.7628L28.5585 46.9636L24.1422 70.1223H3.99951C4.86123 56.8734 14.2324 45.8865 26.835 42.7628Z" fill="#D6E0F9"/>
<path d="M44.1771 70.1223L39.7608 46.9636L41.4842 42.7628C53.9791 45.8865 63.3503 56.8734 64.212 70.1223H44.1771Z" fill="#D6E0F9"/>
<path d="M34.0519 34.2533C24.573 34.2533 16.9253 26.6055 16.9253 17.1266C16.9253 7.64774 24.6808 0 34.0519 0C43.4231 0 51.1786 7.64774 51.1786 17.1266C51.1786 26.6055 43.5308 34.2533 34.0519 34.2533ZM34.0519 3.77002C26.7273 3.77002 20.6953 9.69432 20.6953 17.1266C20.6953 24.559 26.6196 30.4833 34.0519 30.4833C41.4842 30.4833 47.4086 24.559 47.4086 17.1266C47.4086 9.69432 41.4842 3.77002 34.0519 3.77002Z" fill="#3464E0"/>
<path d="M34.0519 38.131C15.4173 38.131 0.121765 53.3188 0.121765 72.0611C0.121765 73.1383 0.983483 74 2.06063 74H66.2586C67.3357 74 68.1975 73.1383 68.1975 72.0611C68.0898 53.3188 52.7943 38.131 34.0519 38.131ZM37.6065 42.1164L36.4216 44.917H34.0519H31.6822L30.4973 42.1164C31.6822 42.0087 32.7593 41.901 33.9442 41.901C35.2368 41.901 36.4216 42.0087 37.6065 42.1164ZM26.835 42.7627L28.5584 46.9636L24.1421 70.1222H3.99949C4.86121 56.8733 14.2324 45.8864 26.835 42.7627ZM44.1771 70.1222L39.7608 46.9636L41.4842 42.7627C53.9791 45.8864 63.3503 56.8733 64.212 70.1222H44.1771Z" fill="#3464E0"/>
<path d="M34.0519 30.4833C41.4286 30.4833 47.4085 24.5033 47.4085 17.1266C47.4085 9.74998 41.4286 3.77002 34.0519 3.77002C26.6752 3.77002 20.6953 9.74998 20.6953 17.1266C20.6953 24.5033 26.6752 30.4833 34.0519 30.4833Z" fill="#F7F9FE" stroke="#3464E0" stroke-width="3" stroke-miterlimit="10"/>
<path d="M37.6065 42.1164L36.4216 44.917H34.0519H31.6822L30.4973 42.1164C31.6822 42.0087 32.7593 41.901 33.9442 41.901C35.2368 41.901 36.4216 42.0087 37.6065 42.1164Z" fill="#F7F9FE"/>
<path d="M40.2993 70.1223H27.9121L32.0053 48.6871H34.0519H34.1596H36.2062L40.2993 70.1223Z" fill="#F7F9FE"/>
</svg>
