<svg width="67" height="67" viewBox="0 0 67 67" fill="none" xmlns="http://www.w3.org/2000/svg">
<path d="M42.304 49.288H25.0347V61.8857H42.304V49.288Z" fill="#D6E0F9"/>
<path d="M42.304 64.3821H25.0347C23.6438 64.3821 22.4848 63.221 22.4848 61.8277V49.288C22.4848 47.8947 23.6438 46.7336 25.0347 46.7336H42.304C43.6948 46.7336 44.8538 47.8947 44.8538 49.288V61.8858C44.8538 63.2791 43.6948 64.3821 42.304 64.3821ZM27.5845 59.3314H39.7541V51.8424H27.5845V59.3314Z" fill="#3464E0"/>
<path d="M47.4616 66.9944H19.8771C18.4862 66.9944 17.3272 65.8333 17.3272 64.44C17.3272 63.0467 18.4862 61.8856 19.8771 61.8856H47.4616C48.8524 61.8856 50.0114 63.0467 50.0114 64.44C50.0114 65.8333 48.8524 66.9944 47.4616 66.9944Z" fill="#3464E0"/>
<path d="M46.2447 40.3476H19.8771C8.92441 40.3476 0 31.4073 0 20.435V10.74H66.1218V20.377C66.1218 31.4073 57.1974 40.3476 46.2447 40.3476ZM5.04171 15.8488V20.377C5.04171 28.5626 11.706 35.1808 19.8191 35.1808H46.1867C54.3578 35.1808 60.9642 28.5046 60.9642 20.377V15.8488H5.04171Z" fill="#3464E0"/>
<path d="M33.6693 51.9584C22.6007 51.9584 13.5604 42.96 13.5604 31.8136V2.55432H53.7202V31.8717C53.7202 42.96 44.7379 51.9584 33.6693 51.9584Z" fill="#F7F9FE"/>
<path d="M33.6693 54.5128C21.2099 54.5128 11.0685 44.3534 11.0685 31.8717V0H56.328V31.8717C56.2701 44.3534 46.1287 54.5128 33.6693 54.5128ZM16.1102 5.10876V31.8717C16.1102 41.5668 23.9915 49.4621 33.6693 49.4621C43.3471 49.4621 51.2284 41.5668 51.2284 31.8717V5.10876H16.1102Z" fill="#3464E0"/>
</svg>
