<svg width="40" height="67" viewBox="0 0 40 67" fill="none" xmlns="http://www.w3.org/2000/svg">
<path d="M29.3571 35.8013C29.7732 34.8914 30.9264 34.0486 31.9208 33.9358C32.9153 33.8229 33.8216 32.9131 33.9344 31.9186C34.0543 30.9312 34.8936 29.7745 35.7999 29.3549C36.2565 29.1225 36.6281 28.752 36.8618 28.2961C37.0954 27.8402 37.1792 27.3221 37.1012 26.8158C36.8967 25.8354 37.341 24.4778 38.0745 23.8042C38.4383 23.4412 38.6776 22.9723 38.7581 22.4647C38.8386 21.9572 38.756 21.4372 38.5224 20.9795C38.2806 20.4873 38.1548 19.9462 38.1548 19.3979C38.1548 18.8495 38.2806 18.3084 38.5224 17.8162C38.7566 17.3587 38.8394 16.8386 38.7589 16.3309C38.6784 15.8232 38.4388 15.3542 38.0745 14.9915C37.341 14.3109 36.9002 12.9568 37.1012 11.9799C37.1802 11.4725 37.097 10.9532 36.8633 10.4959C36.6296 10.0387 36.2575 9.66697 35.7999 9.4338C35.3154 9.1753 34.8958 8.81029 34.5727 8.36623C34.2496 7.92216 34.0314 7.41062 33.9344 6.87006C33.854 6.3646 33.6161 5.89744 33.2545 5.53522C32.8929 5.173 32.4261 4.93421 31.9208 4.85291C31.3801 4.75788 30.8681 4.54078 30.4238 4.21813C29.9796 3.89548 29.6147 3.47578 29.3571 2.99093C29.1244 2.53357 28.7524 2.16204 28.2947 1.93002C27.837 1.69801 27.3174 1.61754 26.811 1.70024C26.2675 1.77642 25.7138 1.72772 25.1919 1.55784C24.6701 1.38797 24.1938 1.10139 23.7993 0.719881C23.1187 -0.0206788 21.8492 -0.218161 20.9782 0.272019C20.1071 0.762199 18.6789 0.762199 17.8114 0.272019C17.3551 0.0347489 16.8349 -0.0504539 16.3267 0.0288481C15.8185 0.10815 15.349 0.347805 14.9867 0.712828C14.5925 1.09478 14.1163 1.38165 13.5943 1.55155C13.0724 1.72145 12.5186 1.7699 11.9751 1.69319C11.4693 1.61182 10.9508 1.69334 10.4944 1.92598C10.038 2.15862 9.66733 2.53033 9.43601 2.98741C9.01636 3.89018 7.86321 4.73301 6.86874 4.84586C6.3625 4.92719 5.89489 5.16637 5.53264 5.52924C5.1704 5.89212 4.93204 6.36015 4.8516 6.86653C4.75593 7.40709 4.53816 7.91868 4.21488 8.36235C3.8916 8.80602 3.47134 9.17006 2.98609 9.42675C2.53018 9.6611 2.15993 10.0334 1.92816 10.4907C1.69638 10.9479 1.61492 11.4666 1.6954 11.9729C1.88936 12.9497 1.44855 14.3074 0.715039 14.9845C-0.0184675 15.6616 -0.223003 16.9311 0.267178 17.8092C0.757358 18.6767 0.757358 20.1049 0.267178 20.9724C0.0332422 21.4307 -0.0494302 21.9512 0.0310385 22.4594C0.111507 22.9676 0.350975 23.4371 0.715039 23.8007C1.45207 24.4707 1.88936 25.8284 1.6954 26.8123C1.61485 27.3176 1.69634 27.8354 1.92821 28.2915C2.16007 28.7476 2.53039 29.1186 2.98609 29.3513C3.89592 29.771 4.7317 30.9277 4.84807 31.9151C4.96797 32.9096 5.87075 33.8194 6.86521 33.9322C7.85968 34.0451 9.01284 34.8914 9.43249 35.7977C9.66561 36.2531 10.0367 36.6231 10.4927 36.8549C10.9487 37.0867 11.4663 37.1684 11.9715 37.0884C12.9519 36.8945 14.3096 37.3318 14.9832 38.0688C15.3464 38.4321 15.8154 38.6711 16.3228 38.7515C16.8302 38.832 17.35 38.7498 17.8079 38.5167C18.6754 38.0265 20.1036 38.0265 20.9746 38.5167C21.8457 39.0068 23.1152 38.8023 23.7958 38.0688C24.4764 37.3282 25.8271 36.8945 26.8074 37.0884C27.3138 37.17 27.8331 37.0894 28.291 36.8583C28.7489 36.6271 29.122 36.2572 29.3571 35.8013ZM19.3948 31.3791C16.2148 31.3791 13.1651 30.1158 10.9166 27.8673C8.66799 25.6187 7.40476 22.569 7.40476 19.389C7.40476 16.2091 8.66799 13.1594 10.9166 10.9108C13.1651 8.66226 16.2148 7.39903 19.3948 7.39903C22.5747 7.39903 25.6244 8.66226 27.873 10.9108C30.1216 13.1594 31.3848 16.2091 31.3848 19.389C31.3848 22.569 30.1216 25.6187 27.873 27.8673C25.6244 30.1158 22.5747 31.3791 19.3948 31.3791ZM5.20072 38.4673L0.817307 63.3254L11.8481 61.6891L21.6553 67L26.021 42.2406C22.4959 43.2713 18.7792 43.467 15.1654 42.812C11.5516 42.1571 8.1399 40.6695 5.20072 38.4673ZM33.3632 38.6366C32.2619 39.437 31.0938 40.1414 29.8719 40.7419L27.2341 55.68L39.1148 49.2336L33.3632 38.6366Z" fill="#3464E0"/>
</svg>
