<svg width="67" height="67" viewBox="0 0 67 67" fill="none" xmlns="http://www.w3.org/2000/svg">
<path d="M33.5 50.25L36.85 43.55V26.3243C42.6154 24.8268 46.9 19.6243 46.9 13.4C46.9 6.0099 40.8901 0 33.5 0C26.1099 0 20.1 6.0099 20.1 13.4C20.1 19.6243 24.3847 24.8268 30.15 26.3243V43.55L33.5 50.25ZM26.8 13.4C26.8 9.70494 29.805 6.7 33.5 6.7C37.1951 6.7 40.2 9.70494 40.2 13.4C40.2 17.095 37.1951 20.1 33.5 20.1C29.805 20.1 26.8 17.095 26.8 13.4Z" fill="#3464E0"/>
<path d="M47.7944 28.6861L46.0089 35.1449C54.6887 37.5435 60.3 42.1564 60.3 46.9C60.3 53.2382 49.2952 60.3 33.5 60.3C17.7048 60.3 6.70001 53.2382 6.70001 46.9C6.70001 42.1564 12.3113 37.5435 20.9945 35.1415L19.2089 28.6827C7.35996 31.959 1.52588e-05 38.9371 1.52588e-05 46.9C1.52588e-05 58.1694 14.7166 67 33.5 67C52.2834 67 67 58.1694 67 46.9C67 38.9371 59.64 31.959 47.7944 28.6861Z" fill="#3464E0"/>
</svg>
