<svg width="110" height="110" viewBox="0 0 110 110" fill="none" xmlns="http://www.w3.org/2000/svg">
<path d="M71.3936 71.3601V78.741C71.3936 82.767 68.1728 86.1219 64.0126 86.1219H8.99127C4.96531 86.1219 1.61035 82.9012 1.61035 78.741V71.3601C1.61035 67.3341 4.83112 63.9792 8.99127 63.9792V62.1004H64.0126V63.9792C68.1728 63.9792 71.3936 67.1999 71.3936 71.3601Z" fill="#B9CAF5"/>
<path d="M71.3936 27.343V34.7239C71.3936 38.7498 68.1729 42.1048 64.0127 42.1048H62.1339V43.9836H9.12555V42.1048C5.09959 42.1048 1.74463 38.884 1.74463 34.7239V27.343C1.74463 23.317 4.96539 19.962 9.12555 19.962H64.1469C68.1729 19.962 71.3936 23.317 71.3936 27.343Z" fill="#B9CAF5"/>
<path d="M71.3936 49.3516V56.7325C71.3936 60.7584 68.1728 64.1134 64.0126 64.1134H8.99127C4.96531 64.1134 1.61035 60.8926 1.61035 56.7325V49.3516C1.61035 45.3256 4.83112 41.9706 8.99127 41.9706H64.0126C68.1728 41.9706 71.3936 45.1914 71.3936 49.3516Z" fill="#B9CAF5"/>
<path d="M65.8915 71.3601V78.741C65.8915 82.767 62.6707 86.1219 58.5106 86.1219H9.12555C5.09959 86.1219 1.74463 82.9012 1.74463 78.741V71.3601C1.74463 67.3341 4.96539 63.9792 9.12555 63.9792C7.38097 63.9792 5.63639 63.3082 4.2944 62.1004H58.6448V63.9792C62.6707 63.9792 65.8915 67.1999 65.8915 71.3601Z" fill="#D6E0F9"/>
<path d="M65.8915 27.343V34.7239C65.8915 38.7498 62.6707 41.9706 58.779 42.1048H56.766V43.9836H4.2944C5.63639 42.7758 7.38097 42.1048 9.12555 42.1048C5.09959 42.1048 1.74463 38.884 1.74463 34.7239V27.343C1.74463 23.317 4.96539 19.962 9.12555 19.962H58.6448C62.6707 19.962 65.8915 23.317 65.8915 27.343Z" fill="#D6E0F9"/>
<path d="M65.8915 49.3516V56.7325C65.8915 60.7584 62.6707 64.1134 58.5106 64.1134H9.12555C5.09959 64.1134 1.74463 60.8926 1.74463 56.7325V49.3516C1.74463 45.3256 4.96539 41.9706 9.12555 41.9706H58.779C62.8049 42.1048 65.8915 45.3256 65.8915 49.3516Z" fill="#D6E0F9"/>
<path d="M34.7574 85.9877H38.3808C39.4544 85.9877 40.2596 86.7929 40.2596 87.8665V100.75H32.8787V87.8665C33.0129 86.7929 33.8181 85.9877 34.7574 85.9877Z" fill="#F7F9FE"/>
<path d="M20.1298 100.615H53.1426C54.2162 100.615 55.0214 101.42 55.0214 102.494V106.117C55.0214 107.191 54.2162 107.996 53.1426 107.996H20.1298C19.0562 107.996 18.251 107.191 18.251 106.117V102.494C18.251 101.42 19.1904 100.615 20.1298 100.615Z" fill="#B9CAF5"/>
<path d="M20.1298 100.615H47.6404C48.714 100.615 49.5192 101.42 49.5192 102.494V106.117C49.5192 107.191 48.714 107.996 47.6404 107.996H20.1298C19.0562 107.996 18.251 107.191 18.251 106.117V102.494C18.251 101.42 19.1904 100.615 20.1298 100.615Z" fill="#D6E0F9"/>
<path d="M23.7531 106.117V102.494C23.7531 101.42 24.5583 100.615 25.6319 100.615H20.1298C19.0562 100.615 18.251 101.42 18.251 102.494V106.117C18.251 107.191 19.0562 107.996 20.1298 107.996H25.6319C24.6925 107.996 23.7531 107.057 23.7531 106.117Z" fill="#F7F9FE"/>
<path d="M7.38096 78.6068V71.2259C7.38096 67.1999 10.6017 63.8449 14.7619 63.8449C10.7359 63.8449 7.38096 60.6242 7.38096 56.464V49.0831C7.38096 45.0572 10.6017 41.7022 14.7619 41.7022C10.7359 41.7022 7.38096 38.4814 7.38096 34.3213V26.9404C7.38096 22.9144 10.6017 19.5594 14.7619 19.5594H9.12555C5.09959 19.5594 1.74463 22.7802 1.74463 26.9404V34.3213C1.74463 38.3472 4.96539 41.7022 9.12555 41.7022C5.09959 41.7022 1.74463 44.923 1.74463 49.0831V56.464C1.74463 60.49 4.96539 63.8449 9.12555 63.8449C5.09959 63.8449 1.74463 67.0657 1.74463 71.2259V78.6068C1.74463 82.6327 4.96539 85.9877 9.12555 85.9877H14.6277C10.6017 85.9877 7.38096 82.6327 7.38096 78.6068Z" fill="#F7F9FE"/>
<path d="M25.0951 21.304C25.2293 21.1698 25.3635 20.9014 25.4977 20.7672C25.6319 20.4988 25.6319 20.3646 25.6319 20.0962C25.6319 19.2911 25.2293 18.6201 24.5583 18.3517C23.8873 18.0833 23.0821 18.2175 22.5453 18.7543L22.2769 19.0227C22.2769 19.1569 22.1427 19.2911 22.1427 19.2911C22.1427 19.4253 22.0085 19.5595 22.0085 19.5595C22.0085 19.6937 22.0085 19.8278 22.0085 19.962C22.0085 20.4988 22.1427 20.9014 22.5453 21.304C22.6795 21.4382 22.9479 21.5724 23.0821 21.7066C23.7531 21.975 24.5583 21.8408 25.0951 21.304Z" fill="#3464E0"/>
<path d="M58.6447 32.8451C59.7183 32.8451 60.5235 32.0399 60.5235 30.9663C60.5235 29.8927 59.7183 29.0875 58.6447 29.0875H55.0214C53.9478 29.0875 53.1426 29.8927 53.1426 30.9663C53.1426 32.0399 53.9478 32.8451 55.0214 32.8451H58.6447Z" fill="#3464E0"/>
<path d="M47.6404 32.8451C48.714 32.8451 49.5192 32.0399 49.5192 30.9663C49.5192 29.8927 48.714 29.0875 47.6404 29.0875H44.0171C42.9435 29.0875 42.1383 29.8927 42.1383 30.9663C42.1383 32.0399 42.9435 32.8451 44.0171 32.8451H47.6404Z" fill="#3464E0"/>
<path d="M11.0043 30.9662C11.0043 34.0528 13.4198 36.4684 16.5064 36.4684C19.593 36.4684 22.0085 34.0528 22.0085 30.9662C22.0085 27.8797 19.593 25.4641 16.5064 25.4641C13.4198 25.4641 11.0043 28.0139 11.0043 30.9662ZM20.3982 30.9662C20.3982 33.1134 18.6536 34.858 16.5064 34.858C14.3592 34.858 12.6147 33.1134 12.6147 30.9662C12.6147 28.8191 14.3592 27.0745 16.5064 27.0745C18.6536 27.0745 20.3982 28.8191 20.3982 30.9662Z" fill="#3464E0"/>
<path d="M58.6447 51.0961H55.0214C53.9478 51.0961 53.1426 51.9013 53.1426 52.9748C53.1426 54.0484 53.9478 54.8536 55.0214 54.8536H58.6447C59.7183 54.8536 60.5235 54.0484 60.5235 52.9748C60.5235 52.0355 59.5841 51.0961 58.6447 51.0961Z" fill="#3464E0"/>
<path d="M47.6404 51.0961H44.0171C42.9435 51.0961 42.1383 51.9013 42.1383 52.9748C42.1383 54.0484 42.9435 54.8536 44.0171 54.8536H47.6404C48.714 54.8536 49.5192 54.0484 49.5192 52.9748C49.5192 52.0355 48.714 51.0961 47.6404 51.0961Z" fill="#3464E0"/>
<path d="M16.5064 47.4727C13.4198 47.4727 11.0043 49.8883 11.0043 52.9749C11.0043 56.0614 13.4198 58.477 16.5064 58.477C19.593 58.477 22.0085 56.0614 22.0085 52.9749C22.0085 50.0225 19.4588 47.4727 16.5064 47.4727ZM16.5064 56.8666C14.3592 56.8666 12.6147 55.122 12.6147 52.9749C12.6147 50.8277 14.3592 49.0831 16.5064 49.0831C18.6536 49.0831 20.3982 50.8277 20.3982 52.9749C20.264 55.122 18.6536 56.8666 16.5064 56.8666Z" fill="#3464E0"/>
<path d="M55.0214 76.8621H58.6447C59.7183 76.8621 60.5235 76.0569 60.5235 74.9833C60.5235 73.9097 59.7183 73.1046 58.6447 73.1046H55.0214C53.9478 73.1046 53.1426 73.9097 53.1426 74.9833C53.1426 75.9227 53.9478 76.8621 55.0214 76.8621Z" fill="#3464E0"/>
<path d="M44.0171 76.8621H47.6404C48.714 76.8621 49.5192 76.0569 49.5192 74.9833C49.5192 73.9097 48.714 73.1046 47.6404 73.1046H44.0171C42.9435 73.1046 42.1383 73.9097 42.1383 74.9833C42.1383 75.9227 42.9435 76.8621 44.0171 76.8621Z" fill="#3464E0"/>
<path d="M16.5064 69.4813C13.4198 69.4813 11.0043 71.8968 11.0043 74.9834C11.0043 78.07 13.4198 80.4855 16.5064 80.4855C19.593 80.4855 22.0085 78.07 22.0085 74.9834C22.0085 71.8968 19.4588 69.4813 16.5064 69.4813ZM16.5064 78.8752C14.3592 78.8752 12.6147 77.1306 12.6147 74.9834C12.6147 72.8362 14.3592 71.0916 16.5064 71.0916C18.6536 71.0916 20.3982 72.8362 20.3982 74.9834C20.264 77.1306 18.6536 78.8752 16.5064 78.8752Z" fill="#3464E0"/>
<path d="M75.1511 102.494H56.7659C56.7659 100.481 55.1556 98.8707 53.1426 98.8707H42.1383V87.8664H64.1469C69.2464 87.8664 73.2724 83.7063 73.2724 78.7409V71.36C73.2724 68.4077 71.9304 65.7237 69.5148 63.9791C71.7962 62.2345 73.2724 59.5506 73.2724 56.5982V49.2173C73.2724 46.2649 71.9304 43.5809 69.5148 41.8364C71.7962 40.0918 73.2724 37.4078 73.2724 34.4554V27.0745C73.2724 21.975 69.1122 17.949 64.1469 17.949H31.134C30.0605 17.949 29.2553 18.7542 29.2553 19.8278C29.2553 20.9014 30.0605 21.7066 31.134 21.7066H64.1469C67.2334 21.7066 69.649 24.1222 69.649 27.2087V34.5896C69.649 37.6762 67.2334 40.0918 64.1469 40.0918H9.1255C6.03893 40.0918 3.62336 37.6762 3.62336 34.5896V27.3429C3.62336 24.2564 6.03893 21.8408 9.1255 21.8408H16.5064C17.58 21.8408 18.3852 21.0356 18.3852 19.962C18.3852 18.8884 17.58 18.0832 16.5064 18.0832H9.1255C4.02595 18.0832 0 22.1092 0 27.2087V34.5896C0 37.542 1.34198 40.226 3.75756 41.9706C1.34198 43.7151 0 46.3991 0 49.3515V56.7324C0 59.6848 1.34198 62.3687 3.75756 64.1133C1.34198 65.7237 0 68.4077 0 71.36V78.7409C0 83.8405 4.16015 87.8664 9.1255 87.8664H31.134V98.8707H20.1298C18.1168 98.8707 16.5064 100.481 16.5064 102.494H1.87878C0.805191 102.494 0 103.299 0 104.373C0 105.446 0.805191 106.252 1.87878 106.252H16.5064C16.5064 108.265 18.1168 109.875 20.1298 109.875H53.1426C55.1556 109.875 56.7659 108.265 56.7659 106.252H75.1511C76.2247 106.252 77.0299 105.446 77.0299 104.373C77.0299 103.299 76.0905 102.494 75.1511 102.494ZM3.62336 56.5982V49.2173C3.62336 46.1307 6.03893 43.7151 9.1255 43.7151H64.1469C67.2334 43.7151 69.649 46.1307 69.649 49.2173V56.5982C69.649 59.6848 67.2334 62.1003 64.1469 62.1003H9.1255C6.17313 62.1003 3.62336 59.6848 3.62336 56.5982ZM3.62336 78.6067V71.2258C3.62336 68.1393 6.03893 65.7237 9.1255 65.7237H64.1469C67.2334 65.7237 69.649 68.1393 69.649 71.2258V78.6067C69.649 81.6933 67.2334 84.1089 64.1469 84.1089H9.1255C6.17313 84.1089 3.62336 81.6933 3.62336 78.6067ZM34.7574 87.7322H38.3808V98.7365H34.7574V87.7322ZM20.1298 106.117V102.494H53.1426V106.117H20.1298Z" fill="#3464E0"/>
<path d="M90.3156 12.1785C90.9866 12.8495 92.1944 12.8495 92.8654 12.1785C93.5364 11.5075 93.5364 10.2997 92.8654 9.62874L83.7399 0.503244C83.6057 0.369046 83.3373 0.234847 83.2031 0.100649C82.8005 -0.0335496 82.2637 -0.0335496 81.8611 0.100649C81.5927 0.234847 81.4585 0.369046 81.3243 0.503244L72.1988 9.62874C71.5278 10.2997 71.5278 11.5075 72.1988 12.1785C72.8698 12.8495 74.0776 12.8495 74.7486 12.1785L80.7875 6.13958V34.7239C80.7875 35.7974 81.5927 36.6026 82.6663 36.6026C83.7399 36.6026 84.5451 35.7974 84.5451 34.7239V6.13958L90.3156 12.1785Z" fill="#3464E0"/>
<path d="M106.822 38.884L100.783 44.923V16.3387C100.783 15.2651 99.9779 14.4599 98.9043 14.4599C97.8307 14.4599 97.0255 15.2651 97.0255 16.3387V44.923L90.9866 38.884C90.3156 38.213 89.1078 38.213 88.4368 38.884C87.7658 39.555 87.7658 40.7628 88.4368 41.4338L97.5623 50.5593C97.9649 50.9619 98.3675 51.0961 98.9043 51.0961C99.4411 51.0961 99.8437 50.9619 100.246 50.5593L109.372 41.4338C110.043 40.7628 110.043 39.555 109.372 38.884C108.701 38.213 107.493 38.213 106.822 38.884Z" fill="#3464E0"/>
</svg>
