<svg width="97" height="96" viewBox="0 0 97 96" fill="none" xmlns="http://www.w3.org/2000/svg">
<path d="M70.2588 52.6555L63.8374 59.0769L57.416 52.6555L72.8273 37.2441C74.5932 37.7258 76.1986 37.8863 77.9644 37.8863C82.941 37.8863 87.7571 35.9599 91.2889 32.4281C96.5865 27.1304 98.1919 19.1037 95.4628 12.2007L94.018 8.02676L83.9043 18.1405L79.8909 17.0167L78.7671 13.0033L88.8808 2.88963L84.8675 1.28428C77.9644 -1.28428 69.9377 0.32107 64.64 5.61873C59.824 10.4348 57.8976 17.6589 59.824 24.0803L44.4126 39.3311L23.7036 18.9431L29.1618 13.4849L12.3056 0L0.907593 11.398L14.232 28.4147L19.6902 22.9565L40.3992 43.6656L26.7537 57.311C19.6902 55.0635 11.9845 56.99 6.68686 62.2876C2.99455 65.8194 0.907593 70.796 0.907593 76.0937C0.907593 81.3913 2.99455 86.3679 6.68686 90.2207C10.5397 94.0736 15.6768 96 20.8139 96C25.9511 96 31.0882 94.0736 34.941 90.2207C40.2387 84.9231 42.1651 77.2174 39.9176 70.1538L53.5631 56.5084L59.9845 62.9298L53.5631 69.3512L76.6802 92.4682C78.9277 94.7157 81.8173 96 85.028 96C88.2387 96 91.1283 94.7157 93.3758 92.4682C98.0313 87.8127 98.0313 80.2676 93.3758 75.7726L70.2588 52.6555Z" fill="#3464E0"/>
<path d="M33.3357 68.709L34.1384 70.4749C36.3859 75.9331 35.2621 82.0334 31.0882 86.2073C28.3591 88.9364 24.6668 90.3812 20.9745 90.3812C17.2822 90.3812 13.5899 88.9364 10.8608 86.2073C8.13171 83.4782 6.68689 79.9465 6.68689 76.0936C6.68689 72.2408 8.13171 68.709 10.8608 65.9799C13.5899 63.2508 17.2822 61.806 20.9745 61.806C22.9009 61.806 24.6668 62.1271 26.5932 62.9297L28.3591 63.7324L44.5732 47.5184L49.7103 52.6555L33.3357 68.709Z" fill="#F7F9FE"/>
<path d="M20.8138 66.7825C18.4058 66.7825 15.9978 67.7457 14.2319 69.5116C12.466 71.2775 11.5028 73.525 11.5028 76.0936C11.5028 78.5016 12.466 80.9096 14.2319 82.6755C15.9978 84.4414 18.2453 85.4046 20.8138 85.4046C23.3824 85.4046 25.6299 84.4414 27.3958 82.6755C31.0881 78.9832 31.0881 73.2039 27.3958 69.5116C25.7904 67.7457 23.3824 66.7825 20.8138 66.7825ZM24.6667 79.7859C23.7035 80.7491 22.4192 81.3912 20.9744 81.3912C19.5296 81.3912 18.2453 80.9096 17.2821 79.7859C16.3189 78.8227 15.6767 77.5384 15.6767 76.0936C15.6767 74.6488 16.1583 73.3645 17.2821 72.4013C18.2453 71.4381 19.5296 70.7959 20.9744 70.7959C22.4192 70.7959 23.7035 71.2775 24.6667 72.4013C26.5931 74.4882 26.5931 77.6989 24.6667 79.7859Z" fill="#D6E0F9"/>
<path d="M66.2457 25.525L65.6035 23.7591C63.6771 18.7825 64.8009 13.1638 68.6537 9.47151C71.2223 6.90295 74.754 5.45813 78.2858 5.61867L72.6671 11.2374L75.3962 21.5116L85.6704 24.2407L91.2891 18.622C91.2891 22.1538 90.0049 25.6856 87.4363 28.2541C83.744 31.9464 78.1253 33.2307 73.1487 31.1438L71.3828 30.5016L53.5634 48.6421L48.4263 43.505L66.2457 25.525Z" fill="#F7F9FE"/>
<path d="M70.2586 60.5217L61.4292 69.3512L66.5663 74.4883L75.3958 65.6589L70.2586 60.5217Z" fill="#D6E0F9"/>
<path d="M89.5228 88.6154C88.3991 89.7392 86.7937 90.3813 85.1884 90.3813C83.583 90.3813 81.9777 89.7392 80.8539 88.6154L70.7402 78.5017L79.5697 69.6723L89.6834 79.786C91.9309 82.194 91.9309 86.0469 89.5228 88.6154Z" fill="#F7F9FE"/>
<path d="M8.45264 11.719L12.7871 7.38458L20.8138 13.806L14.874 19.7458L8.45264 11.719Z" fill="#F7F9FE"/>
</svg>
