<svg width="110" height="110" viewBox="0 0 110 110" fill="none" xmlns="http://www.w3.org/2000/svg">
<path d="M15.0428 82.0635C22.1613 82.0635 27.9366 80.1832 27.9366 77.7656C27.9366 75.348 22.1613 73.4677 15.0428 73.4677C7.92438 73.4677 2.14905 75.348 2.14905 77.7656C2.14905 80.1832 7.92438 82.0635 15.0428 82.0635Z" fill="#D6E0F9"/>
<path fill-rule="evenodd" clip-rule="evenodd" d="M27.9366 77.7656C27.9366 80.1832 22.1613 82.0635 15.0428 82.0635C7.92438 82.0635 2.14905 80.1832 2.14905 77.7656V86.3615C2.14905 88.7791 7.92438 90.6594 15.0428 90.6594C22.1613 90.6594 27.9366 88.7791 27.9366 86.3615V77.7656Z" fill="#F7F9FE"/>
<path fill-rule="evenodd" clip-rule="evenodd" d="M27.9366 86.3614C27.9366 88.779 22.1613 90.6593 15.0428 90.6593C7.92438 90.6593 2.14905 88.779 2.14905 86.3614V94.9572C2.14905 97.3748 7.92438 99.2552 15.0428 99.2552C22.1613 99.2552 27.9366 97.3748 27.9366 94.9572V86.3614Z" fill="#D6E0F9"/>
<path fill-rule="evenodd" clip-rule="evenodd" d="M27.9366 94.9573C27.9366 97.3749 22.1613 99.2552 15.0428 99.2552C7.92438 99.2552 2.14905 97.3749 2.14905 94.9573V103.553C2.14905 105.971 7.92438 107.851 15.0428 107.851C22.1613 107.851 27.9366 105.971 27.9366 103.553V94.9573Z" fill="#F7F9FE"/>
<path fill-rule="evenodd" clip-rule="evenodd" d="M27.1307 47.2771H87.3017C92.0025 47.2771 95.8975 43.3821 95.8975 38.6813C95.8975 33.9804 92.0025 30.0854 87.3017 30.0854H84.4811C84.8841 28.7423 85.1527 27.2649 85.1527 25.7875C85.0184 17.4603 78.3029 10.7448 69.9756 10.7448C67.5581 10.7448 65.4091 11.282 63.3944 12.2222C60.171 6.31254 53.7241 2.14893 46.3371 2.14893C35.7266 2.14893 27.1307 10.7448 27.1307 21.4896C20.0123 21.4896 14.2369 27.2649 14.2369 34.3834C14.2369 41.5018 20.0123 47.2771 27.1307 47.2771Z" fill="#F7F9FE"/>
<path d="M54.933 82.0635C62.0514 82.0635 67.8267 80.1832 67.8267 77.7656C67.8267 75.348 62.0514 73.4677 54.933 73.4677C47.8145 73.4677 42.0392 75.348 42.0392 77.7656C42.0392 80.1832 47.8145 82.0635 54.933 82.0635Z" fill="#D6E0F9"/>
<path fill-rule="evenodd" clip-rule="evenodd" d="M67.8267 77.7656C67.8267 80.1832 62.0514 82.0635 54.933 82.0635C47.8145 82.0635 42.0392 80.1832 42.0392 77.7656V86.3615C42.0392 88.7791 47.8145 90.6594 54.933 90.6594C62.0514 90.6594 67.8267 88.7791 67.8267 86.3615V77.7656Z" fill="#F7F9FE"/>
<path fill-rule="evenodd" clip-rule="evenodd" d="M67.8267 86.3614C67.8267 88.779 62.0514 90.6593 54.933 90.6593C47.8145 90.6593 42.0392 88.779 42.0392 86.3614V94.9572C42.0392 97.3748 47.8145 99.2552 54.933 99.2552C62.0514 99.2552 67.8267 97.3748 67.8267 94.9572V86.3614Z" fill="#D6E0F9"/>
<path fill-rule="evenodd" clip-rule="evenodd" d="M67.8267 94.9573C67.8267 97.3749 62.0514 99.2552 54.933 99.2552C47.8145 99.2552 42.0392 97.3749 42.0392 94.9573V103.553C42.0392 105.971 47.8145 107.851 54.933 107.851C62.0514 107.851 67.8267 105.971 67.8267 103.553V94.9573Z" fill="#F7F9FE"/>
<path d="M94.9572 82.0635C102.076 82.0635 107.851 80.1832 107.851 77.7656C107.851 75.348 102.076 73.4677 94.9572 73.4677C87.8388 73.4677 82.0635 75.348 82.0635 77.7656C82.0635 80.1832 87.8388 82.0635 94.9572 82.0635Z" fill="#D6E0F9"/>
<path fill-rule="evenodd" clip-rule="evenodd" d="M107.851 77.7656C107.851 80.1832 102.076 82.0635 94.9572 82.0635C87.8388 82.0635 82.0635 80.1832 82.0635 77.7656V86.3615C82.0635 88.7791 87.8388 90.6594 94.9572 90.6594C102.076 90.6594 107.851 88.7791 107.851 86.3615V77.7656Z" fill="#F7F9FE"/>
<path fill-rule="evenodd" clip-rule="evenodd" d="M107.851 86.3614C107.851 88.779 102.076 90.6593 94.9572 90.6593C87.8388 90.6593 82.0635 88.779 82.0635 86.3614V94.9572C82.0635 97.3748 87.8388 99.2552 94.9572 99.2552C102.076 99.2552 107.851 97.3748 107.851 94.9572V86.3614Z" fill="#D6E0F9"/>
<path fill-rule="evenodd" clip-rule="evenodd" d="M107.851 94.9573C107.851 97.3749 102.076 99.2552 94.9572 99.2552C87.8388 99.2552 82.0635 97.3749 82.0635 94.9573V103.553C82.0635 105.971 87.8388 107.851 94.9572 107.851C102.076 107.851 107.851 105.971 107.851 103.553V94.9573Z" fill="#F7F9FE"/>
<path d="M54.9328 18.2661C49.829 18.2661 44.8596 20.2808 41.2332 23.9071C40.4273 24.713 40.4273 26.0561 41.2332 26.9963C42.039 27.8021 43.3821 27.8021 44.3223 26.9963C47.1428 24.1758 50.9035 22.564 54.9328 22.564C58.9621 22.564 62.7228 24.1758 65.5433 26.9963C65.9462 27.3992 66.4835 27.6678 67.0207 27.6678C67.558 27.6678 68.0952 27.3992 68.4981 26.9963C69.304 26.1904 69.304 24.8473 68.4981 23.9071C65.0061 20.2808 60.1709 18.2661 54.9328 18.2661Z" fill="#3464E0"/>
<path d="M54.9328 26.8621C52.1123 26.8621 49.4261 27.9365 47.2771 29.9512C46.4713 30.7571 46.4713 32.1002 47.2771 33.0403C47.6801 33.4433 48.2173 33.7119 48.7545 33.7119C49.2918 33.7119 49.829 33.4433 50.2319 33.0403C51.4407 31.8315 53.0525 31.16 54.7985 31.16C56.5445 31.16 58.1562 31.8315 59.365 33.0403C60.1709 33.8462 61.514 33.8462 62.4542 33.0403C63.26 32.2345 63.26 30.8914 62.4542 29.9512C60.5738 27.9365 57.8876 26.8621 54.9328 26.8621Z" fill="#3464E0"/>
<path d="M54.933 35.4579C53.7242 35.4579 52.7841 36.3981 52.7841 37.6068C52.7841 38.8156 53.7242 39.7558 54.933 39.7558C56.1418 39.7558 57.082 38.8156 57.082 37.6068C57.082 36.3981 56.1418 35.4579 54.933 35.4579Z" fill="#3464E0"/>
<path d="M57.0817 71.3187V66.4836C57.0817 65.2748 56.1415 64.3346 54.9327 64.3346C53.724 64.3346 52.7838 65.2748 52.7838 66.4836V71.3187C46.2026 71.7216 40.1586 73.602 39.89 77.497C39.89 77.497 39.89 77.6313 39.89 77.7656V103.553C39.89 107.985 47.4114 110 54.9327 110C62.4541 110 69.9755 107.985 69.9755 103.553V77.7656C69.9755 77.6313 69.9755 77.6313 69.9755 77.497C69.8412 73.602 63.7972 71.7216 57.0817 71.3187ZM44.1879 91.0623C47.0085 92.2711 51.0378 92.8083 54.9327 92.8083C58.8277 92.8083 62.857 92.2711 65.6776 91.0623V94.823C65.006 95.6289 61.3796 97.1063 54.9327 97.1063C48.4859 97.1063 44.8595 95.4945 44.1879 94.823V91.0623ZM65.6776 86.0928C65.006 86.8987 61.3796 88.3761 54.9327 88.3761C48.4859 88.3761 44.8595 86.7644 44.1879 86.0928V82.4665C47.0085 83.6753 51.0378 84.2125 54.9327 84.2125C58.8277 84.2125 62.857 83.6753 65.6776 82.4665V86.0928ZM54.9327 75.6166C60.8424 75.6166 64.4688 76.9597 65.5432 77.7656C64.4688 78.5715 60.9767 79.9146 54.9327 79.9146C49.0231 79.9146 45.3967 78.5715 44.3222 77.7656C45.531 76.9597 49.0231 75.6166 54.9327 75.6166ZM54.9327 105.702C48.4859 105.702 44.8595 104.09 44.1879 103.419V99.6582C47.0085 100.867 51.0378 101.404 54.9327 101.404C58.8277 101.404 62.857 100.867 65.6776 99.6582V103.419C65.1403 104.09 61.3796 105.702 54.9327 105.702Z" fill="#3464E0"/>
<path d="M110 77.4969C109.731 73.602 103.687 71.7216 97.1062 71.3187V60.3052C97.1062 59.0965 96.166 58.1563 94.9573 58.1563H70.6471V49.4261H87.1673C93.0769 49.4261 97.9121 44.591 97.9121 38.6813C97.9121 32.7717 93.0769 27.9365 87.1673 27.9365H87.033C87.1673 27.265 87.1673 26.4591 87.1673 25.7875C87.1673 16.2515 79.5116 8.59585 69.9756 8.59585C67.9609 8.59585 66.0806 8.86447 64.2002 9.53602C60.3052 3.62637 53.5897 0 46.337 0C35.1893 0 25.9219 8.59585 24.9817 19.475C17.7289 20.4151 12.0879 26.7277 12.0879 34.3834C12.0879 42.7106 18.8034 49.4261 27.1306 49.4261H39.3529V58.1563H15.0427C13.8339 58.1563 12.8938 59.0965 12.8938 60.3052V71.3187C6.31258 71.7216 0.26862 73.602 0 77.4969C0 77.4969 0 77.6313 0 77.7656V103.553C0 107.985 7.52137 110 15.0427 110C22.5641 110 30.0855 107.985 30.0855 103.553V77.7656C30.0855 77.6313 30.0855 77.6313 30.0855 77.4969C29.8168 73.602 23.7729 71.7216 17.1917 71.3187V62.4542H41.5018C42.7106 62.4542 43.6508 61.514 43.6508 60.3052V49.4261H66.3492V60.3052C66.3492 61.514 67.2894 62.4542 68.4982 62.4542H92.8083V71.3187C86.2271 71.7216 80.1831 73.602 79.9145 77.4969C79.9145 77.4969 79.9145 77.6313 79.9145 77.7656V103.553C79.9145 107.985 87.4359 110 94.9573 110C102.479 110 110 107.985 110 103.553V77.7656C110 77.6313 110 77.6313 110 77.4969ZM4.29792 91.0623C7.11844 92.2711 11.1477 92.8083 15.0427 92.8083C18.9377 92.8083 22.967 92.2711 25.7875 91.0623V94.8229C25.116 95.6288 21.4896 97.1062 15.0427 97.1062C8.59585 97.1062 4.96947 95.4945 4.29792 94.8229V91.0623ZM25.7875 86.0928C25.116 86.8987 21.4896 88.3761 15.0427 88.3761C8.59585 88.3761 4.96947 86.7643 4.29792 86.0928V82.4664C7.11844 83.6752 11.1477 84.2124 15.0427 84.2124C18.9377 84.2124 22.967 83.6752 25.7875 82.4664V86.0928ZM15.0427 105.702C8.59585 105.702 4.96947 104.09 4.29792 103.419V99.6581C7.11844 100.867 11.1477 101.404 15.0427 101.404C18.9377 101.404 22.967 100.867 25.7875 99.6581V103.419C25.116 104.09 21.4896 105.702 15.0427 105.702ZM15.0427 79.9145C9.13309 79.9145 5.50672 78.5714 4.43223 77.7656C5.50672 76.9597 8.99878 75.6166 15.0427 75.6166C20.9524 75.6166 24.5788 76.9597 25.6532 77.7656C24.5788 78.5714 20.9524 79.9145 15.0427 79.9145ZM27.1306 45.1282C21.221 45.1282 16.3858 40.293 16.3858 34.3834C16.3858 28.4737 21.221 23.6386 27.1306 23.6386C28.3394 23.6386 29.2796 22.6984 29.2796 21.4896C29.2796 11.9536 36.9353 4.29792 46.4713 4.29792C52.7839 4.29792 58.5592 7.78999 61.6483 13.2967C62.1856 14.3712 63.3944 14.7741 64.4689 14.2369C66.2149 13.2967 68.2295 12.8938 70.1099 12.8938C77.2283 12.8938 83.0037 18.6691 83.0037 25.7875C83.0037 26.9963 82.8693 28.3394 82.4664 29.4139C82.3321 30.0855 82.4664 30.757 82.8693 31.2943C83.2723 31.8315 83.9438 32.1001 84.6154 32.1001H87.4359C90.928 32.1001 93.8828 35.0549 93.8828 38.547C93.8828 42.0391 90.928 44.9939 87.4359 44.9939L27.1306 45.1282ZM84.2124 91.0623C87.033 92.2711 91.0623 92.8083 94.9573 92.8083C98.8522 92.8083 102.882 92.2711 105.702 91.0623V94.8229C105.031 95.6288 101.404 97.1062 94.9573 97.1062C88.5104 97.1062 84.884 95.4945 84.2124 94.8229V91.0623ZM105.702 86.0928C105.031 86.8987 101.404 88.3761 94.9573 88.3761C88.5104 88.3761 84.884 86.7643 84.2124 86.0928V82.4664C87.033 83.6752 91.0623 84.2124 94.9573 84.2124C98.8522 84.2124 102.882 83.6752 105.702 82.4664V86.0928ZM94.9573 75.6166C100.867 75.6166 104.493 76.9597 105.568 77.7656C104.493 78.5714 101.001 79.9145 94.9573 79.9145C89.0476 79.9145 85.4212 78.5714 84.3468 77.7656C85.4212 76.9597 89.0476 75.6166 94.9573 75.6166ZM94.9573 105.702C88.5104 105.702 84.884 104.09 84.2124 103.419V99.6581C87.033 100.867 91.0623 101.404 94.9573 101.404C98.8522 101.404 102.882 100.867 105.702 99.6581V103.419C105.031 104.09 101.404 105.702 94.9573 105.702Z" fill="#3464E0"/>
<path d="M54.933 59.0964C56.1418 59.0964 57.082 58.1563 57.082 56.9475C57.082 55.7387 56.1418 54.7985 54.933 54.7985C53.7242 54.7985 52.7841 55.7387 52.7841 56.9475C52.7841 58.1563 53.8585 59.0964 54.933 59.0964Z" fill="#3464E0"/>
</svg>
