<svg width="540" height="406" viewBox="0 0 540 406" fill="none" xmlns="http://www.w3.org/2000/svg">
<path d="M465.386 359.134H63.8891C56.945 359.134 51.2634 353.447 51.2634 346.497V264.991C51.2634 258.041 56.945 252.355 63.8891 252.355H465.386C472.33 252.355 478.012 258.041 478.012 264.991V346.497C478.012 353.573 472.456 359.134 465.386 359.134Z" fill="#3A4368"/>
<path d="M107.322 327.669H107.069C94.4434 327.669 84.0903 317.433 84.0903 304.67V304.417C84.0903 291.781 94.3171 281.419 107.069 281.419H107.322C119.947 281.419 130.3 291.655 130.3 304.417V304.67C130.3 317.307 120.074 327.669 107.322 327.669Z" fill="#C3C3F7"/>
<path d="M107.448 318.191H107.195C99.7462 318.191 93.8121 312.126 93.8121 304.797V304.417C93.8121 302.901 94.9484 301.764 96.4635 301.764C97.9786 301.764 99.1149 302.901 99.1149 304.417V304.67C99.1149 309.093 102.776 312.758 107.195 312.758H107.448C111.867 312.758 115.528 309.093 115.528 304.67V304.417C115.528 302.901 116.665 301.764 118.18 301.764C119.695 301.764 120.831 302.901 120.831 304.417V304.67C120.831 312.126 114.771 318.191 107.448 318.191Z" fill="#3A4368"/>
<path d="M107.195 305.302C105.68 305.302 104.544 304.291 104.544 303.027V291.655C104.544 290.391 105.68 289.38 107.195 289.38C108.71 289.38 109.847 290.391 109.847 291.655V303.027C109.847 304.291 108.71 305.302 107.195 305.302Z" fill="#3A4368"/>
<path d="M107.322 331.207H107.069C92.4233 331.207 80.5552 319.328 80.5552 304.67V304.417C80.5552 289.759 92.4233 277.881 107.069 277.881H107.322C121.967 277.881 133.836 289.759 133.836 304.417V304.67C133.836 319.328 121.967 331.207 107.322 331.207ZM107.069 285.084C96.3373 285.084 87.7518 293.803 87.7518 304.417V304.67C87.7518 315.411 96.4635 324.004 107.069 324.004H107.322C118.053 324.004 126.639 315.285 126.639 304.67V304.417C126.639 293.676 117.927 285.084 107.322 285.084H107.069Z" fill="#5D5199"/>
<path d="M338.371 315.158H317.034C313.12 315.158 309.964 311.999 309.964 308.082V301.005C309.964 297.088 313.12 293.929 317.034 293.929H338.371C342.285 293.929 345.442 297.088 345.442 301.005V308.082C345.568 311.999 342.412 315.158 338.371 315.158Z" fill="#C3C3F7"/>
<path d="M388.243 315.158H366.906C362.992 315.158 359.835 311.999 359.835 308.082V301.005C359.835 297.088 362.992 293.929 366.906 293.929H388.243C392.157 293.929 395.314 297.088 395.314 301.005V308.082C395.314 311.999 392.157 315.158 388.243 315.158Z" fill="#C3C3F7"/>
<path d="M437.988 315.158H416.651C412.737 315.158 409.581 311.999 409.581 308.082V301.005C409.581 297.088 412.737 293.929 416.651 293.929H437.988C441.902 293.929 445.059 297.088 445.059 301.005V308.082C445.185 311.999 441.902 315.158 437.988 315.158Z" fill="#C3C3F7"/>
<path d="M236.987 109.436C240.396 112.216 245.068 111.963 248.351 109.057C252.896 105.013 258.577 102.612 264.89 102.612C271.077 102.612 276.885 104.887 281.43 108.93C284.713 111.837 289.384 111.963 292.793 109.183C297.591 105.139 297.843 97.1784 293.046 93.0083C285.218 86.1846 275.37 82.1409 264.764 82.1409C254.032 82.1409 244.31 86.311 236.609 93.2611C231.937 97.4311 232.19 105.392 236.987 109.436Z" fill="#3464E0"/>
<path d="M206.559 84.6682C210.347 87.7009 215.65 87.1955 218.806 83.4045C230.422 70.0098 246.583 61.6697 264.638 61.5433C282.692 61.417 298.979 69.6307 310.721 83.0254C314.004 86.8164 319.307 87.3218 323.095 84.1627C327.64 80.4981 328.145 73.1689 324.231 68.7462C309.08 51.5605 287.995 40.8194 264.638 40.9458C241.28 41.0722 220.321 51.9396 205.297 69.2516C201.509 73.8008 202.014 81.0036 206.559 84.6682Z" fill="#3464E0"/>
<path d="M176.384 60.2798C180.298 63.4389 185.727 62.8071 188.883 58.7634C207.317 35.3858 234.336 20.6011 264.511 20.4747C294.687 20.3483 321.832 34.8803 340.518 58.1315C343.674 62.0489 349.103 62.6807 353.017 59.5216C357.31 55.9833 358.068 49.0332 354.406 44.4841C332.311 17.0628 300.116 -0.249207 264.385 0.00352355C228.654 0.129889 196.585 17.6947 174.869 45.3687C171.334 49.7914 171.965 56.7415 176.384 60.2798Z" fill="#3464E0"/>
<path d="M264.89 148.988C271.305 148.988 276.506 143.783 276.506 137.363C276.506 130.942 271.305 125.737 264.89 125.737C258.475 125.737 253.275 130.942 253.275 137.363C253.275 143.783 258.475 148.988 264.89 148.988Z" fill="#3464E0"/>
<path d="M157.193 252.355H194.944L123.861 76.4545C121.336 70.0099 114.771 66.598 109.089 68.7462C103.408 70.7681 100.63 77.5918 102.777 84.1628L157.193 252.355Z" fill="#3E445B"/>
<path d="M372.083 252.355L426.626 84.1628C428.772 77.5918 425.994 70.7681 420.313 68.7462C414.631 66.7244 408.066 70.1362 405.541 76.4545L334.458 252.355H372.083Z" fill="#3E445B"/>
<path d="M453.139 379.352H76.1361C72.2221 379.352 69.0657 376.193 69.0657 372.276V359.26H460.336V372.276C460.336 376.193 457.053 379.352 453.139 379.352Z" fill="#3E445B"/>
<path d="M66.9193 179.948C64.8992 187.024 54.6724 205.347 50.7585 208.001C45.5819 211.413 29.4211 217.857 20.9618 221.143C19.4468 221.775 25.1283 227.966 25.1283 227.966C25.1283 227.966 46.9708 222.785 55.8087 217.478C58.3339 215.962 63.7629 210.907 70.7071 200.545C72.8534 197.386 77.6512 191.194 78.1562 186.898C78.535 181.717 72.4747 178.178 66.9193 179.948Z" fill="#4457BE"/>
<path d="M42.552 305.555L42.8045 313.768C42.8045 313.768 40.7844 315.285 36.6179 314.527L34.9766 305.807L42.552 305.555Z" fill="#FCE8EE"/>
<path d="M38.2593 313.01C38.2593 313.01 36.9967 311.367 35.8604 311.494C34.8504 311.494 28.79 317.307 25.8861 317.686C23.1085 318.191 23.2347 321.224 24.2448 321.603C25.5074 321.982 44.1934 321.603 44.1934 321.603C44.1934 321.603 44.9509 315.032 44.3196 313.137C43.6884 311.494 40.5319 313.516 38.2593 313.01Z" fill="#252A93"/>
<path d="M63.8892 235.927C63.8892 235.927 32.325 230.746 22.8558 236.686C15.6591 241.235 34.2189 307.703 34.2189 307.703C37.5016 308.714 42.0468 307.324 43.9407 305.555C43.9407 305.555 46.8446 297.72 44.1932 274.974C43.8144 271.942 44.1932 265.118 41.0368 252.86L65.0256 242.246L63.8892 235.927Z" fill="#172183"/>
<path d="M91.9184 170.976C91.9184 170.976 100.63 173.629 105.302 177.547C109.973 181.464 106.059 192.963 106.185 199.408C106.312 205.979 105.175 243.888 95.2011 248.69C87.6257 252.229 56.0614 246.795 58.3341 237.065C59.8491 230.62 62.753 218.742 64.7732 202.693C66.162 192.079 65.5307 184.244 66.7933 179.948C68.0558 175.525 82.7016 170.47 82.7016 170.47L91.9184 170.976Z" fill="#4457BE"/>
<path d="M70.581 153.285C71.8436 159.856 78.7877 164.278 85.9843 163.015C93.3072 161.751 97.4737 155.559 96.2111 148.988C94.9486 142.417 88.762 137.994 81.4391 139.132C74.2424 140.395 69.4447 146.714 70.581 153.285Z" fill="#848796"/>
<path d="M97.8526 151.642C97.095 150.884 96.2112 151.01 95.4537 151.515C95.3274 150.378 95.2012 149.367 95.0749 148.356C94.6962 145.576 92.4235 143.302 89.5196 142.796C85.3532 142.038 79.1666 141.912 73.99 145.829C72.0962 147.345 71.2124 149.62 71.5912 151.895C71.7174 152.905 71.9699 154.043 72.2224 155.18C71.7174 155.18 71.0861 155.433 70.7074 156.191C69.6973 158.213 72.0962 162.888 74.8738 162.636C76.5152 165.668 78.7878 168.322 81.9442 169.08L82.7018 172.998C82.7018 172.998 84.8481 175.651 87.3733 175.019C90.0247 174.388 92.171 171.228 92.171 171.228L91.4135 167.311C93.6861 165.289 94.6962 162.13 95.2012 159.476C95.2012 159.35 95.2012 159.35 95.2012 159.224C99.2414 160.108 99.7464 153.411 97.8526 151.642Z" fill="#FCE8EE"/>
<path d="M60.2278 305.555L60.4803 313.768C60.4803 313.768 58.4602 315.285 54.2937 314.527L52.6523 305.807L60.2278 305.555Z" fill="#FCE8EE"/>
<path d="M55.6827 313.01C55.6827 313.01 54.4201 311.367 53.2838 311.494C52.2737 311.494 46.2134 317.307 43.3095 317.686C40.5318 318.191 40.6581 321.224 41.6681 321.603C42.9307 321.982 61.6167 321.603 61.6167 321.603C61.6167 321.603 62.3743 315.032 61.743 313.137C61.1117 311.494 57.9553 313.516 55.6827 313.01Z" fill="#252A93"/>
<path opacity="0.15" d="M44.9506 284.831C44.9506 284.831 34.5975 257.157 34.7238 242.878C34.7238 237.065 35.4813 236.559 40.5316 236.18C45.4556 235.675 44.9506 284.831 44.9506 284.831Z" fill="black"/>
<path d="M101.892 236.686C101.892 236.686 47.2232 233.653 37.754 236.686C29.6735 239.213 51.7685 307.703 51.7685 307.703C55.0512 308.714 59.5964 307.324 61.4903 305.555C61.4903 305.555 63.1316 301.511 60.4802 278.765C60.1015 275.732 59.7227 266.381 56.5663 254.124L92.802 254.25C100.63 254.25 103.029 247.679 102.271 239.971L101.892 236.686Z" fill="#172183"/>
<path d="M49.2436 221.775C49.2436 221.775 41.0369 223.038 37.628 225.818C34.2191 228.472 29.5476 230.873 30.3051 232.263C30.9364 233.653 35.8604 230.746 35.8604 230.746C35.8604 230.746 36.9967 233.274 41.0369 234.411C44.9509 235.548 53.5364 229.104 53.5364 229.104L49.2436 221.775Z" fill="#FCE8EE"/>
<g opacity="0.15">
<path opacity="0.15" d="M103.786 177.168C99.2412 183.739 81.5652 206.358 77.6513 209.012C72.4747 212.423 71.2121 217.478 62.8792 220.764C61.3641 221.395 60.6066 227.714 60.6066 227.714C60.6066 227.714 73.8635 223.796 82.7015 218.489C85.2267 216.973 95.706 207.116 102.271 198.397C104.544 195.364 106.312 194.353 106.943 191.826C108.332 186.898 107.7 179.063 103.786 177.168Z" fill="black"/>
</g>
<g opacity="0.15">
<path opacity="0.15" d="M103.534 176.157C98.9885 182.728 80.555 204.462 76.5148 207.116C71.3383 210.528 71.5908 211.033 63.1316 214.319L61.9952 221.775C61.9952 221.775 72.7271 221.775 81.5651 216.467C84.0902 214.951 94.5695 205.094 101.135 196.375C103.408 193.342 107.069 189.299 107.7 184.876C108.332 179.821 107.448 177.926 103.534 176.157Z" fill="black"/>
</g>
<path d="M103.534 176.157C98.989 182.728 81.313 205.347 77.399 208.001C72.2225 211.413 57.8292 218.489 49.37 221.775C47.8549 222.406 52.7789 229.104 52.7789 229.104C52.7789 229.104 73.6113 222.785 82.4493 217.352C84.9744 215.835 95.4538 205.979 102.019 197.26C104.292 194.227 107.953 190.183 108.584 185.76C109.09 180.706 107.448 177.926 103.534 176.157Z" fill="#4457BE"/>
<path d="M62.1219 236.686H17.8058C17.427 236.686 17.0482 236.307 17.0482 235.927V231.378C17.0482 230.999 17.427 230.62 17.8058 230.62H62.1219C62.5007 230.62 62.8795 230.999 62.8795 231.378V235.927C62.8795 236.433 62.5007 236.686 62.1219 236.686Z" fill="#C3C3F7"/>
<path d="M13.7654 236.686C11.114 236.686 8.84135 235.043 7.83129 232.642L0.12962 213.687C-0.375408 212.424 1.13968 211.16 3.15979 211.16H23.6134C25.0022 211.16 26.2648 211.792 26.6436 212.676L36.8704 236.686H13.7654Z" fill="#5D5199"/>
<path d="M26.5173 212.676L36.6179 236.433H39.0168L28.9162 212.676C28.5375 211.792 27.2749 211.16 25.8861 211.16H23.4872C25.0023 211.16 26.1386 211.792 26.5173 212.676Z" fill="#C3C3F7"/>
<path d="M21.2142 222.659C21.7192 224.934 20.3304 226.829 18.0578 226.829C15.7852 226.829 13.5125 224.934 12.8812 222.659C12.3762 220.385 13.765 218.489 16.0377 218.489C18.4365 218.489 20.7092 220.258 21.2142 222.659Z" fill="#C3C3F7"/>
<path d="M95.4537 151.515C95.4537 151.515 84.3431 151.515 82.1967 147.219C82.1967 147.219 82.323 149.873 80.9341 151.515C80.9341 151.515 76.8939 147.725 75.5051 149.494C74.1163 151.263 74.2425 157.96 72.3487 155.306C67.8034 149.115 75.5051 143.554 75.5051 143.554L86.4894 141.28C86.3632 141.154 96.3375 140.395 95.4537 151.515Z" fill="#848796"/>
<path d="M162.37 396.411L161.612 396.917C160.349 397.675 158.708 397.296 157.95 396.159L147.976 383.017C146.84 381.5 147.092 379.352 148.607 378.215L149.113 377.836L162.37 396.411Z" fill="#473D9E"/>
<path d="M269.94 282.556C269.94 282.556 270.95 276.996 267.541 270.678C264.132 264.36 260.471 261.2 252.391 262.97C244.436 264.612 240.775 267.266 240.017 273.079C239.26 278.892 243.174 289.001 241.027 292.539C238.502 296.709 238.881 297.467 233.326 302.901C230.674 305.555 231.432 316.801 237.871 317.18C246.583 317.686 252.769 302.395 260.85 305.555C268.93 308.714 279.662 310.862 276.001 308.082C272.339 305.302 269.94 282.556 269.94 282.556Z" fill="#848796"/>
<path d="M210.979 355.595C242.164 296.204 243.3 298.984 243.3 298.984L240.775 324.762C240.775 324.762 223.857 353.194 217.923 359.513C215.65 359.513 210.979 358.628 210.979 355.595Z" fill="#2A3A84"/>
<path d="M169.187 381.627L163.632 385.544L167.293 390.598L173.354 386.681L169.187 381.627Z" fill="#FCE8EE"/>
<path d="M165.526 387.187C165.021 386.681 164.895 385.923 165.021 385.165C165.148 384.407 165.274 383.269 164.769 382.637C164.011 381.753 154.29 380.868 151.891 378.594C149.492 376.319 147.977 378.215 147.345 379.478C146.84 380.489 156.057 391.736 159.592 396.032C160.35 397.043 161.739 397.169 162.749 396.538C164.769 395.274 167.799 393.126 168.809 391.862C169.819 390.219 167.041 388.956 165.526 387.187Z" fill="#252A93"/>
<path d="M170.071 387.06C170.324 387.313 170.576 387.439 170.955 387.692C171.586 388.198 172.218 388.577 172.975 388.829C172.975 388.829 195.954 375.056 209.969 361.534C209.969 361.534 234.084 374.676 247.467 370.506C247.719 370.38 247.972 370.127 248.224 369.748C248.477 369.495 248.603 369.116 248.856 368.737C250.118 366.336 251.255 361.914 248.856 359.26C248.856 359.26 220.953 346.876 208.327 349.909C195.702 352.942 167.294 381.121 167.294 381.121C167.041 383.522 168.178 385.544 170.071 387.06Z" fill="#252A93"/>
<path opacity="0.15" d="M214.514 363.935C214.514 363.935 218.301 359.892 224.488 360.271C228.654 360.524 226.887 365.831 226.887 365.831C226.887 365.831 216.408 366.336 214.514 363.935Z" fill="black"/>
<path d="M182.318 393.631C182.571 393.884 182.823 394.137 183.076 394.263C183.581 394.642 184.086 395.021 184.717 395.4C184.717 395.4 208.959 384.154 224.362 372.149C224.362 372.149 251.002 385.923 264.89 384.28C275.748 383.017 274.486 366.21 271.582 361.661C271.582 361.661 236.861 358.754 223.983 360.397C211.105 362.166 180.424 387.945 180.424 387.945C179.919 390.093 180.677 391.988 182.318 393.631Z" fill="#252A93"/>
<path d="M241.659 341.948C242.164 350.288 242.417 351.046 240.523 357.112C240.144 358.123 240.776 359.134 241.786 359.513C255.043 364.188 260.472 365.325 271.203 365.073C272.214 365.073 273.097 364.314 273.097 363.304C273.476 356.227 273.855 348.14 273.729 340.937C273.224 321.477 271.835 308.082 271.456 304.291C271.33 303.533 270.951 302.901 270.193 302.648L264.891 300.626L258.704 298.225C258.451 298.099 258.199 298.099 257.946 298.099L247.215 298.605L244.816 298.731H244.058C243.174 298.731 242.417 299.363 242.291 300.247C241.533 303.659 239.513 312.378 236.735 319.96C233.831 327.921 237.114 329.438 239.008 331.333C239.134 331.46 239.134 331.46 239.26 331.586C239.513 331.839 239.765 332.218 239.892 332.47C239.892 332.597 240.018 332.723 240.018 332.85C240.144 333.102 240.27 333.481 240.27 333.86C241.154 337.02 241.659 341.948 241.659 341.948Z" fill="#4457BE"/>
<path d="M247.972 298.605C247.214 302.143 245.447 309.219 250.749 309.346C257.062 309.472 263.501 303.28 264.89 300.5L258.325 297.973L247.972 298.605Z" fill="#FCE8EE"/>
<path opacity="0.15" d="M273.223 327.669C273.223 327.669 267.668 343.085 264.259 345.612C260.85 348.266 248.224 355.848 243.048 358.123C237.997 360.397 260.85 334.619 260.85 334.619L272.213 322.361C272.213 322.361 272.971 323.878 273.223 327.669Z" fill="black"/>
<path opacity="0.15" d="M264.512 318.57C264.512 318.57 255.926 336.009 253.78 337.904C251.76 339.8 250.876 341.19 242.038 349.024C241.154 349.782 248.224 349.277 248.224 349.277C248.224 349.277 256.81 339.547 257.694 338.41C258.577 337.272 267.542 322.867 267.542 321.603C267.542 320.339 264.512 318.57 264.512 318.57Z" fill="black"/>
<path d="M233.705 355.09C242.669 349.403 254.79 338.031 254.79 338.031C254.79 338.031 259.714 331.712 270.824 303.027C270.824 303.027 277.263 309.977 273.097 325.52C269.057 340.684 262.491 345.992 262.491 345.992C262.491 345.992 245.825 357.996 236.988 360.903C235.599 358.628 234.967 357.491 233.705 355.09Z" fill="#2A3A84"/>
<path d="M204.54 358.249L240.523 361.914C240.775 361.914 241.154 361.661 241.154 361.408L241.533 357.996C241.533 357.743 241.28 357.364 241.028 357.364L205.045 353.7C204.792 353.7 204.413 353.953 204.413 354.205L204.035 357.617C204.035 357.996 204.287 358.249 204.54 358.249Z" fill="#C3C3F7"/>
<path d="M204.035 358.249L234.336 361.029L227.771 333.481L197.469 330.701L204.035 358.249Z" fill="#5D5199"/>
<path d="M205.928 358.375L236.23 361.282L229.665 333.734L227.771 333.481L234.336 361.029L205.928 358.375Z" fill="#C3C3F7"/>
<path d="M213.63 345.612C213.504 347.382 214.135 348.772 215.271 348.898C216.281 349.024 217.291 347.634 217.544 345.992C217.67 344.222 217.039 342.832 215.902 342.706C214.766 342.58 213.756 343.97 213.63 345.612Z" fill="#C3C3F7"/>
<path d="M243.932 281.924C243.932 281.924 241.785 279.776 240.649 281.798C239.386 283.946 241.911 289.506 245.194 287.737L243.932 281.924Z" fill="#FCE8EE"/>
<path d="M259.588 292.665L260.219 299.742C260.219 299.742 257.189 302.648 254.538 303.027C252.012 303.533 250.75 300.5 250.75 300.5L250.119 293.929L259.588 292.665Z" fill="#FCE8EE"/>
<path d="M243.048 284.704C243.174 285.336 243.3 286.094 243.553 286.726C244.815 291.275 248.224 295.951 252.012 296.456C260.219 297.467 262.87 290.896 263.754 286.221C263.88 285.715 263.501 285.083 263.628 284.452C263.754 282.935 264.133 281.293 264.133 279.65C264.133 278.512 264.133 277.375 264.006 276.364C263.88 273.584 261.986 271.057 259.335 270.299C255.547 269.161 249.866 268.53 244.815 272.194C242.921 273.584 241.911 275.732 242.164 278.133C242.29 280.029 242.543 282.303 243.048 284.704Z" fill="#FCE8EE"/>
<path d="M249.739 277.249C246.709 279.018 243.805 281.924 242.922 283.946C242.922 284.073 242.795 284.073 242.669 284.073C242.164 281.672 241.911 279.271 241.785 277.502C241.659 275.101 242.669 272.826 244.563 271.562C249.866 267.898 255.8 268.53 259.84 269.541C262.618 270.299 264.638 272.826 264.764 275.732C264.764 276.743 264.89 277.881 264.89 279.018C264.385 279.397 263.123 279.65 263.123 280.534C263.249 282.809 263.249 284.325 262.744 284.199C262.239 284.073 262.491 279.776 258.072 277.502L254.79 275.48C254.79 275.48 253.275 274.722 252.643 273.837C252.643 273.584 252.012 275.859 249.739 277.249Z" fill="#848796"/>
<path d="M263.123 280.029C263.123 280.029 265.016 277.122 266.532 279.018C268.047 280.787 266.658 286.6 263.375 285.589L263.123 280.029Z" fill="#FCE8EE"/>
<g opacity="0.15">
<path opacity="0.15" d="M237.619 330.069C236.735 329.311 236.104 328.174 235.851 327.037C235.599 325.899 235.599 324.636 235.725 323.499C236.104 321.098 236.861 318.949 237.619 316.675L239.765 309.977C240.144 308.84 240.523 307.703 240.775 306.566C241.154 305.428 241.406 304.291 241.659 303.154C241.28 305.428 240.649 307.829 240.018 309.977C239.386 312.252 238.629 314.527 237.871 316.675C237.114 318.949 236.356 321.098 235.977 323.372C235.725 324.509 235.725 325.647 235.977 326.784C236.23 328.174 236.735 329.185 237.619 330.069Z" fill="black"/>
</g>
<path d="M173.859 404.12L173.101 404.625C171.839 405.383 170.197 405.004 169.44 403.867L159.465 390.725C158.329 389.208 158.582 387.06 160.097 385.923L160.602 385.544L173.859 404.12Z" fill="#473D9E"/>
<path d="M180.424 389.082L174.869 392.999L178.531 398.054L184.717 394.137L180.424 389.082Z" fill="#FCE8EE"/>
<path d="M176.763 394.642C176.258 394.137 176.132 393.379 176.258 392.747C176.384 391.988 176.51 390.725 176.005 390.219C175.248 389.335 165.905 388.577 163.506 386.302C161.107 384.027 159.592 385.923 158.961 387.187C158.456 388.198 167.42 399.444 170.829 403.74C171.586 404.625 172.849 404.878 173.859 404.246C175.879 402.982 179.036 400.834 179.919 399.444C181.182 397.549 178.278 396.411 176.763 394.642Z" fill="#252A93"/>
<path d="M503.137 362.419C503.011 365.957 503.264 369.622 505.41 372.402C505.915 373.034 506.42 373.539 506.925 374.045C508.44 375.561 510.081 376.951 511.723 378.341C509.955 377.836 508.061 378.215 506.294 378.215C505.031 378.215 503.769 377.962 502.632 377.709C500.612 377.33 498.718 376.951 496.698 376.572C495.562 376.319 494.678 376.066 494.173 374.929C495.183 373.286 495.688 371.517 495.941 369.622C496.319 367.474 495.941 365.199 495.814 362.924C495.688 361.029 495.941 359.007 496.446 357.112" fill="#FCE8EE"/>
<path d="M498.34 366.842C497.33 368.864 496.951 371.138 497.078 373.286V373.413C497.078 373.539 496.825 373.539 496.699 373.539C496.446 373.539 496.068 373.413 495.815 373.413C495.436 373.286 494.931 373.286 494.679 373.034C495.184 371.896 495.689 370.886 495.815 369.622C496.194 367.474 495.815 365.199 495.689 362.924C495.563 361.029 495.815 359.007 496.32 357.112L503.138 362.293C503.138 363.051 503.138 363.935 503.138 364.694C502.254 364.82 501.244 364.441 500.36 364.694C499.35 365.073 498.845 365.957 498.34 366.842Z" fill="#FCE8EE"/>
<path d="M492.784 380.237C492.784 380.237 492.531 382.385 495.057 382.764C497.203 383.017 512.859 383.901 517.404 384.027C518.162 384.027 518.793 383.396 518.667 382.764C518.54 381.879 518.414 380.868 517.657 379.984C516.268 378.341 509.197 381.5 508.945 381.5C508.692 381.5 502.001 382.132 500.486 381.753C498.971 381.374 492.784 380.237 492.784 380.237Z" fill="#473D9E"/>
<path d="M495.436 371.391C498.087 373.539 501.875 373.918 504.905 372.276C505.031 372.149 505.157 372.149 505.284 372.149C505.41 372.149 505.536 372.276 505.662 372.402C508.061 374.297 507.304 374.55 510.081 376.066C512.48 377.33 514.5 377.583 516.647 379.226C517.026 379.478 517.531 379.857 517.657 380.363C517.909 380.868 518.162 382.764 517.783 383.143C517.404 383.522 516.899 383.522 516.394 383.522C515.258 383.522 498.339 382.764 493.92 381.879C493.415 381.753 492.784 381.627 492.532 381.121C492.405 380.868 492.405 380.489 492.405 380.237C493.037 376.951 493.92 374.045 495.436 371.391Z" fill="#252A93"/>
<path d="M497.455 365.579C498.718 363.684 499.223 361.535 499.981 359.387C500.738 357.618 501.622 355.849 502.758 354.333L506.925 361.788C505.41 364.947 504.147 368.485 505.031 371.897C505.283 372.656 505.536 373.287 505.788 373.919C506.672 375.941 507.556 377.837 508.566 379.732C507.177 378.595 505.283 378.216 503.642 377.457C502.506 376.952 501.496 376.194 500.486 375.562C498.844 374.425 497.203 373.287 495.435 372.15C494.425 371.518 493.794 370.886 493.668 369.623C495.309 368.612 496.445 367.222 497.455 365.579Z" fill="#FCE8EE"/>
<g opacity="0.1">
<path opacity="0.1" d="M500.864 363.935C499.223 365.452 497.834 367.347 497.203 369.369C497.203 369.369 497.203 369.495 497.077 369.495C496.95 369.622 496.824 369.495 496.698 369.369C496.445 369.243 496.193 368.99 495.94 368.864C495.561 368.611 495.183 368.358 495.056 367.979C495.94 367.221 496.824 366.336 497.455 365.325C498.718 363.43 499.223 361.282 499.98 359.134C500.738 357.364 501.622 355.595 502.758 354.079L506.925 361.534C506.546 362.293 506.293 363.051 505.914 363.809C505.031 363.556 504.273 362.798 503.389 362.672C502.506 362.798 501.622 363.304 500.864 363.935Z" fill="black"/>
</g>
<path d="M490.511 373.918C490.511 373.918 489.375 375.561 491.269 376.825C492.784 377.962 505.031 385.038 508.187 386.934C508.692 387.187 509.323 387.313 509.829 387.06C510.839 386.681 512.354 385.797 511.975 384.533C511.596 382.637 502.632 381.5 502.506 381.374C502.253 381.374 496.824 379.099 495.814 378.215C494.804 377.33 490.511 373.918 490.511 373.918Z" fill="#473D9E"/>
<path d="M496.319 366.968C497.961 370.001 501.243 371.77 504.652 371.517C504.778 371.517 504.905 371.517 505.031 371.517C505.157 371.644 505.283 371.77 505.41 371.896C506.925 374.676 510.081 380.616 511.344 382.89C511.596 383.269 511.849 383.775 511.849 384.28C511.849 384.786 509.829 386.049 509.324 386.176C508.945 386.302 508.44 386.176 507.935 385.923C506.925 385.544 494.678 378.215 491.016 375.687C490.638 375.435 490.133 375.056 490.006 374.424C490.006 374.171 490.133 373.792 490.259 373.539C491.9 371.138 493.92 368.864 496.319 366.968Z" fill="#252A93"/>
<path d="M479.022 263.854L499.223 279.018C500.991 306.439 503.768 333.734 507.43 360.903C503.263 361.661 499.097 362.166 494.93 362.419C491.143 341.19 487.355 320.087 483.567 298.857C482.936 294.94 482.178 291.149 481.547 287.232C480.158 279.523 478.769 271.689 479.022 263.854Z" fill="#172183"/>
<g opacity="0.37">
<path opacity="0.37" d="M503.137 356.859C504.4 354.837 504.273 352.057 504.147 349.53C503.642 343.085 503.137 336.514 502.001 330.196C500.864 324.257 500.864 318.57 499.854 312.505C499.223 309.219 498.213 305.428 496.445 302.522C490.638 292.665 485.966 292.413 482.431 281.545C482.052 280.282 483.188 268.403 483.441 267.14L499.223 279.018C500.991 306.439 503.768 333.734 507.43 360.903C503.516 361.661 499.602 362.166 495.562 362.419C497.455 359.765 501.369 359.639 503.137 356.859Z" fill="#020933"/>
</g>
<path d="M512.101 318.823C503.39 308.84 495.057 298.478 486.976 287.99C482.178 281.798 477.381 274.974 477.507 267.14L498.339 267.392C501.875 270.299 504.526 274.216 507.051 278.133C515.258 290.77 522.959 303.659 530.409 316.801C530.914 317.812 531.545 318.823 531.671 319.96C531.924 321.603 531.166 323.246 530.535 324.636C525.99 334.998 520.939 345.233 515.51 355.09H515.637C513.364 359.386 510.965 363.683 508.566 367.853C506.167 366.589 503.768 365.199 501.496 363.683C499.854 362.798 498.339 361.914 496.824 360.776C502.506 350.162 508.061 339.547 513.49 328.806C514.248 327.163 515.131 325.52 514.879 323.751C514.753 321.856 513.364 320.213 512.101 318.823Z" fill="#172183"/>
<path d="M481.673 205.852C481.673 205.726 481.8 205.726 481.926 205.6C484.451 203.957 485.966 201.051 486.471 198.144C486.976 195.238 486.597 192.205 485.966 189.299L487.86 192.331C487.86 192.205 487.86 192.079 487.734 191.952C487.607 191.194 487.734 190.562 487.86 189.804C488.365 186.392 490.006 183.107 492.279 180.579C493.036 179.695 493.794 178.937 494.804 178.431C495.814 177.926 496.95 177.673 498.087 178.052L505.157 184.118C505.662 187.024 506.167 190.183 504.905 192.963C504.652 193.469 504.4 193.974 504.147 194.48C503.768 195.87 504.526 197.386 505.157 198.65C504.778 199.281 503.516 198.902 502.884 199.408C502.632 199.661 502.379 200.04 502.253 200.292C501.117 202.314 499.854 204.21 498.339 205.979C498.213 206.105 498.087 206.358 497.834 206.484C497.329 206.737 496.824 206.358 496.319 206.105C494.93 205.094 493.794 203.957 492.784 202.567C492.153 203.831 491.774 205.221 491.774 206.611C491.774 207.874 492.153 209.012 492.531 210.275C492.784 211.286 493.036 212.171 493.415 213.182C493.163 213.308 492.784 213.182 492.531 213.055C488.744 211.286 485.082 209.012 481.8 206.358C481.8 206.232 481.673 206.105 481.673 205.852Z" fill="#FCE8EE"/>
<path d="M482.81 188.54C482.936 188.035 483.189 182.349 484.451 180.074C485.209 178.684 486.597 177.547 487.986 176.915C491.395 175.272 495.562 175.904 498.592 176.662C498.592 176.662 507.556 179.695 513.995 176.536C514.374 176.283 514.879 176.662 514.753 177.168C514.248 178.558 513.238 180.706 513.238 181.211C513.49 183.359 512.985 185.634 511.47 187.277C510.081 188.92 507.809 189.804 505.662 189.551C504.4 189.299 503.263 188.793 502.001 188.414C500.738 188.161 499.223 188.161 498.339 189.046C497.961 189.425 497.708 190.057 497.329 190.562C496.698 191.447 495.688 191.826 494.552 191.952C493.542 192.079 493.415 192.079 492.405 191.7C492.279 190.436 491.9 189.172 490.89 188.54C490.385 188.161 489.628 188.035 488.996 188.414C488.113 188.92 487.986 189.93 488.113 190.815C488.239 191.447 488.618 192.205 488.744 192.837C489.123 194.732 488.239 197.007 486.345 197.639C485.082 196.375 483.694 194.985 482.936 193.469C482.431 191.952 482.178 190.057 482.81 188.54Z" fill="#848796"/>
<path d="M539.752 211.918C534.197 217.478 527.379 222.154 521.318 227.082C520.434 227.84 519.172 226.576 520.056 225.818C526.116 220.89 532.808 216.214 538.489 210.654C539.373 209.896 540.509 211.16 539.752 211.918Z" fill="#3A4368"/>
<path d="M520.939 228.598C521.444 227.966 522.454 227.208 522.581 226.45C522.959 225.186 522.707 223.796 523.212 222.659C523.464 222.154 523.843 221.775 524.222 221.395C525.358 220.132 526.495 218.868 527.631 217.731L527.757 217.604C528.01 217.478 528.388 217.731 528.388 218.11C528.388 218.489 528.136 218.742 528.01 218.994C527.126 220.258 526.495 221.648 526.242 223.165C529.02 221.648 531.797 220.005 533.944 217.604C534.954 216.467 535.838 215.077 537.353 214.698C536.09 217.984 533.691 220.637 531.419 223.165C530.661 224.049 529.903 224.934 529.02 225.692C526.116 228.851 523.212 232.01 519.803 234.537L515.763 231.757C517.152 231.631 520.182 229.609 520.939 228.598Z" fill="#FCE8EE"/>
<path d="M483.189 204.21C484.704 207.116 488.113 208.38 491.143 209.643C491.648 209.896 492.153 210.023 492.532 210.528C492.784 210.781 492.91 211.16 493.037 211.413C494.678 214.951 496.319 218.615 497.077 222.533C497.456 224.555 497.582 226.576 497.708 228.598C498.592 241.235 499.602 253.998 500.486 266.634C500.486 266.761 500.486 267.013 500.486 267.14C500.233 268.024 498.971 268.151 498.087 268.024C490.764 267.14 483.567 270.678 476.244 271.815C475.992 271.815 475.613 271.815 475.487 271.689C475.361 271.562 475.361 271.436 475.361 271.31C474.603 265.371 474.477 259.305 474.856 253.366C474.982 251.344 475.234 249.196 475.234 247.174C475.108 244.647 474.729 241.993 474.351 239.466C473.846 235.043 473.972 230.494 473.972 226.071C473.972 223.291 474.098 220.511 474.729 217.857C475.992 212.676 479.401 208.38 482.684 204.336" fill="#4457BE"/>
<path opacity="0.15" d="M480.284 212.171L502.001 250.08C501.117 252.734 498.592 254.882 495.814 255.388C493.036 255.893 491.774 253.492 489.88 251.344C488.996 250.333 488.365 248.943 487.734 247.679C483.567 238.581 479.274 230.241 478.391 220.384C478.138 217.478 478.138 214.193 480.284 212.171Z" fill="black"/>
<path d="M481.421 211.286L482.684 208.633C485.209 209.517 486.976 211.665 488.239 213.94C489.501 216.214 490.259 218.868 491.017 221.395C493.163 228.219 495.688 234.917 498.844 241.361C505.662 237.949 513.49 233.274 520.434 229.356C521.192 232.389 523.212 235.169 523.212 235.422C523.212 235.675 515.637 243.762 511.218 246.921C507.809 249.322 504.652 251.344 500.612 252.86C499.223 253.366 497.456 255.261 495.435 254.882C493.92 254.629 483.567 235.169 480.285 224.428C479.653 222.28 479.022 220.005 479.022 217.731C479.022 215.456 479.78 212.803 481.421 211.286Z" fill="#4457BE"/>
</svg>
