<svg width="158" height="158" viewBox="0 0 158 158" fill="none" xmlns="http://www.w3.org/2000/svg">
<g filter="url(#filter0_d)">
<path d="M79 149C117.66 149 149 117.66 149 79C149 40.3401 117.66 9 79 9C40.3401 9 9 40.3401 9 79C9 117.66 40.3401 149 79 149Z" fill="white"/>
<path d="M98.5699 11.7852L79 79.0002L26.914 32.183C15.7742 44.6024 9 61.011 9 79.0002C9 117.688 40.3118 149 79 149C117.688 149 149 117.688 149 79.0002C149 47.1615 127.699 20.2153 98.5699 11.7852Z" fill="#9AACFA"/>
<path d="M79 134.398C109.595 134.398 134.398 109.595 134.398 78.9999C134.398 48.4045 109.595 23.6021 79 23.6021C48.4046 23.6021 23.6021 48.4045 23.6021 78.9999C23.6021 109.595 48.4046 134.398 79 134.398Z" fill="#F7F9FE"/>
<path d="M84.7204 74.6341C84.2688 74.1825 83.7419 73.8062 83.215 73.5051L26.5376 31.8062L72.0753 85.3975C72.4516 85.9244 72.828 86.376 73.2796 86.8277C76.6667 89.989 81.9355 89.7631 85.0968 86.376C88.2581 83.0642 88.1075 77.7954 84.7204 74.6341ZM82.914 84.4191C80.8817 86.6018 77.4946 86.7524 75.3118 84.7201C73.129 82.6879 72.9785 79.3008 75.0107 77.118C77.043 74.9352 80.4301 74.7846 82.6129 76.8169C84.7957 78.8492 84.9462 82.2363 82.914 84.4191Z" fill="#3464E0"/>
<path d="M84.4194 23.5267C88.2438 23.5267 91.3441 20.4264 91.3441 16.602C91.3441 12.7776 88.2438 9.67725 84.4194 9.67725C80.5949 9.67725 77.4946 12.7776 77.4946 16.602C77.4946 20.4264 80.5949 23.5267 84.4194 23.5267Z" fill="#3464E0"/>
</g>
<defs>
<filter id="filter0_d" x="0" y="0" width="158" height="158" filterUnits="userSpaceOnUse" color-interpolation-filters="sRGB">
<feFlood flood-opacity="0" result="BackgroundImageFix"/>
<feColorMatrix in="SourceAlpha" type="matrix" values="0 0 0 0 0 0 0 0 0 0 0 0 0 0 0 0 0 0 127 0"/>
<feOffset/>
<feGaussianBlur stdDeviation="4.5"/>
<feColorMatrix type="matrix" values="0 0 0 0 0 0 0 0 0 0 0 0 0 0 0 0 0 0 0.07 0"/>
<feBlend mode="normal" in2="BackgroundImageFix" result="effect1_dropShadow"/>
<feBlend mode="normal" in="SourceGraphic" in2="effect1_dropShadow" result="shape"/>
</filter>
</defs>
</svg>
