<svg width="507" height="455" viewBox="0 0 507 455" fill="none" xmlns="http://www.w3.org/2000/svg">
<path d="M106.233 380.248H105.542C105.542 380.051 106.825 356.476 106.43 328.661C106.134 303.113 104.359 268.689 97.8485 249.849L98.4403 249.652C105.049 268.492 106.726 303.015 107.12 328.661C107.515 356.476 106.233 380.051 106.233 380.248Z" fill="#D6E0F9"/>
<path d="M115.603 380.248C115.505 378.769 107.712 228.346 97.9471 183.072L98.539 182.973C108.403 228.346 116.096 378.769 116.195 380.248H115.603Z" fill="#D6E0F9"/>
<path d="M111.954 385.278C111.855 383.897 105.246 251.328 110.474 224.499L111.066 224.598C105.937 251.328 112.545 383.897 112.545 385.18L111.954 385.278Z" fill="#D6E0F9"/>
<path d="M111.559 382.418H110.869C110.869 381.629 110.967 307.454 116.984 273.621L117.576 273.72C111.559 307.454 111.559 381.629 111.559 382.418Z" fill="#D6E0F9"/>
<path d="M163.64 244.522C163.64 244.522 157.031 199.346 140.46 220.751C129.018 235.546 121.522 256.359 118.069 267.9C116.491 272.93 115.603 278.158 115.307 283.386L114.518 296.011C150.422 202.207 163.64 244.522 163.64 244.522Z" fill="#D6E0F9"/>
<path d="M172.024 190.37C172.024 190.37 178.633 147.167 141.052 166.402C104.95 184.847 108.995 240.281 108.995 240.281C111.165 231.009 115.011 206.35 127.933 190.272C162.062 147.956 172.024 190.37 172.024 190.37Z" fill="#D6E0F9"/>
<path d="M134.542 328.66C113.039 324.419 111.954 342.864 111.954 342.864V349.572C113.729 337.932 134.542 328.66 134.542 328.66Z" fill="#D6E0F9"/>
<path d="M81.5733 143.024C60.5635 127.242 49.3188 143.024 49.3188 143.024C49.3188 143.024 89.6616 144.997 104.95 233.87C104.95 233.87 102.583 158.708 81.5733 143.024Z" fill="#D6E0F9"/>
<path d="M64.2131 206.449C64.2131 206.449 97.8485 250.047 104.654 285.655L103.865 277.369C103.865 277.369 102.583 214.142 64.2131 206.449Z" fill="#D6E0F9"/>
<path d="M104.655 285.654L105.838 298.674C105.937 294.532 105.444 290.192 104.655 285.654Z" fill="#D6E0F9"/>
<path d="M78.6142 301.437C78.6142 301.437 105.148 329.055 106.923 334.875C106.923 334.875 96.2703 303.113 78.6142 301.437Z" fill="#D6E0F9"/>
<path d="M132.865 434.795L142.433 376.796H79.3046L88.8725 434.795H132.865Z" fill="#D6E0F9"/>
<path d="M148.45 361.21H73.3864V376.795H148.45V361.21Z" fill="#D6E0F9"/>
<path d="M142.433 376.796H79.3046L88.8725 434.795H99.624C99.624 434.795 89.0698 389.816 140.361 389.323L142.433 376.796Z" fill="#F7F9FE"/>
<mask id="mask0" mask-type="alpha" maskUnits="userSpaceOnUse" x="0" y="0" width="149" height="128">
<path d="M148.45 57.6044C148.45 41.4278 135.331 28.309 119.154 28.309C117.675 28.309 116.294 28.4076 114.913 28.6049C110.869 12.1324 95.9744 0 78.3183 0C61.3526 0 47.0501 11.146 42.2169 26.5335C41.6251 26.5335 41.1319 26.5335 40.5401 26.5335C18.1493 26.5335 0 44.6828 0 67.0736C0 87.097 14.4997 103.668 33.5368 106.923C34.9177 114.124 41.2305 119.549 48.727 119.549C51.8834 119.549 54.7439 118.562 57.2098 116.984C64.4104 123.396 73.8796 127.341 84.3351 127.341C106.726 127.341 124.875 109.192 124.875 86.8011C124.875 86.6038 124.875 86.4065 124.875 86.2093C138.29 83.6447 148.45 71.8082 148.45 57.6044Z" fill="url(#paint0_linear)"/>
</mask>
<g mask="url(#mask0)">
<path d="M148.45 57.6044C148.45 41.4278 135.331 28.309 119.154 28.309C117.675 28.309 116.294 28.4076 114.913 28.6049C110.869 12.1324 95.9744 0 78.3183 0C61.3526 0 47.0501 11.146 42.2169 26.5335C41.6251 26.5335 41.1319 26.5335 40.5401 26.5335C18.1493 26.5335 0 44.6828 0 67.0736C0 87.097 14.4997 103.668 33.5368 106.923C34.9177 114.124 41.2305 119.549 48.727 119.549C51.8834 119.549 54.7439 118.562 57.2098 116.984C64.4104 123.396 73.8796 127.341 84.3351 127.341C106.726 127.341 124.875 109.192 124.875 86.8011C124.875 86.6038 124.875 86.4065 124.875 86.2093C138.29 83.6447 148.45 71.8082 148.45 57.6044Z" fill="#D6E0F9"/>
<path d="M84.3357 128.821C74.2747 128.821 64.7068 125.27 57.1117 118.76C54.5472 120.24 51.6867 120.93 48.8262 120.93C41.0338 120.93 34.2278 115.604 32.3537 108.107C12.7248 104.26 -1.38036 87.0976 -1.38036 67.0741C-1.38036 43.8943 17.4594 25.0545 40.6393 25.0545C40.8365 25.0545 41.0338 25.0545 41.2311 25.0545C46.6562 9.17386 61.4518 -1.479 78.4175 -1.479C95.975 -1.479 111.362 10.1602 116.097 27.0273C117.182 26.9286 118.267 26.83 119.253 26.83C136.219 26.83 150.028 40.6393 150.028 57.6049C150.028 71.8087 140.165 84.2371 126.454 87.4921C126.059 110.376 107.318 128.821 84.3357 128.821ZM57.4077 115.111L58.2954 115.9C65.4959 122.311 74.7679 125.862 84.3357 125.862C105.839 125.862 123.396 108.305 123.396 86.8016V85.0262L124.58 84.8289C137.501 82.2643 146.971 70.8224 146.971 57.6049C146.971 42.3161 134.542 29.7891 119.155 29.7891C117.971 29.7891 116.689 29.8878 115.209 30.085L113.927 30.2823L113.631 29C109.488 12.8234 95.0872 1.48012 78.4175 1.48012C62.3395 1.48012 48.4316 11.7384 43.697 27.0273L43.4011 28.1123H42.2175C41.7243 28.1123 41.1325 28.1123 40.5406 28.1123C19.1363 28.0136 1.57877 45.4725 1.57877 67.0741C1.57877 86.1112 15.1908 102.288 33.8333 105.543L34.8196 105.74L35.0169 106.726C36.2992 113.335 42.0202 118.07 48.8262 118.07C51.588 118.07 54.2513 117.281 56.5199 115.801L57.4077 115.111Z" fill="#3464E0"/>
</g>
<mask id="mask1" mask-type="alpha" maskUnits="userSpaceOnUse" x="116" y="127" width="40" height="40">
<path d="M155.749 147.167C155.749 158.116 146.871 166.994 135.923 166.994C124.974 166.994 116.096 158.116 116.096 147.167C116.096 136.219 124.974 127.341 135.923 127.341C146.871 127.341 155.749 136.219 155.749 147.167Z" fill="url(#paint1_linear)"/>
</mask>
<g mask="url(#mask1)">
<path d="M155.748 147.166C155.748 158.115 146.871 166.993 135.922 166.993C124.973 166.993 116.096 158.115 116.096 147.166C116.096 136.218 124.973 127.34 135.922 127.34C146.871 127.34 155.748 136.218 155.748 147.166Z" fill="#F7F9FE"/>
<path d="M135.923 168.473C124.185 168.473 114.617 158.905 114.617 147.167C114.617 135.429 124.185 125.861 135.923 125.861C147.66 125.861 157.228 135.429 157.228 147.167C157.228 158.905 147.66 168.473 135.923 168.473ZM135.923 128.82C125.763 128.82 117.576 137.007 117.576 147.167C117.576 157.327 125.763 165.514 135.923 165.514C146.082 165.514 154.269 157.327 154.269 147.167C154.269 137.007 145.984 128.82 135.923 128.82Z" fill="#3464E0"/>
</g>
<mask id="mask2" mask-type="alpha" maskUnits="userSpaceOnUse" x="168" y="168" width="20" height="20">
<path d="M187.609 177.942C187.609 183.268 183.269 187.608 177.942 187.608C172.616 187.608 168.276 183.268 168.276 177.942C168.276 172.615 172.616 168.275 177.942 168.275C183.269 168.275 187.609 172.615 187.609 177.942Z" fill="url(#paint2_linear)"/>
</mask>
<g mask="url(#mask2)">
<path d="M187.608 177.941C187.608 183.268 183.268 187.608 177.942 187.608C172.615 187.608 168.275 183.268 168.275 177.941C168.275 172.615 172.615 168.275 177.942 168.275C183.268 168.275 187.608 172.615 187.608 177.941Z" fill="#F7F9FE"/>
<path d="M177.844 189.088C171.728 189.088 166.698 184.058 166.698 177.942C166.698 171.827 171.728 166.796 177.844 166.796C183.959 166.796 188.99 171.827 188.99 177.942C188.99 184.058 184.058 189.088 177.844 189.088ZM177.844 169.756C173.306 169.756 169.657 173.405 169.657 177.942C169.657 182.48 173.306 186.129 177.844 186.129C182.381 186.129 186.031 182.48 186.031 177.942C186.031 173.405 182.381 169.756 177.844 169.756Z" fill="#3464E0"/>
</g>
<path d="M214.293 228.323L300.404 228.976L300.464 221.085L214.353 220.432L214.293 228.323Z" fill="#C7D1E5"/>
<path d="M191.278 149.978L215.167 228.081L222.336 225.888L198.447 147.785L191.278 149.978Z" fill="#D6E0F9"/>
<path d="M497.627 433.809L482.338 434.105L467.049 434.302L436.471 434.696L375.415 435.288C334.677 435.683 294.039 435.683 253.301 435.781L192.245 435.683C171.925 435.584 151.507 435.584 131.188 435.288L70.1313 434.696L39.5537 434.203L24.2648 434.006L8.976 433.71L24.2648 433.414L39.5537 433.217L70.1313 432.724L131.188 432.132C151.507 431.935 171.925 431.935 192.245 431.737L253.301 431.639C294.039 431.737 334.677 431.737 375.415 432.132L436.471 432.724L467.049 433.118L482.338 433.315L497.627 433.809Z" fill="#3A4368"/>
<path d="M51.1405 433.841H57.8479L57.8479 238.637H51.1405L51.1405 433.841Z" fill="#3A4368"/>
<path d="M308.44 226.867H13.3161V238.605H308.44V226.867Z" fill="#3E445B"/>
<path d="M274.41 238.604H267.702V433.808H274.41V238.604Z" fill="#3A4368"/>
<path d="M303.015 212.466C303.015 212.466 298.576 213.354 296.406 213.453C294.236 213.551 284.471 209.014 281.314 209.507C278.158 209.902 257.641 218.681 256.655 219.272C255.767 219.864 257.05 221.344 257.05 221.344L304.198 221.936L303.015 212.466Z" fill="#FCE8EE"/>
<path d="M383.7 411.122L386.758 417.632C386.758 417.632 399.482 412.897 399.581 412.7C399.679 412.503 396.03 403.625 396.03 403.625L383.7 411.122Z" fill="#473D9E"/>
<path d="M274.508 410.925L270.957 421.183C270.957 421.183 284.964 424.241 286.937 424.142C287.134 424.142 289.6 412.503 289.6 412.503L274.508 410.925Z" fill="#473D9E"/>
<path d="M288.614 421.183C288.614 421.183 278.848 418.52 278.552 418.125C278.257 417.731 274.706 415.265 272.832 415.561C270.957 415.857 270.859 418.125 268.985 418.52C267.111 419.013 252.808 423.55 250.835 424.734C248.863 425.918 239.393 422.465 237.618 424.931C235.842 427.397 234.067 433.809 248.863 436.077C263.757 438.346 279.638 444.955 283.188 444.067C286.739 443.081 289.107 425.129 288.614 421.183Z" fill="#252A93"/>
<path d="M400.567 411.023C400.567 411.023 391.493 414.87 390.999 414.772C390.506 414.574 386.363 414.969 385.081 416.251C383.897 417.632 385.081 419.408 383.897 420.887C382.714 422.367 376.302 430.85 374.428 432.822C372.85 434.401 364.367 435.979 361.704 438.741C359.633 440.911 362.099 449.492 376.5 445.349C390.506 441.404 407.965 434.499 410.135 431.639C412.305 428.778 403.329 413.687 400.567 411.023Z" fill="#252A93"/>
<path d="M391.295 282.498C391.295 282.498 351.446 300.253 342.963 306.27C334.48 312.287 316.035 323.531 315.443 326.195C314.851 328.956 311.202 326.293 317.712 339.905C324.222 353.517 355.293 386.363 358.153 389.914C361.211 393.663 382.714 415.955 382.714 415.955L398.89 403.724C398.89 403.724 367.82 357.956 363.282 351.248C358.745 344.541 356.772 343.555 359.435 340.596C362.099 337.636 372.751 337.636 427.495 315.048C432.92 312.78 448.209 307.552 450.281 300.154C453.93 286.838 450.774 270.07 436.077 262.672C421.281 255.373 391.295 282.498 391.295 282.498Z" fill="#172183"/>
<path d="M372.357 154.269C372.751 154.565 373.047 155.256 373.442 156.143C374.034 157.524 374.626 159.3 375.217 161.371C376.993 167.684 378.67 175.772 378.67 175.772C378.67 175.772 401.455 156.735 398.299 155.552C395.044 154.368 392.676 148.844 392.676 148.844C392.676 148.844 369.891 152.099 372.357 154.269Z" fill="#FCE8EE"/>
<path d="M391.887 275.396C391.887 275.396 350.755 285.063 340.497 288.318C330.337 291.573 312.78 297.294 308.144 299.957C305.678 301.338 301.831 303.508 297.294 318.402C292.066 335.269 280.328 382.714 277.566 390.112C275.889 394.748 271.056 412.996 271.056 412.996L292.066 416.645C292.066 416.645 317.12 366.242 319.191 352.728C322.643 330.14 331.422 329.943 334.973 327.872C338.524 325.8 355.588 329.647 416.349 324.814C422.465 324.321 439.036 324.025 443.277 317.515C451.07 305.678 458.862 292.263 446.828 280.328C434.696 268.492 391.887 275.396 391.887 275.396Z" fill="#252A93"/>
<path d="M364.269 106.628C364.269 106.628 357.167 118.958 358.745 122.311C360.323 125.665 351.347 133.753 352.827 135.529C354.306 137.205 357.364 139.376 357.364 139.869C357.265 140.362 360.027 156.44 363.479 156.736C366.932 157.13 390.901 155.848 392.873 148.352C394.846 140.855 400.666 124.481 402.047 121.423C403.428 118.366 389.618 94.89 364.269 106.628Z" fill="#FCE8EE"/>
<path d="M393.761 104.26C395.734 105.74 397.312 107.318 398.693 108.896C400.271 109.587 409.543 114.223 407.57 119.155C405.006 125.862 394.55 143.715 393.663 145.589C393.564 145.885 393.564 145.392 393.663 144.406C392.972 138.093 385.278 130.991 385.278 130.991L381.136 129.117C383.306 125.073 382.418 121.325 382.418 121.325C377.683 116.294 362.099 110.869 362.099 110.869C364.269 88.5769 383.306 96.4679 393.761 104.26Z" fill="#848796"/>
<path d="M386.659 125.763C387.744 124.086 393.564 124.382 392.775 129.314C391.887 134.246 384.785 138.29 383.207 136.021C381.629 133.851 385.476 127.539 386.659 125.763Z" fill="#FCE8EE"/>
<path d="M398.2 155.651C398.2 155.651 427.101 172.518 433.611 201.912C440.121 231.306 451.957 282.893 452.155 289.009C452.155 289.009 413.094 270.169 391.887 275.397C391.887 275.397 378.571 227.459 371.568 216.214C364.564 204.871 375.02 178.338 375.02 178.338C375.02 178.338 384.884 162.26 398.2 155.651Z" fill="#4457BE"/>
<path d="M373.442 156.144C374.034 157.525 374.625 159.3 375.217 161.371C378.67 159.991 385.18 153.974 385.377 153.776C382.615 154.861 373.442 156.144 373.442 156.144Z" fill="#E2C8CF"/>
<path d="M386.955 170.939C386.955 170.939 383.897 174.391 379.656 181.789C374.823 190.173 370.877 198.459 369.891 200.333C367.721 204.081 360.224 208.027 356.871 209.408C353.813 210.69 300.647 211.874 299.957 211.775C299.266 211.676 300.746 227.952 300.746 227.952C300.746 227.952 374.132 230.023 377.289 227.162C380.445 224.203 389.717 213.156 393.663 207.731C397.411 202.503 403.033 193.922 406.091 190.272C409.445 186.129 416.547 172.024 407.57 164.922C396.129 155.847 389.717 166.796 386.955 170.939Z" fill="#4457BE"/>
<path d="M405.105 197.177C405.105 197.177 396.819 219.568 391.887 227.163C386.955 234.758 381.432 241.07 381.432 241.07L378.768 233.377C378.867 233.377 400.173 203.983 405.105 197.177Z" fill="#2A3A84"/>
<path d="M338.919 447.124C338.919 450.971 341.977 454.029 345.823 454.029C349.67 454.029 352.728 450.971 352.728 447.124C352.728 443.277 349.67 440.22 345.823 440.22C341.977 440.22 338.919 443.277 338.919 447.124Z" fill="#3A4368"/>
<path d="M494.865 440.219L493.188 445.151L419.013 422.267L422.564 412.206L494.865 440.219Z" fill="#3E445B"/>
<path d="M416.533 418.673H424.917V338.086H416.533V418.673Z" fill="#3E445B"/>
<path d="M395.819 338.593H445.533V333.858H395.819V338.593Z" fill="#3A4368"/>
<path d="M345.823 440.219L347.599 445.151L421.676 422.267L418.421 411.614L345.823 440.219Z" fill="#3E445B"/>
<path d="M398.003 444.657V450.378L421.676 422.267L418.421 411.614L398.003 444.657Z" fill="#3E445B"/>
<path d="M397.411 447.123C397.411 450.97 400.469 454.028 404.316 454.028C408.162 454.028 411.22 450.97 411.22 447.123C411.22 443.277 408.162 440.219 404.316 440.219C400.567 440.219 397.411 443.277 397.411 447.123Z" fill="#3A4368"/>
<path d="M487.96 447.123C487.96 450.97 491.018 454.028 494.865 454.028C498.712 454.028 501.77 450.97 501.77 447.123C501.77 443.277 498.712 440.219 494.865 440.219C491.117 440.219 487.96 443.277 487.96 447.123Z" fill="#3A4368"/>
<path d="M370.384 333.789H470.403C475.335 333.789 479.28 329.844 479.28 324.912V324.715C479.28 319.783 475.335 315.837 470.403 315.837H370.384C365.452 315.837 361.507 319.783 361.507 324.715V324.912C361.507 329.844 365.452 333.789 370.384 333.789Z" fill="#3E445B"/>
<path d="M456.1 303.212H491.413C499.895 303.212 506.8 296.307 506.8 287.824V206.152C506.8 197.669 499.895 190.765 491.413 190.765H456.1C447.617 190.765 440.713 197.669 440.713 206.152V287.824C440.713 296.307 447.519 303.212 456.1 303.212Z" fill="#3E445B"/>
<path d="M439.924 329.351C451.859 329.351 461.624 325.307 468.825 317.416C485.1 299.464 482.141 267.998 482.042 266.617C481.746 264.151 479.576 262.277 477.11 262.573C474.644 262.771 472.77 265.039 473.066 267.505C473.066 267.9 475.729 296.406 462.117 311.3C456.692 317.317 449.393 320.276 439.924 320.276C437.458 320.276 435.386 322.348 435.386 324.814C435.386 327.28 437.458 329.351 439.924 329.351Z" fill="#3E445B"/>
<path d="M68.9731 73.3108C68.9731 70.8617 69.3499 68.601 70.1976 66.6228C71.0454 64.6447 72.6468 62.9492 75.1901 61.442C75.9436 60.971 76.8856 60.5 78.016 59.8407C79.1463 59.2755 80.1825 58.5219 81.3129 57.7683C82.349 56.9206 83.291 55.9786 84.0446 54.9424C84.7982 53.8121 85.1749 52.5875 85.1749 51.1746C85.1749 50.1384 84.9865 49.1964 84.6098 48.3487C84.233 47.5009 83.6678 46.8415 83.0084 46.2763C82.349 45.7111 81.5955 45.3344 80.6535 45.0518C79.8057 44.7692 78.8638 44.675 77.9218 44.675C76.7914 44.675 75.7553 44.8634 74.9075 45.2402C73.9655 45.617 73.2119 46.0879 72.4584 46.6531C71.7048 47.2183 71.0454 47.8777 70.4802 48.6312C69.9151 49.3848 69.4441 50.0442 68.9731 50.7036L62.3793 46.0879C63.0387 44.4866 63.8865 43.0736 65.0168 41.8491C66.1472 40.6245 67.3717 39.5884 68.7847 38.7406C70.1976 37.8928 71.7048 37.2334 73.3061 36.8566C74.9075 36.3857 76.603 36.1973 78.2986 36.1973C80.1825 36.1973 82.1606 36.4799 84.0446 37.045C85.9285 37.6102 87.6241 38.458 89.1312 39.6825C90.6384 40.9071 91.8629 42.5085 92.8049 44.3924C93.7468 46.2763 94.2178 48.5371 94.2178 51.1746C94.2178 52.7759 94.0294 54.2831 93.6527 55.5076C93.2759 56.7322 92.7107 57.8625 92.0513 58.8987C91.2977 59.9349 90.5442 60.8768 89.508 61.6304C88.566 62.4782 87.4357 63.2318 86.2111 63.9853C85.1749 64.5505 84.1388 65.2099 83.1968 65.7751C82.1606 66.3403 81.2187 66.9996 80.3709 67.659C79.5231 68.3184 78.8637 69.1662 78.2986 70.0139C77.7334 70.8617 77.4508 71.9921 77.4508 73.2166H68.9731V73.3108ZM69.0673 91.114V80.564H77.545V91.114H69.0673Z" fill="#F7F9FE"/>
<path d="M78.9579 92.5267H67.6543V79.1507H78.9579V92.5267ZM70.4802 89.7007H76.132V81.9766H70.4802V89.7007ZM78.7696 74.7234H67.5601V73.3105C67.5601 70.673 68.0311 68.2239 68.8789 66.0573C69.8209 63.7966 71.7048 61.8185 74.5307 60.2171C75.2843 59.7462 76.3204 59.181 77.4508 58.6158C78.487 58.0506 79.5231 57.3912 80.5593 56.6377C81.5013 55.8841 82.2548 55.0363 82.9142 54.0943C83.4794 53.2466 83.762 52.2104 83.762 51.08C83.762 50.2323 83.5736 49.4787 83.291 48.9135C83.0084 48.2541 82.5374 47.7832 82.0664 47.3122C81.5013 46.8412 80.9361 46.5586 80.2767 46.3702C78.5812 45.8992 76.7914 45.8992 75.4727 46.4644C74.7191 46.747 73.9655 47.218 73.3061 47.689C72.6468 48.1599 72.0816 48.8193 71.5164 49.4787C70.9512 50.1381 70.4802 50.7975 70.1034 51.4568L69.3499 52.6814L60.4954 46.6528L60.9664 45.6166C61.7199 43.9211 62.6619 42.3197 63.8865 41.001C65.111 39.6822 66.4298 38.5519 67.9369 37.6099C69.4441 36.6679 71.0454 36.0085 72.8352 35.5376C76.5088 34.5956 80.5593 34.5956 84.3272 35.726C86.3995 36.2911 88.2834 37.3273 89.8848 38.6461C91.5803 39.9648 92.8991 41.7546 93.9352 43.8269C94.9714 45.8992 95.5366 48.4425 95.5366 51.2684C95.5366 53.0582 95.3482 54.6595 94.8772 55.9783C94.5004 57.3912 93.841 58.6158 93.0875 59.7462C92.3339 60.8765 91.3919 61.9127 90.3558 62.7605C89.3196 63.6082 88.1892 64.456 86.8705 65.2096C85.8343 65.8689 84.7982 66.4341 83.762 66.9993C82.82 67.4703 81.9722 68.1297 81.2187 68.6949C80.5593 69.26 79.8999 69.9194 79.5231 70.673C79.1463 71.3324 78.9579 72.1801 78.9579 73.2163V74.7234H78.7696ZM70.386 71.8975H76.0378C76.2262 70.9556 76.5088 70.1078 76.9798 69.3542C77.6392 68.3181 78.3928 67.3761 79.3347 66.6225C80.2767 65.8689 81.2187 65.2096 82.349 64.6444C83.291 64.0792 84.3272 63.514 85.3633 62.9488C86.4937 62.1953 87.5299 61.4417 88.4718 60.6881C89.3196 59.9345 90.0732 59.0868 90.7326 58.239C91.3919 57.3912 91.8629 56.3551 92.1455 55.2247C92.5223 54.0943 92.6165 52.7756 92.6165 51.3626C92.6165 48.9135 92.1455 46.8412 91.3919 45.1456C90.5442 43.4501 89.4138 42.0371 88.095 40.9068C86.7763 39.7764 85.1749 39.0228 83.4794 38.4577C80.1825 37.5157 76.6972 37.4215 73.4945 38.2693C71.9874 38.6461 70.5744 39.2112 69.3499 40.059C68.0311 40.8126 66.9008 41.7546 65.9588 42.8849C65.2052 43.7327 64.5458 44.6747 64.0748 45.6166L68.5021 48.7251C68.6905 48.3483 68.9731 48.0657 69.2557 47.689C69.9151 46.8412 70.6686 46.0876 71.4222 45.5224C72.27 44.863 73.2119 44.2979 74.2481 43.9211C76.2262 43.0733 78.6754 42.9791 80.9361 43.7327C81.9722 44.1095 82.9142 44.5805 83.762 45.2398C84.6098 45.8992 85.2691 46.747 85.7401 47.7832C86.2111 48.8193 86.4937 49.9497 86.4937 51.2684C86.4937 52.964 86.0227 54.4711 85.1749 55.7899C84.3272 57.0144 83.3852 58.0506 82.1606 58.9926C81.0303 59.8403 79.8999 60.5939 78.6754 61.2533C77.6392 61.8185 76.6972 62.2895 75.9437 62.7605C73.6829 64.0792 72.1758 65.5864 71.5164 67.2819C70.857 68.6007 70.5744 70.202 70.386 71.8975Z" fill="#3464E0"/>
<defs>
<linearGradient id="paint0_linear" x1="85.0345" y1="49.9297" x2="-118.172" y2="293.394" gradientUnits="userSpaceOnUse">
<stop stop-color="white"/>
<stop offset="1"/>
</linearGradient>
<linearGradient id="paint1_linear" x1="206.537" y1="62.5615" x2="3.33054" y2="306.027" gradientUnits="userSpaceOnUse">
<stop stop-color="white"/>
<stop offset="1"/>
</linearGradient>
<linearGradient id="paint2_linear" x1="274.704" y1="61.9464" x2="71.4963" y2="305.412" gradientUnits="userSpaceOnUse">
<stop stop-color="white"/>
<stop offset="1"/>
</linearGradient>
</defs>
</svg>
