<svg width="1440" height="734" viewBox="0 0 1440 734" fill="none" xmlns="http://www.w3.org/2000/svg">
<path fill-rule="evenodd" clip-rule="evenodd" d="M0 274.908C6.7403 292.354 12.7126 310.828 18.6274 329.124C21.3833 337.648 24.1267 346.134 26.9294 354.459C60.8748 455.291 85.0063 502.561 172.303 526.247C211.357 536.844 275.463 519.998 347.763 500.999C437.072 477.53 538.883 450.775 621.425 468.401C699.529 485.079 758.131 547.482 814.504 607.511L814.505 607.512C865.939 662.281 915.518 715.076 976.361 729.365C1048.14 746.222 1096.37 703.308 1147.68 657.657C1187.53 622.198 1229.24 585.087 1285.28 573.056C1355.77 557.923 1407.61 603.26 1440 647.142V0H0V274.908Z" fill="#F3F6FF"/>
</svg>
