<svg width="527" height="304" viewBox="0 0 527 304" fill="none" xmlns="http://www.w3.org/2000/svg">
<path d="M256.447 300.35C256.447 297.31 254.8 296.297 253.661 295.917C252.648 295.537 249.608 294.397 245.176 292.371C240.743 290.345 237.704 287.939 235.171 277.301C232.638 266.79 233.778 246.021 233.778 246.021H160.453C160.453 246.021 161.593 266.663 159.06 277.301C156.527 287.812 153.488 290.345 149.056 292.371C144.623 294.397 141.584 295.537 140.571 295.917C139.558 296.297 137.785 297.184 137.785 300.35H256.447Z" fill="#3464E0"/>
<path d="M233.778 265.143C233.398 255.772 233.905 246.147 233.905 246.147H160.58C160.58 246.147 161.466 261.724 160.073 272.742L233.778 265.143Z" fill="#0641D9"/>
<path d="M386 9.07654C386 4.51748 382.327 0.84491 377.768 0.84491H21.1489C16.5898 0.84491 12.9172 4.51748 12.9172 9.07654V221.959H385.873V9.07654H386Z" fill="#3A4368"/>
<path d="M12.9172 221.959V246.401C12.9172 250.96 16.5898 254.632 21.1489 254.632H377.642C382.201 254.632 385.873 250.96 385.873 246.401V221.959H12.9172Z" fill="#3464E0"/>
<path d="M256.447 300.35H138.038V303.009H256.447V300.35Z" fill="#3A4368"/>
<path d="M375.995 10.8495H22.9216V211.955H375.995V10.8495Z" fill="#F7F9FE"/>
<path opacity="0.5" d="M386 30.2255L375.489 23.2603H354.846H334.204H313.562H292.919H272.277H251.634H230.486H209.843H189.201H168.432H147.789H127.147H106.251H85.6088H64.8398H44.1974H23.4284L12.9172 30.2255V60.1127C18.8693 59.4794 23.4284 54.5405 23.4284 48.4617C23.4284 54.9204 28.6206 60.2393 35.206 60.2393C41.7913 60.2393 46.9835 55.047 46.9835 48.4617C46.9835 54.9204 52.1758 60.2393 58.7611 60.2393C65.2197 60.2393 70.5386 55.047 70.5386 48.4617C70.5386 54.9204 75.7309 60.2393 82.3162 60.2393C88.7749 60.2393 94.0938 55.047 94.0938 48.4617C94.0938 54.9204 99.286 60.2393 105.871 60.2393C112.33 60.2393 117.649 55.047 117.649 48.4617C117.649 54.9204 122.841 60.2393 129.426 60.2393C135.885 60.2393 141.204 55.047 141.204 48.4617C141.204 54.9204 146.396 60.2393 152.982 60.2393C159.44 60.2393 164.759 55.047 164.759 48.4617C164.759 54.9204 169.951 60.2393 176.537 60.2393C182.995 60.2393 188.314 55.047 188.314 48.4617C188.314 54.9204 193.507 60.2393 200.092 60.2393C206.55 60.2393 211.869 55.047 211.869 48.4617C211.869 54.9204 217.062 60.2393 223.647 60.2393C230.106 60.2393 235.424 55.047 235.424 48.4617C235.424 54.9204 240.617 60.2393 247.202 60.2393C253.661 60.2393 258.98 55.047 258.98 48.4617C258.98 54.9204 264.172 60.2393 270.757 60.2393C277.342 60.2393 282.535 55.047 282.535 48.4617C282.535 54.9204 287.727 60.2393 294.312 60.2393C300.771 60.2393 306.09 55.047 306.09 48.4617C306.09 54.9204 311.282 60.2393 317.867 60.2393C324.326 60.2393 329.645 55.047 329.645 48.4617C329.645 54.9204 334.837 60.2393 341.423 60.2393C347.881 60.2393 353.2 55.047 353.2 48.4617C353.2 54.9204 358.392 60.2393 364.978 60.2393C371.436 60.2393 376.755 55.047 376.755 48.4617C376.755 54.5405 381.314 59.4794 387.266 60.1127V30.2255H386Z" fill="#CFCFCF"/>
<path d="M23.4285 36.051C23.4285 42.5096 18.2362 47.8285 11.6509 47.8285C5.19226 47.8285 0 42.6363 0 36.051V26.5529H23.4285V36.051Z" fill="#3464E0"/>
<path d="M44.1978 10.8495H23.4287L0.000244141 26.5529H23.4287L44.1978 10.8495Z" fill="#172183"/>
<path d="M46.9836 36.051C46.9836 42.5096 41.7913 47.8285 35.206 47.8285C28.6207 47.8285 23.4285 42.6363 23.4285 36.051V26.5529H46.8569V36.051H46.9836Z" fill="#C3C3F7"/>
<path d="M64.8399 10.8495H44.1975L23.4285 26.5529H46.9836L64.8399 10.8495Z" fill="#5D5199"/>
<path d="M70.4121 36.051C70.4121 42.5096 65.2198 47.8285 58.6345 47.8285C52.1758 47.8285 46.8569 42.6363 46.8569 36.051V26.5529H70.2854V36.051H70.4121Z" fill="#3464E0"/>
<path d="M85.609 10.8495H64.8399L46.9836 26.5529H70.4121L85.609 10.8495Z" fill="#172183"/>
<path d="M93.8408 36.051C93.8408 42.5096 88.6485 47.8285 82.0632 47.8285C75.6045 47.8285 70.2856 42.6363 70.2856 36.051V26.5529H93.7141V36.051H93.8408Z" fill="#C3C3F7"/>
<path d="M106.252 10.8495H85.6092L70.4124 26.5529H93.8408L106.252 10.8495Z" fill="#5D5199"/>
<path d="M117.269 36.051C117.269 42.5096 112.077 47.8285 105.491 47.8285C99.0328 47.8285 93.7139 42.6363 93.7139 36.051V26.5529H117.142V36.051H117.269Z" fill="#3464E0"/>
<path d="M127.021 10.8495H106.252L93.8408 26.5529H117.269L127.021 10.8495Z" fill="#172183"/>
<path d="M140.824 36.051C140.824 42.5096 135.632 47.8285 129.047 47.8285C122.588 47.8285 117.269 42.6363 117.269 36.051V26.5529H140.698V36.051H140.824Z" fill="#C3C3F7"/>
<path d="M147.663 10.8495H127.02L117.269 26.5529H140.824L147.663 10.8495Z" fill="#5D5199"/>
<path d="M164.253 36.051C164.253 42.5096 159.061 47.8285 152.475 47.8285C146.017 47.8285 140.698 42.6363 140.698 36.051V26.5529H164.126V36.051H164.253Z" fill="#3464E0"/>
<path d="M168.432 10.8495H147.663L140.824 26.5529H164.253L168.432 10.8495Z" fill="#172183"/>
<path d="M187.681 36.051C187.681 42.5096 182.489 47.8285 175.904 47.8285C169.445 47.8285 164.126 42.6363 164.126 36.051V26.5529H187.555V36.051H187.681Z" fill="#C3C3F7"/>
<path d="M189.074 10.8495H168.432L164.253 26.5529H187.681L189.074 10.8495Z" fill="#5D5199"/>
<path d="M211.236 36.051C211.236 42.5096 206.044 47.8285 199.459 47.8285C193 47.8285 187.681 42.6363 187.681 36.051V26.5529H211.11V36.051H211.236Z" fill="#3464E0"/>
<path d="M209.843 10.8495H189.074L187.681 26.5529H211.236L209.843 10.8495Z" fill="#172183"/>
<path d="M234.665 36.051C234.665 42.5096 229.472 47.8285 222.887 47.8285C216.429 47.8285 211.11 42.6363 211.11 36.051V26.5529H234.538V36.051H234.665Z" fill="#C3C3F7"/>
<path d="M230.486 10.8495H209.843L211.236 26.5529H234.665L230.486 10.8495Z" fill="#5D5199"/>
<path d="M258.093 36.051C258.093 42.5096 252.901 47.8285 246.316 47.8285C239.857 47.8285 234.538 42.6363 234.538 36.051V26.5529H257.967V36.051H258.093Z" fill="#3464E0"/>
<path d="M251.255 10.8495H230.486L234.665 26.5529H258.093L251.255 10.8495Z" fill="#172183"/>
<path d="M281.522 36.051C281.522 42.5096 276.329 47.8285 269.744 47.8285C263.159 47.8285 257.967 42.6363 257.967 36.051V26.5529H281.395V36.051H281.522Z" fill="#C3C3F7"/>
<path d="M271.897 10.8495H251.255L258.093 26.5529H281.522L271.897 10.8495Z" fill="#5D5199"/>
<path d="M305.077 36.051C305.077 42.5096 299.885 47.8285 293.299 47.8285C286.841 47.8285 281.522 42.6363 281.522 36.051V26.5529H304.95V36.051H305.077Z" fill="#3464E0"/>
<path d="M292.666 10.8495H271.897L281.522 26.5529H305.077L292.666 10.8495Z" fill="#172183"/>
<path d="M328.505 36.051C328.505 42.5096 323.313 47.8285 316.728 47.8285C310.269 47.8285 304.95 42.6363 304.95 36.051V26.5529H328.379V36.051H328.505Z" fill="#C3C3F7"/>
<path d="M313.309 10.8495H292.667L305.077 26.5529H328.506L313.309 10.8495Z" fill="#5D5199"/>
<path d="M351.934 36.051C351.934 42.5096 346.742 47.8285 340.156 47.8285C333.698 47.8285 328.379 42.6363 328.379 36.051V26.5529H351.807V36.051H351.934Z" fill="#3464E0"/>
<path d="M333.951 10.8495H313.309L328.505 26.5529H351.934L333.951 10.8495Z" fill="#172183"/>
<path d="M375.362 36.051C375.362 42.5096 370.17 47.8285 363.585 47.8285C357.126 47.8285 351.807 42.6363 351.807 36.051V26.5529H375.236V36.051H375.362Z" fill="#C3C3F7"/>
<path d="M354.72 10.8495H333.951L351.934 26.5529H375.362L354.72 10.8495Z" fill="#5D5199"/>
<path d="M398.917 36.051C398.917 42.5096 393.725 47.8285 387.14 47.8285C380.555 47.8285 375.362 42.6363 375.362 36.051V26.5529H398.917V36.051Z" fill="#3464E0"/>
<path d="M375.363 10.8495H354.72L375.363 26.5529H398.918L375.363 10.8495Z" fill="#172183"/>
<path d="M40.5252 132.551L44.5777 128.625L42.8047 126.852L36.9792 132.551L42.8047 138.25L44.5777 136.603L40.5252 132.551Z" fill="#5D5199"/>
<path d="M166.279 132.551L162.227 128.625L164 126.852L169.698 132.551L164 138.25L162.227 136.603L166.279 132.551Z" fill="#5D5199"/>
<path d="M188.441 138.503C187.934 138.376 187.428 138.123 186.921 137.87C186.415 137.617 186.035 137.237 185.655 136.857L186.921 135.337C187.301 135.844 187.808 136.224 188.314 136.477C188.821 136.73 189.454 136.857 190.087 136.857C190.974 136.857 191.607 136.73 191.987 136.35C192.367 135.97 192.62 135.464 192.62 134.831C192.62 134.451 192.493 134.071 192.367 133.817C192.113 133.564 191.86 133.437 191.607 133.311C191.354 133.184 190.847 133.058 190.34 132.931C190.34 132.931 190.34 132.931 190.214 132.931H190.087C189.327 132.804 188.568 132.551 188.188 132.424C187.808 132.298 187.301 131.918 186.921 131.411C186.541 130.905 186.415 130.271 186.415 129.258C186.415 128.372 186.541 127.612 186.921 127.105C187.301 126.472 187.681 126.092 188.314 125.839C188.947 125.586 189.707 125.459 190.72 125.459C191.1 125.459 191.607 125.459 191.987 125.586C192.367 125.712 192.747 125.839 193.253 125.966C193.633 126.092 194.013 126.346 194.393 126.599L193.253 128.119C192.747 127.865 192.367 127.612 191.987 127.485C191.607 127.359 191.1 127.232 190.72 127.232C189.961 127.232 189.327 127.359 188.947 127.739C188.568 128.119 188.314 128.498 188.314 129.258C188.314 129.765 188.441 130.018 188.694 130.271C188.947 130.525 189.201 130.778 189.581 130.778C189.961 130.905 190.34 131.031 190.974 131.158C190.974 131.158 190.974 131.158 191.1 131.158C191.1 131.158 191.1 131.158 191.227 131.158C191.227 131.158 191.227 131.158 191.354 131.158C191.48 131.158 191.354 131.158 191.48 131.158C192.24 131.285 192.747 131.538 193.253 131.791C193.76 132.044 194.14 132.424 194.393 132.931C194.773 133.437 194.9 134.071 194.9 134.957C194.9 135.844 194.773 136.477 194.393 137.11C194.013 137.617 193.506 138.123 192.873 138.376C192.24 138.63 191.354 138.756 190.34 138.756C189.581 138.63 189.074 138.63 188.441 138.503ZM189.454 123.813H191.354V125.839H189.454V123.813ZM189.454 137.997H191.354V140.149H189.454V137.997Z" fill="#2E3138"/>
<path d="M205.157 138.503H203.258V127.359L201.358 128.498V126.599L203.258 125.332H205.157V138.503Z" fill="#2E3138"/>
<path d="M207.817 136.983L212.376 130.905C212.629 130.525 212.882 130.145 213.009 129.765C213.136 129.385 213.262 129.005 213.262 128.752C213.262 128.245 213.136 127.865 212.756 127.485C212.376 127.105 211.996 127.105 211.489 127.105C210.983 127.105 210.476 127.232 210.223 127.612C209.843 127.865 209.716 128.372 209.59 129.005H207.69C207.817 128.245 208.07 127.612 208.323 127.105C208.703 126.599 209.083 126.219 209.59 125.839C210.096 125.459 210.73 125.459 211.363 125.459C212.123 125.459 212.756 125.586 213.389 125.839C213.896 126.092 214.402 126.472 214.655 126.979C214.909 127.485 215.035 128.119 215.035 128.878C215.035 129.385 214.909 129.765 214.782 130.271C214.529 130.778 214.275 131.285 214.022 131.791L210.223 136.983H215.162V138.756H207.817V136.983Z" fill="#2E3138"/>
<path d="M222.507 128.878L228.586 132.551H225.293L222.507 130.905V128.878ZM225.293 132.551H228.586L222.507 136.224V134.071L225.293 132.551Z" fill="#2E3138"/>
<path d="M237.704 138.503C237.197 138.376 236.691 138.123 236.184 137.87C235.678 137.617 235.298 137.237 234.918 136.857L236.184 135.337C236.564 135.844 237.071 136.224 237.577 136.477C238.084 136.73 238.717 136.857 239.35 136.857C240.237 136.857 240.87 136.73 241.25 136.35C241.63 135.97 241.883 135.464 241.883 134.83C241.883 134.451 241.756 134.071 241.63 133.817C241.376 133.564 241.123 133.437 240.87 133.311C240.49 133.184 240.11 133.058 239.603 132.931C239.603 132.931 239.603 132.931 239.477 132.931H239.35C238.59 132.804 237.83 132.551 237.451 132.424C237.071 132.298 236.564 131.918 236.184 131.411C235.804 130.905 235.678 130.271 235.678 129.258C235.678 128.372 235.804 127.612 236.184 127.105C236.564 126.472 236.944 126.092 237.577 125.839C238.21 125.586 238.97 125.459 239.983 125.459C240.363 125.459 240.87 125.459 241.25 125.586C241.63 125.712 242.01 125.839 242.516 125.966C242.896 126.092 243.276 126.346 243.656 126.599L242.516 128.119C242.01 127.865 241.63 127.612 241.25 127.485C240.87 127.359 240.363 127.232 239.983 127.232C239.223 127.232 238.59 127.359 238.21 127.739C237.83 128.119 237.577 128.498 237.577 129.258C237.577 129.765 237.704 130.018 237.957 130.271C238.21 130.525 238.464 130.778 238.844 130.778C239.224 130.905 239.603 131.031 240.237 131.158C240.237 131.158 240.237 131.158 240.363 131.158C240.363 131.158 240.363 131.158 240.49 131.158C240.49 131.158 240.49 131.158 240.617 131.158C240.743 131.158 240.617 131.158 240.743 131.158C241.503 131.285 242.01 131.538 242.516 131.791C243.023 132.044 243.403 132.424 243.656 132.931C244.036 133.437 244.162 134.071 244.162 134.957C244.162 135.844 244.036 136.477 243.656 137.11C243.276 137.743 242.769 138.123 242.136 138.376C241.503 138.63 240.617 138.756 239.603 138.756C238.717 138.63 238.21 138.63 237.704 138.503ZM238.59 123.813H240.49V125.839H238.59V123.813ZM238.59 137.997H240.49V140.149H238.59V137.997Z" fill="#2E3138"/>
<path d="M254.294 138.503H252.394V127.359L250.495 128.498V126.599L252.394 125.332H254.294V138.503Z" fill="#2E3138"/>
<path d="M258.22 137.743C257.586 137.11 257.207 136.224 257.207 134.957V129.005C257.207 127.865 257.586 126.852 258.22 126.219C258.853 125.586 259.739 125.206 261.006 125.206C262.272 125.206 263.159 125.586 263.792 126.219C264.425 126.852 264.805 127.739 264.805 129.005V134.957C264.805 136.097 264.425 137.11 263.792 137.743C263.159 138.376 262.272 138.756 261.006 138.756C259.739 138.63 258.853 138.376 258.22 137.743ZM262.399 136.35C262.652 135.97 262.905 135.464 262.905 134.831V128.878C262.905 128.245 262.779 127.739 262.399 127.359C262.146 126.979 261.639 126.852 261.006 126.852C260.373 126.852 259.866 126.979 259.613 127.359C259.359 127.739 259.106 128.245 259.106 128.878V134.831C259.106 135.464 259.233 135.97 259.613 136.35C259.866 136.73 260.373 136.857 261.006 136.857C261.639 136.857 262.146 136.73 262.399 136.35Z" fill="#2E3138"/>
<path d="M237.198 161.172C237.198 163.325 235.551 164.971 233.398 164.971H186.035C183.882 164.971 182.236 163.325 182.236 161.172V151.294C182.236 149.141 183.882 147.495 186.035 147.495H233.398C235.551 147.495 237.198 149.141 237.198 151.294V161.172Z" fill="#5D5199"/>
<path d="M189.708 157.879C189.454 157.626 189.328 157.373 189.328 156.866C189.328 156.486 189.454 156.106 189.708 155.853C189.961 155.6 190.341 155.473 190.847 155.473H192.114V156.106H190.847C190.594 156.106 190.467 156.106 190.341 156.233C190.214 156.359 190.214 156.486 190.214 156.739C190.214 156.993 190.341 157.119 190.467 157.246C190.594 157.373 190.847 157.373 191.101 157.373C191.481 157.373 191.734 157.373 191.86 157.246C191.987 157.119 192.114 157.119 192.114 156.866L192.24 157.499C192.114 157.626 192.114 157.752 191.987 157.752C191.86 157.879 191.734 157.879 191.607 157.879C191.481 157.879 191.354 157.879 191.101 157.879C190.341 158.259 189.961 158.132 189.708 157.879ZM191.987 155.346C191.987 155.093 191.86 154.84 191.734 154.713C191.607 154.586 191.354 154.46 191.101 154.46C190.974 154.46 190.721 154.46 190.594 154.586C190.467 154.586 190.214 154.713 190.087 154.84L189.454 154.46C189.581 154.207 189.834 154.08 190.087 153.953C190.341 153.827 190.721 153.827 190.974 153.827C191.354 153.827 191.607 153.953 191.86 154.08C192.114 154.207 192.367 154.333 192.494 154.586C192.62 154.84 192.747 155.093 192.747 155.473V158.259H191.987V155.346Z" fill="white"/>
<path d="M194.646 158.006C194.393 157.879 194.266 157.626 194.14 157.373C194.013 157.119 194.013 156.739 194.013 156.359V155.346C194.013 154.966 194.013 154.586 194.14 154.333C194.266 154.08 194.393 153.827 194.646 153.7C194.9 153.573 195.153 153.447 195.406 153.447C195.66 153.447 195.913 153.573 196.166 153.7C196.419 153.827 196.546 154.08 196.673 154.333L196.546 155.22C196.546 155.093 196.546 154.84 196.419 154.713C196.293 154.586 196.293 154.46 196.166 154.46C196.039 154.46 195.913 154.333 195.66 154.333C195.406 154.333 195.153 154.46 195.026 154.586C194.9 154.713 194.773 154.966 194.773 155.346V156.359C194.773 156.739 194.9 156.866 195.026 157.119C195.153 157.246 195.406 157.373 195.66 157.373C195.786 157.373 196.039 157.373 196.166 157.246C196.293 157.119 196.419 157.119 196.419 156.993C196.546 156.866 196.546 156.739 196.546 156.486V157.373C196.419 157.626 196.293 157.752 196.166 157.879C195.913 158.006 195.66 158.132 195.406 158.132C195.153 158.259 194.9 158.132 194.646 158.006ZM196.546 152.054H197.432V158.259H196.546V152.054Z" fill="white"/>
<path d="M199.332 158.006C199.079 157.879 198.952 157.626 198.825 157.373C198.699 157.119 198.699 156.739 198.699 156.359V155.346C198.699 154.966 198.699 154.586 198.825 154.333C198.952 154.08 199.079 153.827 199.332 153.7C199.585 153.573 199.839 153.447 200.092 153.447C200.345 153.447 200.598 153.573 200.852 153.7C201.105 153.827 201.232 154.08 201.358 154.333L201.232 155.22C201.232 155.093 201.232 154.84 201.105 154.713C200.978 154.586 200.978 154.46 200.852 154.46C200.725 154.46 200.598 154.333 200.345 154.333C200.092 154.333 199.838 154.46 199.712 154.586C199.585 154.713 199.459 154.966 199.459 155.346V156.359C199.459 156.739 199.585 156.866 199.712 157.119C199.838 157.246 200.092 157.373 200.345 157.373C200.472 157.373 200.725 157.373 200.852 157.246C200.978 157.119 201.105 157.119 201.105 156.993C201.232 156.866 201.232 156.739 201.232 156.486V157.373C201.105 157.626 200.978 157.752 200.852 157.879C200.598 158.006 200.345 158.132 200.092 158.132C199.839 158.259 199.585 158.132 199.332 158.006ZM201.232 152.054H202.118V158.259H201.232V152.054Z" fill="white"/>
<path d="M205.411 153.827H207.437V154.586H205.411V153.827ZM206.171 157.879C206.044 157.626 205.917 157.373 205.917 156.993V152.434H206.804V156.993C206.804 157.119 206.804 157.246 206.931 157.246C207.057 157.246 207.057 157.373 207.057 157.373H207.437V158.132H206.931C206.551 158.259 206.297 158.132 206.171 157.879Z" fill="white"/>
<path d="M209.337 158.006C209.084 157.879 208.83 157.626 208.704 157.373C208.577 157.119 208.45 156.739 208.45 156.359V155.6C208.45 155.22 208.577 154.84 208.704 154.586C208.83 154.333 209.084 154.08 209.337 153.953C209.59 153.827 209.97 153.7 210.35 153.7C210.73 153.7 211.11 153.827 211.363 153.953C211.616 154.08 211.87 154.333 211.996 154.586C212.123 154.84 212.25 155.22 212.25 155.6V156.359C212.25 156.739 212.123 157.119 211.996 157.373C211.87 157.626 211.616 157.879 211.363 158.006C211.11 158.132 210.73 158.259 210.35 158.259C209.97 158.259 209.59 158.132 209.337 158.006ZM210.983 157.119C211.11 156.993 211.237 156.613 211.237 156.359V155.6C211.237 155.22 211.11 154.966 210.983 154.84C210.857 154.713 210.603 154.586 210.223 154.586C209.843 154.586 209.717 154.713 209.464 154.84C209.337 154.966 209.21 155.346 209.21 155.6V156.359C209.21 156.739 209.337 156.993 209.464 157.119C209.59 157.246 209.843 157.373 210.223 157.373C210.603 157.373 210.857 157.373 210.983 157.119Z" fill="white"/>
<path d="M216.429 158.006C216.175 157.879 215.922 157.626 215.796 157.373C215.669 157.119 215.542 156.739 215.542 156.359V155.6C215.542 155.22 215.669 154.84 215.796 154.586C215.922 154.333 216.175 154.08 216.429 153.953C216.682 153.827 217.062 153.7 217.442 153.7C217.695 153.7 217.948 153.7 218.075 153.827C218.328 153.827 218.455 153.953 218.582 154.08C218.708 154.207 218.835 154.333 218.962 154.46L218.328 154.966C218.202 154.84 218.075 154.713 217.948 154.586C217.822 154.46 217.568 154.46 217.442 154.46C217.062 154.46 216.809 154.586 216.682 154.713C216.555 154.84 216.429 155.22 216.429 155.473V156.233C216.429 156.613 216.555 156.866 216.682 156.993C216.809 157.119 217.062 157.246 217.442 157.246C217.568 157.246 217.822 157.246 217.948 157.119C218.075 156.993 218.202 156.866 218.328 156.739L218.962 157.373C218.835 157.499 218.708 157.626 218.582 157.752C218.455 157.879 218.202 157.879 218.075 158.006C217.822 158.006 217.695 158.132 217.442 158.132C217.062 158.259 216.682 158.132 216.429 158.006Z" fill="white"/>
<path d="M220.228 157.879C219.975 157.626 219.848 157.373 219.848 156.866C219.848 156.486 219.975 156.106 220.228 155.853C220.481 155.6 220.861 155.473 221.368 155.473H222.634V156.106H221.368C221.115 156.106 220.988 156.106 220.861 156.233C220.735 156.359 220.735 156.486 220.735 156.739C220.735 156.993 220.861 157.119 220.988 157.246C221.115 157.373 221.368 157.373 221.621 157.373C222.001 157.373 222.254 157.373 222.381 157.246C222.508 157.119 222.634 157.119 222.634 156.866L222.761 157.499C222.634 157.626 222.634 157.752 222.508 157.752C222.381 157.879 222.254 157.879 222.128 157.879C222.001 157.879 221.874 157.879 221.621 157.879C220.861 158.259 220.481 158.132 220.228 157.879ZM222.508 155.346C222.508 155.093 222.381 154.84 222.254 154.713C222.128 154.586 221.874 154.46 221.621 154.46C221.494 154.46 221.241 154.46 221.115 154.586C220.988 154.586 220.735 154.713 220.608 154.84L219.975 154.46C220.101 154.207 220.355 154.08 220.608 153.953C220.861 153.827 221.241 153.827 221.494 153.827C221.874 153.827 222.128 153.953 222.381 154.08C222.634 154.207 222.888 154.333 223.014 154.586C223.141 154.84 223.267 155.093 223.267 155.473V158.259H222.508V155.346Z" fill="white"/>
<path d="M224.66 153.827H225.547V158.259H224.66V153.827ZM226.813 154.586C226.686 154.586 226.56 154.46 226.433 154.46C226.18 154.46 225.927 154.586 225.8 154.713C225.673 154.84 225.547 155.093 225.547 155.346L225.42 154.46C225.547 154.207 225.673 153.953 225.927 153.827C226.18 153.7 226.433 153.573 226.686 153.573C226.94 153.573 227.066 153.573 227.193 153.7C227.32 153.7 227.446 153.827 227.573 153.953L227.066 154.713C226.94 154.713 226.94 154.713 226.813 154.586Z" fill="white"/>
<path d="M227.953 153.827H229.979V154.586H227.953V153.827ZM228.713 157.879C228.586 157.626 228.459 157.373 228.459 156.993V152.434H229.346V156.993C229.346 157.119 229.346 157.246 229.473 157.246C229.599 157.246 229.599 157.373 229.599 157.373H229.979V158.132H229.473C229.093 158.259 228.839 158.132 228.713 157.879Z" fill="white"/>
<path d="M261.892 94.6855H182.236V98.9913H261.892V94.6855Z" fill="#2E3138"/>
<path d="M222.254 105.45H182.236V107.603H222.254V105.45Z" fill="#2E3138"/>
<path d="M360.799 296.677C360.799 293.131 363.712 290.345 367.131 290.345C370.677 290.345 373.463 293.258 373.463 296.677C373.463 300.223 370.55 303.009 367.131 303.009C363.585 303.009 360.799 300.223 360.799 296.677Z" fill="#3E445B"/>
<path d="M329.519 303.009C333.016 303.009 335.851 300.174 335.851 296.677C335.851 293.18 333.016 290.345 329.519 290.345C326.021 290.345 323.187 293.18 323.187 296.677C323.187 300.174 326.021 303.009 329.519 303.009Z" fill="#3E445B"/>
<path d="M364.091 296.677C364.091 294.904 365.484 293.638 367.131 293.638C368.777 293.638 370.17 295.031 370.17 296.677C370.17 298.45 368.777 299.716 367.131 299.716C365.484 299.716 364.091 298.45 364.091 296.677Z" fill="#3E445B"/>
<path d="M303.937 303.009C307.434 303.009 310.269 300.174 310.269 296.677C310.269 293.18 307.434 290.345 303.937 290.345C300.44 290.345 297.605 293.18 297.605 296.677C297.605 300.174 300.44 303.009 303.937 303.009Z" fill="#3E445B"/>
<path d="M259.993 296.677C259.993 293.131 262.906 290.345 266.325 290.345C269.871 290.345 272.657 293.258 272.657 296.677C272.657 300.223 269.744 303.009 266.325 303.009C262.779 303.009 259.993 300.223 259.993 296.677Z" fill="#3E445B"/>
<path d="M303.937 299.716C305.616 299.716 306.977 298.356 306.977 296.677C306.977 294.998 305.616 293.638 303.937 293.638C302.259 293.638 300.898 294.998 300.898 296.677C300.898 298.356 302.259 299.716 303.937 299.716Z" fill="#3E445B"/>
<path d="M333.571 292.751H258.22C257.334 292.751 256.574 291.991 256.574 291.105C256.574 290.218 257.334 289.458 258.22 289.458H333.571C338.384 289.458 342.689 283.886 343.829 279.834C344.209 278.567 345.729 271.476 348.135 258.558C348.262 257.672 349.148 257.038 350.035 257.292C350.921 257.418 351.554 258.305 351.301 259.191C347.882 276.794 347.122 279.96 346.869 280.847C345.476 285.659 340.41 292.751 333.571 292.751Z" fill="#3E445B"/>
<path d="M363.205 192.325C363.078 192.325 362.951 192.325 362.698 192.199C361.812 191.945 361.305 191.059 361.558 190.172C362.951 185.613 364.598 182.321 365.104 181.434C365.991 179.788 370.93 171.683 374.476 165.731C375.869 163.451 376.882 161.678 377.388 160.792C379.161 157.752 380.934 156.486 383.214 156.486H387.393C388.279 156.486 389.039 157.246 389.039 158.132C389.039 159.019 388.279 159.779 387.393 159.779H383.214C382.707 159.779 381.821 159.779 380.175 162.565C379.668 163.451 378.528 165.351 377.135 167.504C373.716 173.076 368.65 181.561 367.764 183.08C366.877 184.727 365.484 187.64 364.471 191.185C364.598 191.945 363.965 192.325 363.205 192.325Z" fill="#3E445B"/>
<path d="M415.887 159.779H385.874C384.987 159.779 384.227 159.019 384.227 158.132C384.227 157.246 384.987 156.486 385.874 156.486H415.887C416.774 156.486 417.534 157.246 417.534 158.132C417.534 159.019 416.774 159.779 415.887 159.779Z" fill="#3E445B"/>
<path d="M342.942 260.458H283.041C273.543 260.458 267.845 257.545 265.692 251.593C264.045 247.034 251.381 206.889 250.368 201.19C249.735 197.771 249.355 193.972 251.508 191.439C252.901 189.792 255.054 189.033 258.093 189.033H363.205C364.091 189.033 364.851 189.792 364.851 190.679C364.851 191.565 364.091 192.325 363.205 192.325H258.093C256.067 192.325 254.674 192.705 253.914 193.592C252.774 194.985 253.028 197.771 253.534 200.684C254.421 206.002 267.085 246.021 268.604 250.453C269.618 253.366 272.277 257.165 282.915 257.165H342.816C343.702 257.165 344.462 257.925 344.462 258.811C344.589 259.698 343.829 260.458 342.942 260.458Z" fill="#3E445B"/>
<path d="M369.79 292.751H294.439C293.553 292.751 292.793 291.991 292.793 291.105C292.793 290.218 293.553 289.458 294.439 289.458H369.79C374.603 289.458 378.908 283.886 380.048 279.834C380.935 276.794 387.9 240.449 392.586 216.387C394.865 204.736 396.638 195.618 396.891 193.972C398.031 188.906 399.931 184.094 401.324 181.561C402.21 179.914 407.149 171.809 410.695 165.857C412.088 163.578 413.101 161.805 413.608 160.918C415.381 157.879 417.154 156.613 419.433 156.613H423.613C424.499 156.613 425.259 157.372 425.259 158.259C425.259 159.145 424.499 159.905 423.613 159.905H419.433C418.927 159.905 418.04 159.905 416.394 162.691C415.887 163.578 414.748 165.477 413.355 167.63C409.935 173.203 404.87 181.687 403.983 183.207C402.717 185.487 400.817 189.919 399.804 194.731C399.424 196.378 397.651 205.496 395.498 217.147C389.42 249.06 383.847 277.934 382.961 280.847C381.695 285.659 376.629 292.751 369.79 292.751Z" fill="#3E445B"/>
<path d="M379.162 260.458H319.261C309.763 260.458 304.064 257.545 301.911 251.593C300.265 247.034 287.601 206.889 286.588 201.19C285.954 197.771 285.575 193.972 287.727 191.439C289.12 189.792 291.273 189.033 294.313 189.033H399.424C400.311 189.033 401.071 189.792 401.071 190.679C401.071 191.565 400.311 192.325 399.424 192.325H294.313C292.286 192.325 290.893 192.705 290.134 193.592C288.994 194.985 289.247 197.771 289.754 200.683C290.64 206.002 303.304 246.021 304.824 250.453C305.837 253.366 308.496 257.165 319.134 257.165H379.035C381.695 257.165 384.987 254.759 385.747 251.086C385.874 250.2 386.76 249.567 387.647 249.82C388.533 249.947 389.166 250.833 388.913 251.72C388.153 256.532 383.847 260.458 379.162 260.458Z" fill="#3E445B"/>
<path d="M396.638 202.836H252.268C251.761 202.836 251.508 202.456 251.508 202.077C251.508 201.57 251.888 201.317 252.268 201.317H396.638C397.145 201.317 397.398 201.697 397.398 202.077C397.398 202.456 397.018 202.836 396.638 202.836Z" fill="#3E445B"/>
<path d="M394.105 218.16H256.574C256.067 218.16 255.814 217.78 255.814 217.4C255.814 216.893 256.194 216.64 256.574 216.64H393.978C394.485 216.64 394.738 217.02 394.738 217.4C394.865 217.78 394.485 218.16 394.105 218.16Z" fill="#3E445B"/>
<path d="M391.066 233.483H261.513C261.006 233.483 260.753 233.103 260.753 232.724C260.753 232.217 261.133 231.964 261.513 231.964H391.066C391.572 231.964 391.826 232.344 391.826 232.724C391.952 233.103 391.572 233.483 391.066 233.483Z" fill="#3E445B"/>
<path d="M388.153 248.807H266.198C265.692 248.807 265.438 248.427 265.438 248.047C265.438 247.54 265.818 247.287 266.198 247.287H388.153C388.66 247.287 388.913 247.667 388.913 248.047C388.913 248.427 388.66 248.807 388.153 248.807Z" fill="#3E445B"/>
<path d="M429.058 281.733V292.371H419.56L418.8 281.607L429.058 281.733Z" fill="#FCE8EE"/>
<path d="M419.814 291.485C419.814 291.485 409.936 295.79 408.289 296.424L407.403 300.729H430.451C430.451 300.729 430.451 298.07 430.451 296.677C430.451 295.157 429.185 291.485 429.185 291.485H419.814Z" fill="#473D9E"/>
<path d="M430.45 300.837L402.336 300.876L402.339 303.155L430.453 303.117L430.45 300.837Z" fill="#172183"/>
<path d="M402.337 300.856C402.337 300.856 401.957 299.463 403.224 298.703C404.363 297.943 408.543 296.297 408.669 296.17C409.682 296.297 410.695 298.45 411.075 300.856H402.337Z" fill="#172183"/>
<path d="M411.202 296.17C411.329 296.297 411.202 296.55 411.075 296.677C410.949 296.804 410.695 296.677 410.569 296.55L410.062 295.664C409.936 295.537 410.062 295.284 410.189 295.157C410.316 295.031 410.569 295.157 410.695 295.284L411.202 296.17Z" fill="#020933"/>
<path d="M412.721 295.537C412.848 295.664 412.721 295.917 412.595 296.044C412.468 296.17 412.215 296.044 412.088 295.917L411.582 295.031C411.455 294.904 411.582 294.651 411.708 294.524C411.835 294.397 412.088 294.524 412.215 294.651L412.721 295.537Z" fill="#020933"/>
<path d="M414.241 294.777C414.368 294.904 414.241 295.157 414.115 295.284C413.988 295.411 413.735 295.284 413.608 295.157L413.102 294.271C412.975 294.144 413.102 293.891 413.228 293.764C413.355 293.638 413.608 293.764 413.735 293.891L414.241 294.777Z" fill="#020933"/>
<path d="M415.888 294.144C416.014 294.271 415.888 294.524 415.761 294.651C415.634 294.777 415.381 294.651 415.254 294.524L414.748 293.638C414.621 293.511 414.748 293.258 414.874 293.131C415.001 293.004 415.254 293.131 415.381 293.258L415.888 294.144Z" fill="#020933"/>
<path d="M425.006 151.167C425.006 151.167 411.582 195.871 409.429 203.85C407.276 211.701 406.01 219.046 408.036 227.151C409.936 235.256 417.154 288.192 417.154 288.192C417.154 288.192 426.272 289.079 432.604 285.659C432.604 285.659 429.311 230.697 429.565 226.392C429.818 222.212 429.945 220.059 431.084 217.02C432.224 214.107 456.286 167.25 456.286 167.25L425.006 151.167Z" fill="#172183"/>
<path d="M448.814 163.958C448.814 163.958 428.551 209.168 427.158 213.094C425.639 217.02 424.499 222.339 424.499 226.265C424.626 230.191 428.298 282.367 428.298 282.367" stroke="#020933" stroke-width="0.25" stroke-miterlimit="10"/>
<path d="M416.394 283.38C416.394 283.38 425.892 283.886 432.224 281.353" stroke="#020933" stroke-width="0.25" stroke-miterlimit="10"/>
<path d="M511.121 258.558L518.466 266.283L511.754 272.742L503.649 265.523L511.121 258.558Z" fill="#FCE8EE"/>
<path d="M511.248 271.982C511.248 271.982 507.069 281.86 506.435 283.506L508.841 287.306L525.431 271.349C525.431 271.349 523.658 269.449 522.645 268.436C521.632 267.423 518.086 265.523 518.086 265.523L511.248 271.982Z" fill="#473D9E"/>
<path d="M525.417 271.322L505.186 290.845L506.769 292.485L527 272.963L525.417 271.322Z" fill="#172183"/>
<path d="M505.169 290.851C505.169 290.851 504.029 290.092 504.283 288.699C504.536 287.306 506.435 283.253 506.562 283.126C507.322 282.493 509.728 283.38 511.501 284.773L505.169 290.851Z" fill="#172183"/>
<path d="M508.335 281.48C508.462 281.48 508.588 281.733 508.588 281.86C508.588 281.987 508.335 282.113 508.208 282.113L507.195 281.86C507.069 281.86 506.942 281.607 506.942 281.48C506.942 281.353 507.195 281.227 507.322 281.227L508.335 281.48Z" fill="#020933"/>
<path d="M508.968 279.834C509.095 279.834 509.222 280.087 509.222 280.214C509.222 280.34 508.968 280.467 508.842 280.467L507.828 280.214C507.702 280.214 507.575 279.96 507.575 279.834C507.575 279.707 507.828 279.581 507.955 279.581L508.968 279.834Z" fill="#020933"/>
<path d="M509.602 278.314C509.728 278.314 509.855 278.567 509.855 278.694C509.855 278.821 509.602 278.947 509.475 278.947L508.462 278.694C508.335 278.694 508.208 278.441 508.208 278.314C508.208 278.187 508.462 278.061 508.588 278.061L509.602 278.314Z" fill="#020933"/>
<path d="M510.235 276.668C510.361 276.668 510.488 276.921 510.488 277.048C510.488 277.174 510.235 277.301 510.108 277.301L509.095 277.048C508.968 277.048 508.842 276.794 508.842 276.668C508.842 276.541 509.095 276.414 509.221 276.414L510.235 276.668Z" fill="#020933"/>
<path d="M392.332 151.167C392.332 151.167 384.734 152.433 383.721 152.813C382.708 153.193 379.795 157.626 379.415 158.132C379.035 158.639 379.288 159.399 379.415 159.779C379.542 160.159 380.428 161.298 380.935 162.058C381.441 162.818 382.201 163.071 382.961 163.198C383.721 163.325 384.481 163.198 384.734 163.071C384.987 162.945 384.734 162.058 384.607 161.805C384.481 161.552 384.861 161.045 385.24 160.918C385.62 160.792 388.28 160.412 391.066 159.779C393.979 159.019 395.752 155.979 395.752 155.979L392.332 151.167Z" fill="#FCE8EE"/>
<path d="M427.665 103.297C423.613 102.031 421.333 100.638 419.307 104.817C418.42 106.59 417.027 111.909 416.394 114.695C414.368 124.953 414.621 142.429 391.193 150.407L396.385 160.032C411.962 153.953 428.552 145.975 432.098 122.8C433.617 116.594 432.857 104.817 427.665 103.297Z" fill="#2A3A84"/>
<path d="M434.63 156.233C434.63 156.233 449.067 200.684 451.727 208.409C454.386 216.134 457.552 222.846 463.757 228.418C469.963 233.99 505.929 273.375 505.929 273.375C505.929 273.375 513.907 268.816 517.2 262.484C517.2 262.484 483.26 219.046 480.98 215.5C478.701 211.955 477.688 210.055 476.928 206.889C476.168 203.85 469.33 151.547 469.33 151.547L434.63 156.233Z" fill="#172183"/>
<path d="M461.478 153.32C461.478 153.32 470.596 201.95 471.609 206.129C472.622 210.308 474.649 215.374 477.055 218.54C479.334 221.706 512.134 262.484 512.134 262.484" stroke="#020933" stroke-width="0.25" stroke-miterlimit="10"/>
<path d="M502.763 269.956C502.763 269.956 510.868 264.89 514.667 259.191" stroke="#020933" stroke-width="0.25" stroke-miterlimit="10"/>
<path d="M430.071 94.6855C430.071 94.6855 422.726 100.511 420.826 102.411C418.926 104.31 418.547 106.97 419.306 110.642C420.066 114.315 426.525 142.302 426.525 142.302L424.119 156.866C435.896 159.525 458.692 160.665 473.255 153.447C473.255 153.447 468.443 115.075 465.783 106.716C462.997 98.358 449.067 92.4059 449.067 92.4059L430.071 94.6855Z" fill="#4457BE"/>
<path d="M443.749 74.423C443.749 74.423 442.735 80.5018 444.888 86.0739C447.041 91.5195 448.814 92.5326 448.814 92.5326C448.814 92.5326 445.268 100.131 437.037 100.131C429.185 100.131 429.691 95.0654 429.691 95.0654C431.844 92.5326 432.984 89.6199 431.591 84.8075V74.5496H443.749V74.423Z" fill="#FCE8EE"/>
<path d="M443.622 79.7419C443.368 76.7025 443.748 74.423 443.748 74.423H431.718V84.6809C432.351 86.7071 432.477 88.4801 432.224 89.9998C438.683 88.86 441.595 84.0477 443.622 79.7419Z" fill="#FAD8E2"/>
<path d="M422.219 61.7589C422.219 61.7589 422.219 71.5103 422.219 73.7898C422.219 76.0693 422.219 77.9689 424.626 81.1349C427.032 84.3009 428.805 86.2005 431.084 85.9473C433.364 85.8206 440.456 83.2878 443.495 76.8292C446.028 74.5496 449.067 71.5103 448.941 64.2918C448.687 57.0732 442.229 50.9945 435.137 50.9945C427.918 50.9945 422.599 56.3134 422.219 61.7589Z" fill="#FCE8EE"/>
<path d="M439.063 60.6192C438.683 65.4315 440.076 70.6238 443.875 71.257H448.181C448.181 71.257 450.714 66.318 449.701 60.6192H439.063Z" fill="#848796"/>
<path d="M443.242 76.7025C447.548 77.8423 451.474 72.5234 448.941 69.2307C447.294 67.0778 442.989 68.2176 442.355 71.7635C442.102 73.9164 441.722 76.3226 443.242 76.7025Z" fill="#FCE8EE"/>
<path d="M422.219 61.7589H449.954C449.954 61.7589 451.094 53.0208 451.094 52.3876C451.094 51.7544 445.901 48.715 436.277 48.2084C426.652 47.7019 423.739 49.4748 423.739 49.4748C423.739 49.4748 423.106 51.7544 422.219 61.7589Z" fill="#3E445B"/>
<path d="M425.512 151.167C425.512 151.167 417.914 152.433 416.901 152.813C415.888 153.193 412.975 157.626 412.595 158.132C412.215 158.639 412.468 159.399 412.595 159.779C412.722 160.159 413.608 161.298 414.115 162.058C414.621 162.818 415.381 163.071 416.141 163.198C416.901 163.325 417.661 163.198 417.914 163.071C418.167 162.945 417.914 162.058 417.787 161.805C417.661 161.552 418.04 161.045 418.42 160.918C418.8 160.792 421.46 160.412 424.246 159.779C427.159 159.019 428.932 155.979 428.932 155.979L425.512 151.167Z" fill="#FCE8EE"/>
<path d="M460.845 103.297C455.019 101.524 450.967 105.323 449.574 114.821C448.181 124.319 447.801 142.556 424.372 150.534L429.565 160.159C445.141 154.08 461.731 146.101 465.277 122.926C466.797 116.594 466.164 104.817 460.845 103.297Z" fill="#2A3A84"/>
<path d="M445.141 188.653L435.39 158.512" stroke="#020933" stroke-width="0.25" stroke-miterlimit="10"/>
<path d="M156.274 166.237H54.9619C53.1889 166.237 51.7959 164.844 51.7959 163.071V142.556C51.7959 140.783 53.1889 139.39 54.9619 139.39H156.274C158.047 139.39 159.44 140.783 159.44 142.556V163.071C159.44 164.844 158.047 166.237 156.274 166.237Z" fill="#3A4368"/>
<path d="M65.853 158.259C62.5604 158.259 60.0276 155.726 60.0276 152.434V152.307C60.0276 149.141 62.5604 146.481 65.853 146.481C69.0191 146.481 71.6785 149.014 71.6785 152.307V152.434C71.6785 155.726 69.1457 158.259 65.853 158.259Z" fill="#C3C3F7"/>
<path d="M65.9796 155.853C64.08 155.853 62.5603 154.333 62.5603 152.434V152.307C62.5603 151.927 62.8136 151.674 63.1935 151.674C63.5734 151.674 63.8267 151.927 63.8267 152.307V152.434C63.8267 153.573 64.7132 154.46 65.853 154.46H65.9796C67.1194 154.46 68.0058 153.573 68.0058 152.434V152.307C68.0058 151.927 68.2591 151.674 68.639 151.674C69.019 151.674 69.2722 151.927 69.2722 152.307V152.434C69.2722 154.333 67.7526 155.853 65.9796 155.853Z" fill="#3A4368"/>
<path d="M65.8532 152.687C65.4733 152.687 65.22 152.434 65.22 152.054V149.141C65.22 148.761 65.4733 148.508 65.8532 148.508C66.2331 148.508 66.4864 148.761 66.4864 149.141V152.054C66.613 152.434 66.2331 152.687 65.8532 152.687Z" fill="#3A4368"/>
<path d="M65.8531 159.145C62.0538 159.145 59.1411 156.106 59.1411 152.434V152.307C59.1411 148.634 62.1805 145.595 65.8531 145.595C69.5256 145.595 72.565 148.634 72.565 152.307V152.434C72.565 156.233 69.6523 159.145 65.8531 159.145ZM65.8531 147.495C63.1936 147.495 60.9141 149.647 60.9141 152.434V152.56C60.9141 155.22 63.067 157.499 65.8531 157.499C68.5125 157.499 70.792 155.346 70.792 152.56V152.434C70.792 149.774 68.6391 147.495 65.8531 147.495Z" fill="#5D5199"/>
<path d="M124.234 155.22H118.789C117.775 155.22 117.016 154.46 117.016 153.447V151.547C117.016 150.534 117.775 149.774 118.789 149.774H124.234C125.247 149.774 126.007 150.534 126.007 151.547V153.32C126.007 154.333 125.247 155.22 124.234 155.22Z" fill="#C3C3F7"/>
<path d="M136.771 155.22H131.326C130.313 155.22 129.553 154.46 129.553 153.447V151.547C129.553 150.534 130.313 149.774 131.326 149.774H136.771C137.785 149.774 138.544 150.534 138.544 151.547V153.32C138.544 154.333 137.785 155.22 136.771 155.22Z" fill="#C3C3F7"/>
<path d="M149.309 155.22H143.864C142.85 155.22 142.091 154.46 142.091 153.447V151.547C142.091 150.534 142.85 149.774 143.864 149.774H149.309C150.322 149.774 151.082 150.534 151.082 151.547V153.32C151.082 154.333 150.322 155.22 149.309 155.22Z" fill="#C3C3F7"/>
<path d="M78.5172 139.39H88.0152L70.0323 95.0654C69.3991 93.4191 67.7527 92.5326 66.3597 93.1658C64.9666 93.6723 64.2068 95.4453 64.7134 97.0916L78.5172 139.39Z" fill="#3E445B"/>
<path d="M132.719 139.39L146.523 96.965C147.029 95.3187 146.396 93.5457 144.876 93.0392C143.483 92.5326 141.837 93.4191 141.204 94.9388L123.221 139.263L132.719 139.39Z" fill="#3E445B"/>
<path d="M153.108 171.303H58.0012C56.9881 171.303 56.2283 170.543 56.2283 169.53V166.237H154.881V169.53C154.881 170.543 154.121 171.303 153.108 171.303Z" fill="#3E445B"/>
<path d="M122.208 94.6855C122.208 103.424 115.116 110.516 106.378 110.516C97.6395 110.516 90.5476 103.424 90.5476 94.6855C90.5476 85.9473 97.6395 78.8554 106.378 78.8554C114.989 78.8554 122.208 85.9473 122.208 94.6855Z" fill="#5D5199"/>
<path d="M101.439 93.6724C101.059 93.2924 100.932 92.6592 100.932 92.026V90.7596C100.932 89.9998 101.059 89.4932 101.439 89.1133C101.819 88.7334 102.325 88.4801 103.085 88.4801C103.845 88.4801 104.352 88.7334 104.732 89.1133C105.112 89.4932 105.238 90.1264 105.238 90.8863V92.026C105.238 92.7859 104.985 93.2924 104.605 93.6724C104.225 94.0523 103.718 94.3056 102.959 94.3056C102.452 94.1789 101.819 94.0523 101.439 93.6724ZM109.037 88.6068H110.684L103.592 101.777H101.946L109.037 88.6068ZM103.592 92.5326C103.718 92.406 103.718 92.1527 103.718 91.8994V90.633C103.718 90.3797 103.718 90.2531 103.592 90.1264C103.465 89.9998 103.339 89.8732 103.085 89.8732C102.832 89.8732 102.705 89.9998 102.579 90.1264C102.452 90.2531 102.452 90.5064 102.452 90.633V91.8994C102.452 92.1527 102.452 92.406 102.579 92.5326C102.705 92.6592 102.832 92.7859 103.085 92.7859C103.339 92.7859 103.465 92.6592 103.592 92.5326ZM108.024 101.271C107.644 100.891 107.518 100.258 107.518 99.6245V98.3581C107.518 97.5982 107.644 97.0917 108.024 96.7117C108.404 96.3318 108.911 96.0785 109.671 96.0785C110.43 96.0785 110.937 96.3318 111.317 96.7117C111.697 97.0917 111.823 97.7249 111.823 98.4847V99.6245C111.823 100.384 111.57 100.891 111.19 101.271C110.81 101.651 110.304 101.904 109.544 101.904C108.911 101.904 108.404 101.651 108.024 101.271ZM110.177 100.258C110.304 100.131 110.304 99.8777 110.304 99.6245V98.3581C110.304 98.1048 110.304 97.9781 110.177 97.8515C110.05 97.7249 109.924 97.5982 109.671 97.5982C109.417 97.5982 109.291 97.7249 109.164 97.8515C109.037 97.9781 108.911 98.1048 108.911 98.3581V99.6245C108.911 99.8777 108.911 100.131 109.037 100.258C109.164 100.384 109.291 100.511 109.544 100.511C109.797 100.384 110.05 100.384 110.177 100.258Z" fill="white"/>
</svg>
