<svg width="1440" height="9014" viewBox="0 0 1440 9014" fill="none" xmlns="http://www.w3.org/2000/svg">
<path fill-rule="evenodd" clip-rule="evenodd" d="M0 274.908C6.7403 292.354 12.7126 310.828 18.6274 329.124C21.3833 337.648 24.1267 346.134 26.9294 354.459C60.8748 455.291 85.0063 502.561 172.303 526.247C211.357 536.844 275.463 519.998 347.763 500.999C437.072 477.53 538.883 450.775 621.425 468.401C699.529 485.079 758.131 547.482 814.504 607.511L814.505 607.512C865.939 662.281 915.518 715.076 976.361 729.365C1048.14 746.222 1096.37 703.308 1147.68 657.657C1187.53 622.198 1229.24 585.087 1285.28 573.056C1355.77 557.923 1407.61 603.26 1440 647.142V0H0V274.908Z" fill="#F3F6FF"/>
<path d="M-750.659 3364.68L-682.788 3325.5C-682.788 3325.5 -693.728 3106.81 -575.589 3054.98C-457.242 3003.2 -159.798 3100.31 -65.3502 2969.02C29.0977 2837.73 -125.017 2438.14 99.4623 2275.62C323.942 2113.09 472.704 2296.04 700.521 2148.14C928.469 2000.16 759.591 1831.46 969.541 1710.25C1179.49 1589.03 1325.52 1803.85 1442.53 1730.84C1559.53 1657.83 1556.49 1505.88 1556.49 1505.88L2559.37 3242.92C2559.37 3242.92 2305.37 3120.73 2191.66 3285.14C2077.96 3449.56 2184.58 3681.49 2011.6 3781.36C1838.62 3881.23 1544.01 3741.46 1344.75 3861.96C1145.48 3982.47 1027.83 4330.33 906.094 4395.15C784.363 4459.98 708.197 4432.65 565.203 4356.05C422.209 4279.45 264.326 4167.61 175.674 4394.32C86.9462 4620.9 14.595 4690.14 14.595 4690.14L-750.659 3364.68Z" fill="#F3F6FF"/>
<path d="M2247.24 7504.97L2179.37 7465.78C2179.37 7465.78 2190.31 7247.1 2072.17 7195.26C1953.82 7143.48 1656.38 7240.6 1561.93 7109.3C1467.48 6978.01 1621.6 6578.43 1397.12 6415.9C1172.64 6253.38 1023.87 6436.33 796.058 6288.43C568.11 6140.45 736.988 5971.75 527.038 5850.53C317.088 5729.32 171.058 5944.13 54.0532 5871.12C-62.9512 5798.11 -59.9106 5646.17 -59.9106 5646.17L-1062.79 7383.21C-1062.79 7383.21 -808.789 7261.01 -695.085 7425.43C-581.381 7589.84 -687.999 7821.78 -515.022 7921.65C-342.044 8021.52 -47.4355 7881.74 151.833 8002.25C351.1 8122.75 468.753 8470.62 590.484 8535.44C712.216 8600.26 788.382 8572.93 931.376 8496.33C1074.37 8419.73 1232.25 8307.89 1320.9 8534.61C1409.63 8761.19 1481.98 8830.43 1481.98 8830.43L2247.24 7504.97Z" fill="#F3F6FF"/>
</svg>
