<svg width="442" height="400" viewBox="0 0 442 400" fill="none" xmlns="http://www.w3.org/2000/svg">
<path d="M164.448 243.931C164.448 254.04 156.324 262.163 146.216 262.163H20.037C9.92827 262.163 1.80518 254.04 1.80518 243.931V100.423C1.80518 90.3142 9.92827 82.1911 20.037 82.1911H146.216C156.324 82.1911 164.448 90.3142 164.448 100.423V243.931Z" fill="#CBCDD2"/>
<path d="M162.642 241.584C162.642 251.693 154.519 259.816 144.411 259.816H18.2318C8.12309 259.816 0 251.693 0 241.584V98.2568C0 88.1481 8.12309 80.025 18.2318 80.025H144.411C154.519 80.025 162.642 88.1481 162.642 98.2568V241.584Z" fill="#F7F9FE"/>
<path d="M162.642 107.282V98.2568C162.642 88.1481 154.519 80.025 144.411 80.025H18.2318C8.12309 80.025 0 88.1481 0 98.2568V107.282H162.642Z" fill="#3464E0"/>
<path d="M127.804 99.5204C127.804 100.423 127.082 100.965 126.36 100.965H116.431C115.529 100.965 114.987 100.242 114.987 99.5204V89.5922C114.987 88.6896 115.709 88.1481 116.431 88.1481H126.36C127.262 88.1481 127.804 88.8701 127.804 89.5922V99.5204Z" fill="white"/>
<path d="M146.397 99.5204C146.397 100.423 145.674 100.965 144.952 100.965H135.024C134.122 100.965 133.58 100.242 133.58 99.5204V89.5922C133.58 88.6896 134.302 88.1481 135.024 88.1481H144.952C145.855 88.1481 146.397 88.8701 146.397 89.5922V99.5204Z" fill="white"/>
<path d="M106.323 94.6465C106.323 98.2568 103.435 101.145 99.8244 101.145H16.6078C12.9976 101.145 10.1094 98.2568 10.1094 94.6465C10.1094 91.0363 12.9976 88.1481 16.6078 88.1481H100.005C103.435 88.1481 106.323 91.0363 106.323 94.6465Z" fill="white"/>
<path d="M149.104 126.778H96.7549V136.706H149.104V126.778Z" fill="#3A4368"/>
<path d="M149.104 143.746H96.7549V148.62H149.104V143.746Z" fill="#C3C3F7"/>
<path d="M149.104 153.855H96.7549V158.729H149.104V153.855Z" fill="#C3C3F7"/>
<path d="M149.104 164.144H96.7549V169.018H149.104V164.144Z" fill="#C3C3F7"/>
<path d="M149.104 174.253H96.7549V179.127H149.104V174.253Z" fill="#C3C3F7"/>
<path d="M149.104 184.362H96.7549V189.235H149.104V184.362Z" fill="#C3C3F7"/>
<path d="M149.104 194.47H96.7549V199.344H149.104V194.47Z" fill="#C3C3F7"/>
<path d="M149.284 215.229H19.4946V220.103H149.284V215.229Z" fill="#C3C3F7"/>
<path d="M149.284 227.504H19.4946V232.378H149.284V227.504Z" fill="#C3C3F7"/>
<path d="M441.897 277.506C441.897 285.81 435.218 292.489 426.914 292.489H322.577C314.274 292.489 307.595 285.81 307.595 277.506V158.909C307.595 150.606 314.274 143.927 322.577 143.927H426.914C435.218 143.927 441.897 150.606 441.897 158.909V277.506Z" fill="#CBCDD2"/>
<path d="M440.452 275.701C440.452 284.005 433.773 290.684 425.47 290.684H321.133C312.829 290.684 306.15 284.005 306.15 275.701V157.104C306.15 148.8 312.829 142.121 321.133 142.121H425.47C433.773 142.121 440.452 148.8 440.452 157.104V275.701Z" fill="#F7F9FE"/>
<path d="M440.452 164.505V157.104C440.452 148.8 433.773 142.121 425.47 142.121H321.133C312.829 142.121 306.15 148.8 306.15 157.104V164.686H440.452V164.505Z" fill="#3464E0"/>
<path d="M411.57 158.187C411.57 158.909 411.029 159.451 410.307 159.451H402.184C401.461 159.451 400.92 158.909 400.92 158.187V150.064C400.92 149.342 401.461 148.8 402.184 148.8H410.307C411.029 148.8 411.57 149.342 411.57 150.064V158.187Z" fill="white"/>
<path d="M427.095 158.187C427.095 158.909 426.553 159.451 425.831 159.451H417.708C416.986 159.451 416.444 158.909 416.444 158.187V150.064C416.444 149.342 416.986 148.8 417.708 148.8H425.831C426.553 148.8 427.095 149.342 427.095 150.064V158.187Z" fill="white"/>
<path d="M393.88 154.216C393.88 157.104 391.533 159.451 388.645 159.451H319.689C316.801 159.451 314.273 157.104 314.273 154.216C314.273 151.328 316.62 148.8 319.689 148.8H388.645C391.533 148.8 393.88 151.147 393.88 154.216Z" fill="white"/>
<path d="M348.391 178.405C330.52 178.405 316.079 192.846 316.079 210.716C316.079 228.587 330.52 243.028 348.391 243.028C366.262 243.028 380.703 228.587 380.703 210.716C380.703 192.846 366.262 178.405 348.391 178.405Z" fill="#5D5199"/>
<path d="M429.441 180.751H386.118V188.874H429.441V180.751Z" fill="#3A4368"/>
<path d="M429.441 194.831H386.118V198.983H429.441V194.831Z" fill="#C3C3F7"/>
<path d="M429.441 207.287H416.805H386.118V203.135H429.441V207.287Z" fill="#C3C3F7"/>
<path d="M429.441 211.619H386.118V215.771H429.441V211.619Z" fill="#C3C3F7"/>
<path d="M429.441 219.923H386.118V224.074H429.441V219.923Z" fill="#C3C3F7"/>
<path d="M429.441 228.407H386.118V232.559H429.441V228.407Z" fill="#C3C3F7"/>
<path d="M429.441 236.71H386.118V240.862H429.441V236.71Z" fill="#C3C3F7"/>
<path d="M429.441 253.859H322.036V258.011H429.441V253.859Z" fill="#C3C3F7"/>
<path d="M429.441 263.968H322.036V268.12H429.441V263.968Z" fill="#C3C3F7"/>
<path d="M352.362 112.156C352.362 119.016 346.766 124.612 339.906 124.612H253.621C246.761 124.612 241.166 119.016 241.166 112.156V13.9571C241.166 7.09765 246.761 1.50174 253.621 1.50174H339.906C346.766 1.50174 352.362 7.09765 352.362 13.9571V112.156Z" fill="#CBCDD2"/>
<path d="M351.098 110.532C351.098 117.391 345.502 122.987 338.643 122.987H252.357C245.498 122.987 239.902 117.391 239.902 110.532V12.5131C239.902 5.65356 245.498 0.0576477 252.357 0.0576477H338.643C345.502 0.0576477 351.098 5.65356 351.098 12.5131V110.532Z" fill="#F7F9FE"/>
<path d="M351.098 18.6505V12.5131C351.098 5.65356 345.502 0.0576477 338.643 0.0576477H252.357C245.498 0.0576477 239.902 5.65356 239.902 12.5131V18.6505H351.098Z" fill="#3464E0"/>
<path d="M327.27 13.4156C327.27 13.9571 326.729 14.4987 326.187 14.4987H319.508C318.967 14.4987 318.425 13.9571 318.425 13.4156V6.73661C318.425 6.19507 318.967 5.65353 319.508 5.65353H326.368C326.909 5.65353 327.451 6.19507 327.451 6.73661V13.4156H327.27Z" fill="white"/>
<path d="M340.087 13.4156C340.087 13.9571 339.545 14.4987 339.004 14.4987H332.144C331.603 14.4987 331.061 13.9571 331.061 13.4156V6.73661C331.061 6.19507 331.603 5.65353 332.144 5.65353H339.004C339.545 5.65353 340.087 6.19507 340.087 6.73661V13.4156Z" fill="white"/>
<path d="M312.649 9.98585C312.649 12.3325 310.663 14.3182 308.316 14.3182H251.274C248.928 14.3182 246.942 12.3325 246.942 9.98585C246.942 7.63918 248.928 5.65353 251.274 5.65353H308.316C310.663 5.65353 312.649 7.63918 312.649 9.98585Z" fill="white"/>
<path d="M275.102 30.0229C260.3 30.0229 248.386 41.9367 248.386 56.7388C248.386 71.5409 260.3 83.4548 275.102 83.4548C289.904 83.4548 301.818 71.5409 301.818 56.7388C301.638 41.9367 289.724 30.0229 275.102 30.0229Z" fill="#5D5199"/>
<path d="M341.892 32.0084H306.15V38.8679H341.892V32.0084Z" fill="#3A4368"/>
<path d="M341.892 43.5613H306.15V46.9911H341.892V43.5613Z" fill="#C3C3F7"/>
<path d="M341.892 50.6013H306.15V54.0311H341.892V50.6013Z" fill="#C3C3F7"/>
<path d="M341.892 57.4608H306.15V60.8906H341.892V57.4608Z" fill="#C3C3F7"/>
<path d="M341.892 64.5008H306.15V67.9306H341.892V64.5008Z" fill="#C3C3F7"/>
<path d="M341.892 71.3604H306.15V74.7901H341.892V71.3604Z" fill="#C3C3F7"/>
<path d="M341.892 78.4004H306.15V81.8301H341.892V78.4004Z" fill="#C3C3F7"/>
<path d="M341.892 92.4803H253.26V95.9101H341.892V92.4803Z" fill="#C3C3F7"/>
<path d="M341.892 100.964H253.26V104.394H341.892V100.964Z" fill="#C3C3F7"/>
<path d="M115.764 359.5C118.496 365.421 123.658 370.127 128.971 373.315C130.185 374.074 131.4 374.833 132.614 375.44C134.891 376.806 137.32 378.324 139.597 379.69C140.963 380.449 142.33 381.36 143.696 382.119C144.758 382.726 146.58 382.575 146.884 381.057C147.187 379.539 145.973 378.324 144.91 377.565C143.999 376.806 143.089 375.895 142.178 375.136C140.204 373.466 138.383 371.645 136.409 369.975C135.954 369.671 135.498 369.216 135.043 368.76C135.498 369.064 136.106 369.519 136.561 369.823C137.775 370.734 139.142 371.645 140.356 372.556C141.874 373.77 143.544 374.833 145.062 376.047C146.58 377.11 148.098 378.172 149.616 379.235C150.679 379.994 151.742 380.905 152.956 381.512C153.867 382.119 155.537 382.423 156.447 381.512C156.903 380.905 156.903 380.146 156.751 379.539C156.599 378.78 155.992 377.717 155.537 377.261C154.929 376.806 154.474 376.199 154.019 375.743C152.652 374.225 150.982 372.859 149.464 371.645C147.795 370.127 146.125 368.76 144.303 367.394C142.937 366.18 141.419 364.965 140.053 363.903C139.445 363.295 138.686 362.84 138.079 362.233C138.079 362.233 158.117 377.869 158.117 378.021C159.484 379.083 162.671 380.905 164.19 378.476C164.645 377.717 164.341 375.895 164.038 375.136C163.582 374.225 162.823 373.618 162.064 373.011C160.546 371.645 159.18 370.278 157.662 369.064C154.474 366.483 151.438 363.751 148.098 361.17C147.339 360.563 146.732 359.956 145.973 359.5C148.25 361.474 150.982 363.295 153.563 365.117C156.599 367.091 158.421 368.912 160.85 370.278C161.457 370.582 162.368 371.341 162.975 371.341C164.038 371.341 165.404 371.037 165.859 370.278C166.618 369.216 165.859 367.091 164.797 366.18C158.876 361.018 154.778 357.679 149.313 354.339C149.313 354.339 144.758 351.455 144.303 350.999C144.303 350.999 153.26 355.857 159.028 354.794C159.028 354.794 166.77 350.999 154.17 348.267C154.17 348.267 147.187 345.079 142.785 342.954C142.785 342.954 134.284 338.399 124.265 341.435C124.265 341.435 116.067 336.426 113.942 334.604L106.2 344.775C106.048 344.623 113.638 355.098 115.764 359.5Z" fill="#FCE8EE"/>
<path d="M312.655 349.481C313.262 356.009 310.985 362.688 307.949 368.001C307.19 369.216 306.583 370.43 305.824 371.645C304.458 374.074 303.091 376.502 301.725 378.779C300.966 380.146 300.207 381.664 299.296 383.03C298.689 384.093 297.019 384.852 295.957 383.789C294.894 382.575 295.349 381.057 295.957 379.69C296.412 378.476 296.716 377.261 297.171 376.199C298.082 373.77 298.841 371.341 299.6 368.76C299.752 368.153 299.904 367.698 300.207 367.091C299.904 367.698 299.752 368.305 299.448 368.76C298.841 370.127 298.234 371.645 297.475 373.011C296.716 374.833 295.805 376.502 295.046 378.324C294.287 379.994 293.528 381.664 292.769 383.334C292.161 384.548 291.706 385.763 291.099 386.977C290.492 388.04 289.277 389.102 288.063 388.647C287.456 388.343 287 387.736 286.848 387.129C286.545 386.522 286.545 385.155 286.848 384.548C287.152 383.789 287.304 383.182 287.456 382.423C287.911 380.449 288.67 378.476 289.277 376.654C290.036 374.529 290.795 372.404 291.554 370.43C292.161 368.76 292.921 366.939 293.528 365.269C293.831 364.51 294.135 363.599 294.439 362.84L284.723 386.37C284.116 387.888 282.142 391.076 279.713 389.861C278.954 389.406 278.347 387.736 278.195 386.825C278.195 385.914 278.499 385.004 278.803 384.093C279.41 382.271 280.017 380.298 280.624 378.476C281.991 374.681 283.509 370.734 285.027 366.939C285.33 366.028 285.634 365.269 286.089 364.358C285.027 367.242 283.66 370.278 282.294 373.011C280.624 376.199 279.865 378.628 278.499 381.057C278.195 381.664 277.74 382.575 277.133 383.03C276.222 383.485 274.856 383.941 274.097 383.637C272.882 383.03 272.579 380.753 273.034 379.539C275.615 372.252 277.588 367.091 280.624 361.474C280.624 361.474 283.205 356.768 283.357 356.161C283.357 356.161 278.044 364.813 272.427 366.787C272.427 366.787 263.774 367.242 273.338 358.741C273.338 358.741 277.892 352.517 280.624 348.57C280.624 348.57 285.786 340.525 295.957 338.096C295.957 338.096 300.511 329.746 301.573 327.166L318.424 334.301C318.727 333.997 312.2 344.775 312.655 349.481Z" fill="#FCE8EE"/>
<path d="M192.73 208.454C192.73 208.454 196.677 219.688 185.292 228.341C185.292 228.341 211.554 255.362 246.014 228.341C246.014 228.341 232.958 226.974 237.816 201.319L192.73 208.454Z" fill="#FACBD8"/>
<path d="M326.47 323.826L302.636 261.586C297.323 246.102 283.812 236.69 269.543 230.921C261.801 227.733 254.059 224.697 246.468 221.509C220.662 249.745 188.175 221.509 188.175 221.509C183.318 224.09 178.612 226.823 173.754 229.555C160.395 236.994 144.759 242.459 136.41 256.121L98.4585 322.612C98.4585 322.612 101.95 347.659 111.666 353.883C111.666 353.883 114.398 338.551 134.74 340.828L131.552 325.041L165.101 290.884L170.414 348.874H259.979L266.962 290.884L295.198 323.522L282.598 346.141C303.699 337.337 312.655 351.758 312.655 351.758C312.655 351.758 323.282 338.703 326.47 323.826Z" fill="#4457BE"/>
<path d="M254.666 166.101C254.666 132.703 236.297 114.487 213.83 114.487C191.363 114.487 172.995 132.703 172.995 166.101C171.628 166.101 164.949 166.556 168.744 174.298C168.744 174.298 172.843 179.308 173.146 185.683C173.146 185.683 174.664 189.175 176.79 187.505C181.799 201.016 191.059 211.339 200.016 217.714C200.016 217.714 215.196 227.733 226.582 218.777C237.36 212.098 246.772 202.23 251.478 187.809C253.299 188.416 254.514 185.683 254.514 185.683C254.818 179.308 258.916 174.298 258.916 174.298C262.711 166.556 255.88 166.101 254.666 166.101Z" fill="#FCE8EE"/>
<path d="M255.121 166.252C253.755 169.137 247.682 172.932 248.29 176.727C248.29 176.879 248.29 176.879 248.29 176.727C247.531 175.361 248.441 171.414 248.29 169.896C248.138 167.163 247.531 164.583 246.923 162.002C245.557 156.385 243.887 151.376 240.699 146.67C236.904 141.053 232.502 137.409 225.063 137.713C220.509 137.865 213.83 139.079 213.071 144.393C209.276 135.284 192.881 135.436 187.416 143.026C184.228 147.429 182.862 152.438 182.103 157.751C181.647 160.939 181.495 164.127 180.888 167.315C180.585 169.137 180.281 173.084 179.218 174.298C179.218 174.298 178.156 168.833 173.146 166.252C168.136 163.672 172.691 139.079 173.753 135.436C178.915 117.827 194.247 107.504 211.856 105.682C220.661 104.771 229.466 102.494 238.574 103.102C236.601 104.468 234.627 106.441 232.805 108.415C237.967 107.656 242.825 105.986 248.29 106.441C245.405 108.567 246.772 111.906 245.253 115.094C251.629 114.639 256.335 122.533 259.675 127.087C256.639 126.328 253.755 124.658 250.718 123.899C263.925 127.39 259.068 157.751 255.121 166.252Z" fill="#848796"/>
<path d="M188.175 221.358L177.853 227.126C177.853 227.126 196.221 243.825 215.197 243.977C215.348 243.977 215.652 243.977 215.804 243.977C234.931 243.673 248.29 238.208 255.425 225.001L246.62 221.358C246.62 221.358 232.047 234.261 219.599 233.957C219.447 233.957 206.088 234.565 188.175 221.358Z" fill="#2A3A84"/>
<path d="M288.669 376.502C288.669 380.146 285.785 383.03 282.142 383.03H144.91C141.267 383.03 138.382 380.146 138.382 376.502V276.463C138.382 272.82 141.267 269.935 144.91 269.935H282.142C285.785 269.935 288.669 272.82 288.669 276.463V376.502Z" fill="#3E445B"/>
<path d="M140.204 277.829V333.845C140.204 359.348 143.088 379.994 146.58 379.994H280.472C283.964 379.994 286.848 359.348 286.848 333.845V277.829H140.204Z" fill="#3A4368"/>
<path d="M181.646 381.36H160.849V386.218H181.646V381.36Z" fill="#3A4368"/>
<path d="M262.559 381.36H241.762V386.218H262.559V381.36Z" fill="#3A4368"/>
<path d="M123.202 388.191H304.457C304.457 388.191 302.028 396.085 297.474 399.121H139.597C139.597 399.121 124.72 397.603 123.202 388.191Z" fill="#3E445B"/>
<path d="M51.4459 123.89C29.9649 123.89 12.4551 141.399 12.4551 162.881C12.4551 184.362 29.9649 201.871 51.4459 201.871C72.927 201.871 90.4368 184.362 90.4368 162.881C90.4368 141.399 72.927 123.89 51.4459 123.89Z" fill="#5D5199"/>
</svg>
