<svg width="122" height="112" viewBox="0 0 122 112" fill="none" xmlns="http://www.w3.org/2000/svg">
<rect width="122" height="112" fill="white"/>
<path d="M61 7C51.3087 7 41.8351 9.8738 33.7771 15.258C25.7191 20.6422 19.4386 28.2949 15.7299 37.2485C12.0212 46.2021 11.0509 56.0543 12.9415 65.5594C14.8322 75.0645 19.499 83.7954 26.3518 90.6482C33.2046 97.501 41.9355 102.168 51.4406 104.058C60.9457 105.949 70.7979 104.979 79.7515 101.27C88.7051 97.5614 96.3578 91.2809 101.742 83.2229C107.126 75.1649 110 65.6913 110 56C110 43.0044 104.838 30.541 95.6482 21.3518C86.459 12.1625 73.9956 7 61 7ZM61 24.5C64.1151 24.5 67.1602 25.4237 69.7502 27.1543C72.3403 28.885 74.359 31.3448 75.5511 34.2227C76.7432 37.1007 77.0551 40.2675 76.4474 43.3227C75.8397 46.3779 74.3396 49.1842 72.1369 51.3869C69.9343 53.5896 67.1279 55.0896 64.0727 55.6974C61.0175 56.3051 57.8507 55.9932 54.9728 54.8011C52.0948 53.609 49.635 51.5903 47.9044 49.0002C46.1737 46.4101 45.25 43.365 45.25 40.25C45.2454 38.1804 45.6496 36.1302 46.4395 34.2173C47.2294 32.3043 48.3894 30.5662 49.8528 29.1028C51.3162 27.6393 53.0543 26.4794 54.9673 25.6895C56.8803 24.8996 58.9304 24.4954 61 24.5ZM89 87.22C81.3246 94.1581 71.3465 97.9995 61 97.9995C50.6535 97.9995 40.6755 94.1581 33 87.22V85.19C32.8675 80.3978 34.6311 75.7468 37.9077 72.2473C41.1844 68.7479 45.7095 66.6825 50.5 66.5H71.5C76.2689 66.6914 80.7726 68.7449 84.0444 72.2196C87.3163 75.6943 89.0955 80.3132 89 85.085V87.22Z" fill="#F3F6FF"/>
</svg>
