<svg width="72" height="110" viewBox="0 0 72 110" fill="none" xmlns="http://www.w3.org/2000/svg">
<path d="M46.2937 37.9577V31.9819C38.5039 31.9819 32.0495 38.2897 32.0495 46.1469H38.0587C38.17 41.6096 41.8424 37.9577 46.2937 37.9577Z" fill="#F7F9FE"/>
<path d="M38.17 47.1429H32.1607C31.493 47.1429 31.0479 46.7002 31.0479 46.0362C31.0479 37.6258 37.9475 30.7646 46.405 30.7646C47.0726 30.7646 47.5178 31.2072 47.5178 31.8712V37.8471C47.5178 38.5111 47.0726 38.9537 46.405 38.9537C42.51 38.9537 39.3941 42.0523 39.3941 45.9256C39.2828 46.7002 38.7264 47.1429 38.17 47.1429ZM33.2736 44.9296H37.0572C37.6136 40.7243 40.9521 37.4044 45.1808 36.8511V33.0885C38.8377 33.6419 33.83 38.6217 33.2736 44.9296Z" fill="#3464E0"/>
<path d="M46.2937 24.5674V17.1529C30.2689 17.1529 17.2488 30.1006 17.2488 46.0362H24.7048C24.7048 34.1951 34.3864 24.5674 46.2937 24.5674Z" fill="#F7F9FE"/>
<path d="M24.7048 47.1428H17.2488C16.5811 47.1428 16.136 46.7002 16.136 46.0362C16.136 29.4366 29.7125 16.0463 46.2937 16.0463C46.9614 16.0463 47.4065 16.4889 47.4065 17.1529V24.5674C47.4065 25.2314 46.9614 25.674 46.2937 25.674C34.9428 25.674 25.8176 34.8591 25.8176 46.0362C25.8176 46.7002 25.3725 47.1428 24.7048 47.1428ZM18.3617 44.9296H23.592C24.1484 33.3098 33.4961 24.0141 45.1808 23.4608V18.2595C30.7141 18.8129 18.9181 30.5432 18.3617 44.9296Z" fill="#3464E0"/>
<path d="M46.2937 8.96377V1.10663C21.3663 1.10663 1.11282 21.2475 1.11282 46.0362H9.01391C9.01391 25.5634 25.7063 8.96377 46.2937 8.96377Z" fill="#F7F9FE"/>
<path d="M9.01391 47.1429H1.11283C0.445131 47.1429 0 46.7002 0 46.0362C0 20.6942 20.8099 0 46.2937 0C46.9614 0 47.4065 0.442656 47.4065 1.10664V8.96378C47.4065 9.62777 46.9614 10.0704 46.2937 10.0704C26.374 10.0704 10.1267 26.2274 10.1267 46.0362C10.1267 46.7002 9.57033 47.1429 9.01391 47.1429ZM2.22566 44.9296H7.90108C8.4575 24.7887 24.9274 8.41046 45.1808 7.85714V2.21328C21.8114 2.7666 2.78207 21.6901 2.22566 44.9296Z" fill="#3464E0"/>
<path d="M66.102 17.1529H50.6337V24.678H62.2071C62.8748 24.678 63.5425 25.2314 63.5425 26.006V97.2736C63.5425 97.9376 62.9861 98.6016 62.2071 98.6016H25.9289C25.2612 98.6016 24.5935 98.0483 24.5935 97.2736V50.3521H17.1376V104.024C17.1376 106.68 19.3632 108.893 22.034 108.893H65.9907C68.6615 108.893 70.8872 106.68 70.8872 104.024V22.0221C70.8872 19.3662 68.7728 17.1529 66.102 17.1529Z" fill="#D6E0F9"/>
<path d="M66.102 110H22.034C18.6955 110 16.0247 107.344 16.0247 104.024V50.3521C16.0247 49.6881 16.4699 49.2455 17.1376 49.2455H24.5935C25.2612 49.2455 25.7063 49.6881 25.7063 50.3521V97.163C25.7063 97.2736 25.8176 97.3843 25.9289 97.3843H62.2071C62.3184 97.3843 62.4297 97.2736 62.4297 97.163V25.8954C62.4297 25.7847 62.3184 25.674 62.2071 25.674H50.6337C49.966 25.674 49.5209 25.2314 49.5209 24.5674V17.0422C49.5209 16.3783 49.966 15.9356 50.6337 15.9356H65.9907C69.3292 15.9356 72 18.5915 72 21.9115V104.024C72 107.344 69.3292 110 66.102 110ZM18.3617 51.4587V104.024C18.3617 106.127 20.0309 107.787 22.1453 107.787H66.102C68.2164 107.787 69.8856 106.127 69.8856 104.024V22.0221C69.8856 19.9195 68.2164 18.2596 66.102 18.2596H51.7465V23.5714H62.2071C63.5425 23.5714 64.6553 24.6781 64.6553 26.006V97.2736C64.6553 98.6016 63.5425 99.7082 62.2071 99.7082H25.9289C24.5935 99.7082 23.4807 98.6016 23.4807 97.2736V51.4587H18.3617Z" fill="#3464E0"/>
<path d="M44.068 107.012C45.9732 107.012 47.5178 105.476 47.5178 103.581C47.5178 101.687 45.9732 100.151 44.068 100.151C42.1627 100.151 40.6182 101.687 40.6182 103.581C40.6182 105.476 42.1627 107.012 44.068 107.012Z" fill="#F7F9FE"/>
<path d="M44.068 101.258C45.4034 101.258 46.4049 102.364 46.4049 103.581C46.4049 104.799 45.2921 105.905 44.068 105.905C42.8439 105.905 41.7311 104.799 41.7311 103.581C41.7311 102.364 42.7326 101.258 44.068 101.258ZM44.068 100.151C42.1762 100.151 40.6182 101.7 40.6182 103.581C40.6182 105.463 42.1762 107.012 44.068 107.012C45.9598 107.012 47.5178 105.463 47.5178 103.581C47.5178 101.7 45.9598 100.151 44.068 100.151Z" fill="#3464E0"/>
</svg>
