<svg width="115" height="110" viewBox="0 0 115 110" fill="none" xmlns="http://www.w3.org/2000/svg">
<path d="M53.4 31.9094C52.8 31.9094 52.4 31.5094 52.4 30.9094C52.4 15.0094 39.5 2.10938 23.6 2.10938C23 2.10938 22.6 1.70938 22.6 1.10938C22.6 0.509375 23 0.109375 23.6 0.109375C40.6 0.109375 54.4 13.9094 54.4 30.9094C54.4 31.4094 54 31.9094 53.4 31.9094Z" fill="#3464E0"/>
<path d="M43.9 31.9094C43.3 31.9094 42.9 31.5094 42.9 30.9094C42.9 20.3094 34.3 11.6094 23.6 11.6094C23 11.6094 22.6 11.2094 22.6 10.6094C22.6 10.0094 23 9.60938 23.6 9.60938C35.3 9.60938 44.9 19.1094 44.9 30.9094C44.9 31.4094 44.5 31.9094 43.9 31.9094Z" fill="#3464E0"/>
<path d="M35.5 31.9094C34.9 31.9094 34.5 31.5094 34.5 30.9094C34.5 24.9094 29.6 20.1094 23.7 20.1094C23.1 20.1094 22.7 19.7094 22.7 19.1094C22.7 18.5094 23.1 18.1094 23.7 18.1094C30.8 18.1094 36.5 23.9094 36.5 30.9094C36.5 31.4094 36 31.9094 35.5 31.9094Z" fill="#3464E0"/>
<path d="M111.3 108.909H3.2C2 108.909 1 107.909 1 106.709V86.4094C1 85.2094 2 84.2094 3.2 84.2094H111.3C112.5 84.2094 113.5 85.2094 113.5 86.4094V106.709C113.5 107.909 112.5 108.909 111.3 108.909Z" fill="#D6E0F9"/>
<path d="M111.3 109.909H3.2C1.5 109.909 0 108.509 0 106.709V86.4094C0 84.7094 1.4 83.2094 3.2 83.2094H111.3C113 83.2094 114.5 84.6094 114.5 86.4094V106.709C114.5 108.509 113 109.909 111.3 109.909ZM3.2 85.3093C2.6 85.3093 2 85.8094 2 86.5094V106.809C2 107.409 2.5 108.009 3.2 108.009H111.3C111.9 108.009 112.5 107.509 112.5 106.809V86.4094C112.5 85.8094 112 85.2094 111.3 85.2094H3.2V85.3093Z" fill="#3464E0"/>
<path d="M51.9 84.3094H8.20001C7.40001 84.3094 6.70001 83.6094 6.70001 82.8094V75.5094C6.70001 74.7094 7.40001 74.0094 8.20001 74.0094H51.9C52.7 74.0094 53.4 74.7094 53.4 75.5094V82.8094C53.4 83.6094 52.7 84.3094 51.9 84.3094Z" fill="#D6E0F9"/>
<path d="M51.9 85.3094H8.20001C6.80001 85.3094 5.70001 84.2094 5.70001 82.8094V75.5094C5.70001 74.1094 6.80001 73.0094 8.20001 73.0094H51.9C53.3 73.0094 54.4 74.1094 54.4 75.5094V82.8094C54.4 84.1094 53.3 85.3094 51.9 85.3094ZM8.20001 75.0094C7.90001 75.0094 7.70001 75.2094 7.70001 75.5094V82.8094C7.70001 83.1094 7.90001 83.3094 8.20001 83.3094H51.9C52.2 83.3094 52.4 83.1094 52.4 82.8094V75.5094C52.4 75.2094 52.2 75.0094 51.9 75.0094H8.20001Z" fill="#3464E0"/>
<path d="M40.4 74.0094H12.1C11.6 74.0094 11.1 73.6094 11.1 73.0094V64.7094C11.1 64.2094 11.5 63.7094 12.1 63.7094H40.4C40.9 63.7094 41.4 64.1094 41.4 64.7094V73.1094C41.4 73.6094 40.9 74.0094 40.4 74.0094Z" fill="#D6E0F9"/>
<path d="M40.4 75.0094H12.1C11 75.0094 10.1 74.1094 10.1 73.0094V64.7094C10.1 63.6094 11 62.7094 12.1 62.7094H40.4C41.5 62.7094 42.4 63.6094 42.4 64.7094V73.1094C42.4 74.1094 41.5 75.0094 40.4 75.0094ZM40.4 64.8093H12.1V73.1094H40.3V64.8093H40.4Z" fill="#3464E0"/>
<path d="M17 100.609C19.2091 100.609 21 98.8185 21 96.6094C21 94.4002 19.2091 92.6094 17 92.6094C14.7909 92.6094 13 94.4002 13 96.6094C13 98.8185 14.7909 100.609 17 100.609Z" fill="#F7F9FE"/>
<path d="M17 101.609C14.2 101.609 12 99.3094 12 96.6094C12 93.8094 14.3 91.6094 17 91.6094C19.7 91.6094 22 93.9094 22 96.6094C22 99.4094 19.8 101.609 17 101.609ZM17 93.5094C15.3 93.5094 14 94.9094 14 96.5094C14 98.1094 15.4 99.5094 17 99.5094C18.6 99.5094 20 98.1094 20 96.5094C20 94.9094 18.7 93.5094 17 93.5094Z" fill="#3464E0"/>
<path d="M34.1 100.609C36.3091 100.609 38.1 98.8185 38.1 96.6094C38.1 94.4002 36.3091 92.6094 34.1 92.6094C31.8909 92.6094 30.1 94.4002 30.1 96.6094C30.1 98.8185 31.8909 100.609 34.1 100.609Z" fill="#F7F9FE"/>
<path d="M34.1 101.609C31.3 101.609 29.1 99.3094 29.1 96.6094C29.1 93.8094 31.4 91.6094 34.1 91.6094C36.8 91.6094 39.1 93.9094 39.1 96.6094C39.1 99.4094 36.9 101.609 34.1 101.609ZM34.1 93.5094C32.4 93.5094 31.1 94.9094 31.1 96.5094C31.1 98.1094 32.5 99.5094 34.1 99.5094C35.7 99.5094 37.1 98.1094 37.1 96.5094C37.1 94.9094 35.8 93.5094 34.1 93.5094Z" fill="#3464E0"/>
<path d="M98 100.609H54.5C52.3 100.609 50.5 98.8094 50.5 96.6094C50.5 94.4094 52.3 92.6094 54.5 92.6094H98C100.2 92.6094 102 94.4094 102 96.6094C102 98.8094 100.2 100.609 98 100.609Z" fill="#F7F9FE"/>
<path d="M98 101.609H54.5C51.7 101.609 49.5 99.3094 49.5 96.6094C49.5 93.8094 51.8 91.6094 54.5 91.6094H98C100.8 91.6094 103 93.9094 103 96.6094C103 99.4094 100.8 101.609 98 101.609ZM54.5 93.5094C52.8 93.5094 51.5 94.9094 51.5 96.5094C51.5 98.1094 52.9 99.5094 54.5 99.5094H98C99.7 99.5094 101 98.1094 101 96.5094C101 94.9094 99.6 93.5094 98 93.5094H54.5Z" fill="#3464E0"/>
<path d="M26.2 27.9094H21V63.8094H26.2V27.9094Z" fill="#F7F9FE"/>
<path d="M27.2 64.8094H20V26.9094H27.2V64.8094ZM22 62.8094H25.2V28.9094H22V62.8094Z" fill="#3464E0"/>
<path d="M23.6 35.4094C26.0853 35.4094 28.1 33.3946 28.1 30.9094C28.1 28.4241 26.0853 26.4094 23.6 26.4094C21.1147 26.4094 19.1 28.4241 19.1 30.9094C19.1 33.3946 21.1147 35.4094 23.6 35.4094Z" fill="#D6E0F9"/>
<path d="M23.6 36.3094C20.6 36.3094 18.1 33.9094 18.1 30.8094C18.1 27.8094 20.5 25.3094 23.6 25.3094C26.7 25.3094 29.1 27.7094 29.1 30.8094C29.1 33.9094 26.7 36.3094 23.6 36.3094ZM23.6 27.4094C21.7 27.4094 20.1 29.0094 20.1 30.9094C20.1 32.8094 21.7 34.4094 23.6 34.4094C25.5 34.4094 27.1 32.8094 27.1 30.9094C27.1 29.0094 25.5 27.4094 23.6 27.4094Z" fill="#3464E0"/>
</svg>
