<svg width="114" height="111" viewBox="0 0 114 111" fill="none" xmlns="http://www.w3.org/2000/svg">
<path d="M102.531 100.837V94.15C93.8626 94.15 86.6806 101.208 86.6806 110H93.3673C93.4911 104.923 97.5775 100.837 102.531 100.837Z" fill="#F7F9FE" stroke="#3464E0" stroke-width="2" stroke-miterlimit="10"/>
<path d="M102.531 85.8534V77.5569C84.6993 77.5569 70.2114 92.0449 70.2114 109.876H78.5079C78.5079 96.6265 89.281 85.8534 102.531 85.8534Z" fill="#F7F9FE" stroke="#3464E0" stroke-width="2" stroke-miterlimit="10"/>
<path d="M102.531 68.3936V59.6018C74.793 59.6018 52.2563 82.1386 52.2563 109.876H61.0481C61.0481 86.9679 79.6223 68.3936 102.531 68.3936Z" fill="#F7F9FE" stroke="#3464E0" stroke-width="2" stroke-miterlimit="10"/>
<path d="M102.531 49.6955C105.007 49.6955 107.484 49.8194 109.836 50.1908C112.065 50.4385 113.427 47.7143 111.694 46.2283L62.2864 1.6501C61.2957 0.7833 59.9336 0.7833 58.943 1.6501L2.8487 52.1721C1.11511 53.658 2.22956 56.5061 4.45847 56.5061H17.5843C18.9464 56.5061 20.0609 57.6206 20.0609 58.9827V104.799C20.0609 106.161 21.1753 107.276 22.5374 107.276H42.35C43.8359 75.2042 70.2114 49.6955 102.531 49.6955Z" fill="#D6E0F9" stroke="#3464E0" stroke-width="2" stroke-miterlimit="10"/>
</svg>
